<svg id="Layer_1" data-name="Layer 1" xmlns="http://www.w3.org/2000/svg" viewBox="0 0 80 93"><defs><style>.cls-1{fill:#ee7b17;}</style></defs><title>ent-basic-plans</title><g id="Group_116" data-name="Group 116"><path id="Path_570" data-name="Path 570" class="cls-1" d="M23.78,14c-5.13,9.79-1.37,18.57-3.25,23.44s-12.65,10.76-4,21.42,23.79,12.84,33,2.91C60.84,49.65,57,21.05,47.69,11.09S27.06,7.77,23.78,14ZM47,12.59C55.82,22,59.48,49,48.79,60.53c-8.73,9.4-22.85,7.13-31.24-2.75C10,48.83,20.12,42,21.89,37.42s-2.31-12.8,2.54-22.06C27.54,9.45,38.26,3.18,47,12.59Z"/><path id="Path_571" data-name="Path 571" class="cls-1" d="M56.17,45.3c2.22-1.59,9.73-5.37,11.1-5.42s3.5,1.93,5.59,2.54,3.76-2,3.51-3.47-2.4-3.43-5.8-2.62-14.2,6.36-14.2,6.36Z"/><path id="Path_572" data-name="Path 572" class="cls-1" d="M20.41,38.37c-1.47-2.31-7-8.62-8.26-9.18s-4,.47-6.13.26-2.73-3.3-1.95-4.54,3.5-2.28,6.35-.25S21.2,35.88,21.2,35.88Z"/><path id="Path_573" data-name="Path 573" class="cls-1" d="M35.17,67.74a16.55,16.55,0,0,1,5.58,7.84c1.42,4.57-1,9.78.06,11.36,1,1.42,6.68,2.38,8.55.31a2.3,2.3,0,0,0-1.5-4.12,10.59,10.59,0,0,0-2.92.17.56.56,0,0,1-.63-.44v-.11a21.18,21.18,0,0,0-1.69-9,23.57,23.57,0,0,0-4.37-6.32C38,67.45,34,66.73,35.17,67.74Z"/><path id="Path_574" data-name="Path 574" class="cls-1" d="M26.31,65.58c-.17.52-1.07,5-3.14,7.27-3.15,3.39-5.94,3.41-8.65.89s-3-5.34-2.47-6.57a3.13,3.13,0,0,1,4.19-1.3,3.73,3.73,0,0,1,1.69,4.78c-.51,1.37,1.22,4.58,3.75,0,1.06-1.9,1.91-5.83,2.28-6.28S26.71,64.44,26.31,65.58Z"/><g id="Group_115" data-name="Group 115"><path id="Path_575" data-name="Path 575" class="cls-1" d="M32.44,24.25a.73.73,0,0,1,.68.71A5.52,5.52,0,0,0,44,25.91a.75.75,0,0,1,.8-.59h0a.77.77,0,0,1,.69.83s0,.06,0,.08A7,7,0,0,1,31.62,25a.76.76,0,0,1,.74-.78h.08Z"/></g><ellipse id="Ellipse_31" data-name="Ellipse 31" class="cls-1" cx="41.41" cy="20.67" rx="1.37" ry="0.99" transform="translate(7.51 52.18) rotate(-69.42)"/><ellipse id="Ellipse_32" data-name="Ellipse 32" class="cls-1" cx="36.19" cy="19.73" rx="1.44" ry="1.27" transform="translate(4.99 46.67) rotate(-69.42)"/></g></svg>