<svg id="Layer_1" data-name="Layer 1" xmlns="http://www.w3.org/2000/svg" viewBox="0 0 111 100"><defs><style>.cls-1{fill:#106ae1;}</style></defs><title>bean-outline</title><path id="blue-bean-outline-2" class="cls-1" d="M58.85,2.33c11.92,0,23.38,3.5,32.27,9.85A39.78,39.78,0,0,1,108,39.91C109.82,53.67,102.81,65,96.61,72A74.14,74.14,0,0,1,72,90a72.62,72.62,0,0,1-30,6.93,47.88,47.88,0,0,1-22.11-5C11.6,87.69,5.38,78.44,3.24,67.21A49.72,49.72,0,0,1,4.42,44.4,63.58,63.58,0,0,1,18.14,19.93C27.92,8.75,42.76,2.34,58.85,2.34m0-1.49C43.47.85,27.83,6.6,17,19-9.24,49,.43,83.62,19.2,93.26A49.53,49.53,0,0,0,42,98.43c33.62,0,71.5-28,67.51-58.71C106.29,14.9,82.9.85,58.86.85Z"/></svg>