<svg id="Layer_1" data-name="Layer 1" xmlns="http://www.w3.org/2000/svg" viewBox="0 0 118 115"><defs><style>.cls-1{fill:#f0c907;}</style></defs><title>bean-outline</title><g id="yellow-bean-outline-3"><path id="Path_605-3" data-name="Path 605-3" class="cls-1" d="M80.31,1.31v2h0c.51,0,1,0,1.56.06,8,.59,14.83,3.17,20.21,7.68a35,35,0,0,1,10.79,16.8c3.41,10.87,3,24-1.11,37a71.42,71.42,0,0,1-22.5,33.69A62.17,62.17,0,0,1,50.15,112c-13,0-25.36-3.8-34-10.44C3.88,92.05,3,81.52,3.49,76.08c.68-6.8,4.32-12.77,9.28-15.21A99.53,99.53,0,0,0,45.6,35.11c1.82-2.24,3.72-5.13,5.73-8.2,6.92-10.53,15.52-23.62,29-23.62v-2m0,0C61.63,1.31,52,24.13,44.06,33.86A98.69,98.69,0,0,1,11.9,59.09C.47,64.72-5.63,87.21,15,103.09c8.82,6.79,21.61,10.85,35.17,10.85A64,64,0,0,0,90.51,100c36-29.17,37.65-95.28-8.49-98.66Q81.15,1.31,80.31,1.31Z"/></g></svg>