<svg id="Layer_1" data-name="Layer 1" xmlns="http://www.w3.org/2000/svg" xmlns:xlink="http://www.w3.org/1999/xlink" viewBox="0 0 140 163"><defs><style>.cls-1{fill:none;}.cls-2{clip-path:url(#clip-path);}.cls-3{fill:#fff;opacity:0.99;}.cls-4{fill:#3068d9;}</style><clipPath id="clip-path"><path class="cls-1" d="M158.32-147.78c-19.2-15.29-44.68,5.58-61.69-10.53-21.38-20.23-60.21-6.58-61.51,19.82-1.27,26,21.88,24.34,39.82,53.66,14.7,24,47.79,40.33,72.23,18.63S180.68-130,158.32-147.78Z"/></clipPath></defs><title>blue-bean</title><g id="pattern-small"><g class="cls-2"><path class="cls-3" d="M7.61-4A11.64,11.64,0,0,0,6.43-2.46c-.28.43-.55.87-.83,1.31S5.05-.34,4.77.07,4.25.87,4,1.3A4.49,4.49,0,0,0,3.2,3.53a1.76,1.76,0,0,0,.19.87,1.56,1.56,0,0,0,.24.35.13.13,0,0,0,0,.06c0,.13.09.26.14.4a1.68,1.68,0,0,0,.59.65c.9.71,1.81,1.4,2.73,2.08.44.33.87.65,1.31,1,.2.14.4.28.61.41a2.34,2.34,0,0,0,.83.35l.41.07a4.73,4.73,0,0,0,.53,0,2.24,2.24,0,0,0,.77-.35,6.08,6.08,0,0,0,1-.81,9.32,9.32,0,0,0,.84-1L14,6.65l.78-1.18c.56-.85,1.15-1.68,1.62-2.57.12-.23.22-.47.32-.7a3.24,3.24,0,0,0,.21-.92c0-.12,0-.24,0-.36s0-.46-.08-.69A3.83,3.83,0,0,0,16.1-1.2a5.34,5.34,0,0,0-1-.89,6.41,6.41,0,0,0-.52-.39L13.86-3c-.43-.31-.89-.59-1.33-.87s-.78-.5-1.18-.71A8,8,0,0,0,10.46-5a2.35,2.35,0,0,0-1.11-.13,2.37,2.37,0,0,0-1.17.56l-.09.08c-.17.16-.32.35-.48.51ZM9.23-2.76h0Zm.38.23c.2.14.38.3.57.45l.92.74c.63.49,1.29,1,1.91,1.46a7.13,7.13,0,0,1,.61.62l0,.05V.85a.31.31,0,0,1,0,.08c-.19.35-.42.68-.63,1s-.54.83-.8,1.25l-.87,1.4c-.32.52-.63,1.05-1,1.54l-.08.08c-.16-.11-.32-.24-.48-.36l-1-.76L6.8,3.61c.13-.41.22-.83.34-1.24A15.08,15.08,0,0,1,7.79.68C7.88.47,8,.27,8.07.06l.51-1a7.56,7.56,0,0,1,.6-1l.33-.43.1-.11Zm4,3.14,0,0,0,0Z"/><path class="cls-3" d="M40.7,36.24c-.13.2-.27.39-.42.58h0c-.32.35-.64.69-1,1a13.78,13.78,0,0,0-1.24,1.4c-.6.73-1.1,1.55-1.68,2.31-.12.14-.26.27-.39.41a1.7,1.7,0,0,0-.56,1.19,1.63,1.63,0,0,0,.09.66,1.84,1.84,0,0,0,.36,1.76l.32.36a8.3,8.3,0,0,0,.82.74c.23.19.48.36.73.54.42.32.85.62,1.29.92.87.6,1.73,1.22,2.63,1.77l.67.4a6,6,0,0,0,.76.39,2.46,2.46,0,0,0,1.54.13,3.47,3.47,0,0,0,1.28-.66,4.64,4.64,0,0,0,.72-.68,7.56,7.56,0,0,0,.78-1l.36-.6c.56-1,1.11-1.91,1.66-2.87.24-.42.47-.84.7-1.26a4.74,4.74,0,0,0,.39-.86,2.07,2.07,0,0,0,0-1,2.11,2.11,0,0,0-.65-1.1,5.86,5.86,0,0,0-.87-.69c-.23-.16-.47-.3-.71-.45l-.83-.53-1.36-.9c-.81-.55-1.62-1.11-2.4-1.69L43.12,36a3.76,3.76,0,0,0-.91-.57,1,1,0,0,0-.86.1,1.44,1.44,0,0,0-.25.18,2.76,2.76,0,0,0-.4.49Zm1,.93,0,0h0l0,0ZM41.22,39c.2-.34.43-.66.65-1a3.2,3.2,0,0,0,.27-.52c.79.62,1.63,1.18,2.46,1.76l1.56,1.06c.69.46,1.41.89,2.06,1.39l.31.3a17.57,17.57,0,0,0-1.74,2.11c-.33.46-.66.92-1,1.39s-.67,1-1,1.49a4.68,4.68,0,0,1-.61.57l-.4-.29-.68-.5-1.45-1.06-1.47-1c-.38-.27-.77-.55-1.15-.84L39,43.75l.15-.25a9.79,9.79,0,0,0,.48-1c.19-.52.37-1,.57-1.55s.69-1.28,1.07-1.9Zm7.36,2.87s0,.06,0,.09l0-.09Zm.05,0,0,0h0l0-.06Zm-.09.15h0l0,0,0,0Zm.06.12,0,.08,0-.08Zm-4.78,5.57h0Zm.62,0h0Z"/><path class="cls-3" d="M64.89,58.87a11.09,11.09,0,0,0-1.19,1.54l-.83,1.3-.82,1.23a11.88,11.88,0,0,0-.75,1.23,4.51,4.51,0,0,0-.83,2.23,1.72,1.72,0,0,0,.19.86,1.41,1.41,0,0,0,.24.36.09.09,0,0,0,0,0l.14.41a1.73,1.73,0,0,0,.59.64c.9.71,1.81,1.41,2.73,2.09.44.32.87.65,1.31,1l.62.41a2.71,2.71,0,0,0,.82.35l.41.07a4.53,4.53,0,0,0,.53,0,1.92,1.92,0,0,0,.77-.35,5.55,5.55,0,0,0,1-.8,9.4,9.4,0,0,0,.85-1c.2-.28.38-.56.57-.84s.52-.79.78-1.19c.56-.84,1.15-1.67,1.63-2.57.11-.22.21-.46.31-.69a3.24,3.24,0,0,0,.21-.92,1.45,1.45,0,0,0,0-.36,4.17,4.17,0,0,0-.08-.7,3.59,3.59,0,0,0-.74-1.42,5.07,5.07,0,0,0-1-.9l-.51-.38-.78-.55c-.43-.3-.88-.58-1.33-.87s-.77-.49-1.18-.71a9,9,0,0,0-.89-.41,2.33,2.33,0,0,0-1.11-.13,2.22,2.22,0,0,0-1.16.56.39.39,0,0,0-.1.08,5.68,5.68,0,0,0-.47.51Zm1.62,1.24h0Zm.38.23c.19.14.38.3.56.45l.92.73c.64.5,1.29,1,1.91,1.47a5.1,5.1,0,0,1,.61.62l0,0v.05l0,.08c-.19.35-.41.69-.63,1l-.8,1.25-.87,1.41a16.87,16.87,0,0,1-1,1.54l-.08.08L67,68.73,66,68l-1.94-1.49c.12-.4.21-.82.33-1.23a14.37,14.37,0,0,1,.65-1.69l.29-.62c.16-.35.33-.69.5-1a6.5,6.5,0,0,1,.6-1,4.58,4.58,0,0,1,.34-.43.52.52,0,0,1,.1-.11Zm4,3.14v0Z"/><path class="cls-3" d="M63.75,38.84a1.21,1.21,0,0,0,.59.8h0A.84.84,0,0,0,64,40.78q1.29,2.17,2.61,4.33a8.13,8.13,0,0,0,.89,1.28,1.16,1.16,0,0,0,.54.38l.37.07a1,1,0,0,0,.47-.1,3.42,3.42,0,0,0,.61-.37,4.84,4.84,0,0,0,.65-.63c.44-.5.83-1.05,1.24-1.59.18-.24.38-.47.57-.71l.49-.58a7.22,7.22,0,0,0,.89-1.17,2.2,2.2,0,0,0-.16-2.42,1.81,1.81,0,0,0-.93-.57l-.62-.15-1.78-.41c-.38-.08-.77-.13-1.16-.2l-.69-.12c-.44-.08-.87-.17-1.31-.27l-.76-.18a5,5,0,0,0-.56-.09h-.15a1.29,1.29,0,0,0-.64.13,1.34,1.34,0,0,0-.4.27h0a1.21,1.21,0,0,0-.35,1.14ZM67,42.61,65.46,40l-.08-.12c.31,0,.62,0,.91.05l1.34.08c.43,0,.87.06,1.3.11s.85.1,1.27.16l.64.12.6.12,0,.05a7.64,7.64,0,0,1-.71,1c-.19.25-.39.49-.57.74s-.4.54-.58.82c-.32.47-.63.94-1,1.39l-.18.18c-.11-.13-.2-.27-.31-.41-.37-.56-.74-1.11-1.08-1.68Z"/><path class="cls-3" d="M50.74,14.48v0l0,0a4.78,4.78,0,0,1-.39.39,9.19,9.19,0,0,0-.66.74c-.32.4-.6.83-.91,1.23l-.27.33a1.81,1.81,0,0,0-.25.3A1.56,1.56,0,0,0,48,18.71v0a1.54,1.54,0,0,0,.16.44,1.86,1.86,0,0,0-.08.41,1.42,1.42,0,0,0,.38,1c1.32,1.16,2.64,2.31,4,3.43.55.46,1.11.93,1.67,1.38a4.27,4.27,0,0,0,1.09.6,1.85,1.85,0,0,0,1.84-.35,3.51,3.51,0,0,0,.77-1.42c.17-.35.34-.7.52-1.05.27-.53.55-1.06.77-1.61A2.39,2.39,0,0,0,59,19.7a3.85,3.85,0,0,0-1.06-1.25l-1.47-1.24-2.29-1.84L53,14.45,52.46,14a1.32,1.32,0,0,0-.7-.28,1,1,0,0,0-.51.12.78.78,0,0,0-.2.14,1.38,1.38,0,0,0-.31.47Zm-.06.1,0,.05,0-.05ZM51.14,19a3.61,3.61,0,0,0,.32-.76c.11-.35.21-.7.34-1s.26-.7.39-1c.22.16.44.32.65.49.46.34.91.69,1.35,1.06l1.26,1.08.64.56a9,9,0,0,1,1,1,1.42,1.42,0,0,1,0,.2c-.4.48-.76,1-1.11,1.49l-.47.7-.23-.18c-.23-.18-.46-.35-.69-.54l-1.16-.94-2.33-2,0-.05Zm3.15-1.21.06.05-.06-.05ZM57,20.26a.16.16,0,0,1,0,.07l0-.07Zm.09.16a.3.3,0,0,1,0,.1l0-.1Zm0,.07v0Z"/><path class="cls-3" d="M20.12,17.42a1.78,1.78,0,0,0,.18,2.1,20.18,20.18,0,0,0,.77,2.31c.25.7.49,1.4.75,2.1a3,3,0,0,0,.27.64,1.44,1.44,0,0,0,1,.72,1.85,1.85,0,0,0,.74,0l.37-.08A7.61,7.61,0,0,0,24.9,25a4.84,4.84,0,0,0,1.5-.93c.34-.3.67-.62,1-.94a7.63,7.63,0,0,0,.66-.73A1.74,1.74,0,0,0,27.94,20a10.66,10.66,0,0,0-1-.76,6,6,0,0,0-.6-.37c-.44-.26-.89-.48-1.33-.73a20.94,20.94,0,0,0-2.9-1.5,1.7,1.7,0,0,0-1.69.39,1.64,1.64,0,0,0-.29.35ZM23,21.6l-.48-1.21.14.05a18.8,18.8,0,0,1,1.76.68l.61.29-.16.16a11.24,11.24,0,0,1-1.13,1.05l-.21.13A12,12,0,0,1,23,21.6Z"/><path class="cls-3" d="M87.33,45.3a2.61,2.61,0,0,0-.31.63.44.44,0,0,0-.06.16,3.61,3.61,0,0,0-.13.81,4.14,4.14,0,0,0,.49,2.18,8.69,8.69,0,0,0,.69,1,1.87,1.87,0,0,0,.26.3,3.54,3.54,0,0,0,.42.35,1,1,0,0,0,.36.17,2,2,0,0,0,1.27.55,3,3,0,0,0,.73-.06,2.64,2.64,0,0,0,1.1-.51,3.08,3.08,0,0,0,.73-.8,5.63,5.63,0,0,0,.51-1,3.14,3.14,0,0,0,.27-1.21,3.65,3.65,0,0,0-.08-1,4.07,4.07,0,0,0-.28-.76,4.29,4.29,0,0,0-.7-1,4.1,4.1,0,0,0-.66-.59,2.44,2.44,0,0,0-.41-.24,3.06,3.06,0,0,0-.63-.25,5.42,5.42,0,0,0-.72-.11,5.24,5.24,0,0,0-.79.05,1.51,1.51,0,0,0-.42.1,2.62,2.62,0,0,0-.62.26,3.84,3.84,0,0,0-.56.41l0,0a4.32,4.32,0,0,0-.44.52ZM90.16,47h0Zm.25.22c0-.11,0-.21,0-.31l.12,0h0l.12,0,.22.14a2.2,2.2,0,0,1,.2.23,1,1,0,0,1,.11.21.43.43,0,0,1,0,.11,2,2,0,0,1,0,.42,3.72,3.72,0,0,1-.22.64,1.62,1.62,0,0,1-.1.18,3.22,3.22,0,0,0-.23-.5c-.09-.15-.16-.29-.24-.44s0-.12,0-.19l0-.51Z"/><path class="cls-3" d="M39.28,4.93a1.54,1.54,0,0,0-.07.42,1.76,1.76,0,0,0-.37.4c-.06.13-.11.25-.17.37a1.71,1.71,0,0,0,0,.81,5,5,0,0,0,.48,1.55,5.59,5.59,0,0,0,.59,1A3.1,3.1,0,0,0,43,10.69a2.92,2.92,0,0,0,1.44-.86,6.22,6.22,0,0,0,.65-.9,5.59,5.59,0,0,0,.58-1.41,4.07,4.07,0,0,0,0-2.32,4,4,0,0,0-.79-1.44,4.4,4.4,0,0,0-.77-.66,2.87,2.87,0,0,0-1.35-.55,3,3,0,0,0-1.63.37,5.51,5.51,0,0,0-.79.5l-.19.16a3,3,0,0,0-.83,1.35Zm3.08.51h0Zm.34.19,0,0s.05.11.08.17.06.23.08.34,0,.14,0,.21a3.86,3.86,0,0,1-.16.48,6,6,0,0,1-.46.73l-.07-.08a5.66,5.66,0,0,1-.34-.7v0L42,6.66a1.81,1.81,0,0,0,.42-.6l.24-.39,0,0Z"/><path class="cls-3" d="M66.86,5.8c0,1.31,0,2.63.09,3.94,0,.35,0,.7,0,1a4.83,4.83,0,0,0,.42,2.13,1.48,1.48,0,0,0,.31.39,1.88,1.88,0,0,0,.58.38,1.43,1.43,0,0,0,1,0,5.71,5.71,0,0,0,1.06-.5c.44-.25.88-.52,1.33-.74s.85-.38,1.28-.56a1.69,1.69,0,0,0,.52-.32,1.48,1.48,0,0,0,.43-.64,2.17,2.17,0,0,0,.08-.51A3.68,3.68,0,0,0,74,9.84,2.5,2.5,0,0,0,73.65,9a6.82,6.82,0,0,0-.51-.69c-.35-.44-.73-.86-1.1-1.28a18.12,18.12,0,0,0-2-1.94,1.57,1.57,0,0,0-.25-.2l-.31-.24a1.57,1.57,0,0,0-1.87.16,1.16,1.16,0,0,0-.43.25,1,1,0,0,0-.34.74Zm2.23,2.93v-.5l.11.08c.3.2.59.42.88.65s.44.38.65.58l.49.47,0,0a8,8,0,0,0-.84.38c-.29.15-.57.32-.85.49l-.29.18,0-.22c0-.71-.07-1.42-.08-2.13Zm.13,2.83Zm.09.1,0,0,0,0Z"/><path class="cls-3" d="M83.79,17.75c-.12.12-.23.24-.34.37a1.65,1.65,0,0,0-.27.19,1.39,1.39,0,0,0-.44.94l0,.35a1.37,1.37,0,0,0,.32.62c.64.91,1.3,1.81,2,2.69l.27.33a3.8,3.8,0,0,0,.68.65l.12.06a1.38,1.38,0,0,0,.66.2,1.46,1.46,0,0,0,.59,0,3.39,3.39,0,0,0,1-.41c.52-.31,1-.65,1.52-1a6.32,6.32,0,0,0,2.18-2.24,2.5,2.5,0,0,0,.18-.48,1.37,1.37,0,0,0,0-.57A2.34,2.34,0,0,0,92,18.6a5.46,5.46,0,0,0-.53-.82c-.12-.16-.25-.31-.37-.46-.31-.39-.65-.75-1-1.12l-.58-.67-.25-.32a1.52,1.52,0,0,0-.33-.34l-.22-.11a.83.83,0,0,0-.27,0,1.88,1.88,0,0,0-.79.28c-.14.07-.29.13-.43.21-.32.19-.62.38-.92.6l-1.54,1.12-.67.51a3.22,3.22,0,0,0-.28.24l-.07.06Zm2.77-.36a15.88,15.88,0,0,1,1.61-1.34l-.13.09a3.34,3.34,0,0,1,.4-.25c.27.43.53.87.82,1.29a12.08,12.08,0,0,1,1.14,1.93l0,.2a5.37,5.37,0,0,1-.53.44c-.46.29-.94.55-1.41.83s-.81.52-1.23.74l-.35-.45-.57-.73c-.37-.48-.72-1-1.07-1.46.4-.45.83-.87,1.27-1.29Zm1.88-1.51h0l0,0,0,0Zm2.13,3.26a.08.08,0,0,1,0,0l0,0Z"/><path class="cls-3" d="M135,8.37a1.56,1.56,0,0,0,.08-.42,1.52,1.52,0,0,0,.36-.4l.18-.38a1.55,1.55,0,0,0,0-.8,5.11,5.11,0,0,0-.47-1.56,7.28,7.28,0,0,0-.59-1,3.11,3.11,0,0,0-3.31-1.2,2.78,2.78,0,0,0-1.43.86,5.78,5.78,0,0,0-.66.9,6,6,0,0,0-.57,1.41,4.07,4.07,0,0,0,0,2.32,4,4,0,0,0,.79,1.44,4.34,4.34,0,0,0,.76.66,2.91,2.91,0,0,0,1.35.55,3,3,0,0,0,1.63-.37,5,5,0,0,0,.79-.5l.2-.16A3,3,0,0,0,135,8.37Zm-3.08-.52h0Zm-.34-.18v0l-.09-.17c0-.11-.05-.23-.07-.34a1.48,1.48,0,0,1,0-.21,2.48,2.48,0,0,1,.17-.48,5,5,0,0,1,.46-.73l.07.08a5.66,5.66,0,0,1,.34.7v0l-.17.12a1.56,1.56,0,0,0-.42.6c-.08.13-.16.26-.25.39l0,0Z"/><path class="cls-3" d="M107.41,7.5c0-1.31,0-2.63-.09-3.94l0-1.05a5,5,0,0,0-.43-2.13,1.3,1.3,0,0,0-.31-.39A1.78,1.78,0,0,0,106-.39a1.46,1.46,0,0,0-1,0,6.44,6.44,0,0,0-1.06.51c-.44.25-.87.51-1.32.74s-.85.38-1.29.56a1.74,1.74,0,0,0-.52.32,1.51,1.51,0,0,0-.43.63,3,3,0,0,0-.07.52,2.26,2.26,0,0,0,.06.57,2.31,2.31,0,0,0,.31.84,6.72,6.72,0,0,0,.5.69c.36.44.73.86,1.11,1.28a17.18,17.18,0,0,0,2,1.94,1.57,1.57,0,0,0,.25.2l.32.24a1.57,1.57,0,0,0,1.87-.16,1.56,1.56,0,0,0,.43-.25,1,1,0,0,0,.33-.74Zm-2.22-2.93v.5L105.09,5c-.31-.2-.6-.43-.89-.65l-.64-.58c-.17-.16-.33-.31-.49-.48h0a7.81,7.81,0,0,0,.83-.38l.85-.49.3-.18a1.49,1.49,0,0,1,0,.21c.05.71.07,1.43.09,2.14Zm-.13-2.83h0Zm-.1-.11,0,0,0,0Z"/><path class="cls-3" d="M122.34,21.44l.2-.14a1.24,1.24,0,0,0,.08-1.72c-.78-.92-1.55-1.86-2.37-2.74a4.73,4.73,0,0,0-.75-.66A2.53,2.53,0,0,0,119,16a1.59,1.59,0,0,0-.75,0,2.59,2.59,0,0,0-.64.28l-.3.15c-.45.23-.9.49-1.35.74a14.22,14.22,0,0,0-1.44.88,8,8,0,0,0-1.16,1c-.21.22-.4.47-.6.71a6.55,6.55,0,0,0-.45.59,3.06,3.06,0,0,0-.55,1.39,1.82,1.82,0,0,0,.14.92,3.75,3.75,0,0,0,.38.78c.5.77,1.06,1.49,1.59,2.23.12.18.25.36.38.53a1.43,1.43,0,0,0,.52.46,1.07,1.07,0,0,0,.44.12,1.14,1.14,0,0,0,.48-.09c.23-.12.43-.27.65-.4l.55-.34c.79-.48,1.57-1,2.37-1.42.38-.22.77-.41,1.15-.61l.58-.33.15-.1a3.82,3.82,0,0,0,.42-.29l.33-.29a1.53,1.53,0,0,0,.46-1.43Zm-3.07-.33-.58.63c-.38.42-.75.85-1.15,1.24s-.82.81-1.26,1.2l-.71.62-.21.2-.1.1c-.27-.42-.56-.82-.84-1.23a8.44,8.44,0,0,1-.89-1.54,2.14,2.14,0,0,1-.09-.34h0a.88.88,0,0,1,0-.15,1.81,1.81,0,0,1,.19-.29c.24-.28.52-.52.78-.78a6,6,0,0,1,.53-.48l.42-.32.77-.47c.29-.18.62-.33.93-.49l.91-.48.38-.18c.18.2.35.42.53.63l.57.68c.22.26.44.51.65.77a5.27,5.27,0,0,0-.72.52,1.29,1.29,0,0,0-.16.17Z"/><path class="cls-3" d="M107.39,52.73l-.2.14a1.25,1.25,0,0,0-.08,1.72c.78.92,1.55,1.86,2.37,2.74a4.67,4.67,0,0,0,.75.66,3.32,3.32,0,0,0,.51.23,1.58,1.58,0,0,0,.75,0,2.27,2.27,0,0,0,.64-.28l.3-.15c.46-.23.9-.49,1.35-.73a16.39,16.39,0,0,0,1.44-.89,8,8,0,0,0,1.16-1c.21-.22.41-.47.6-.71a6.55,6.55,0,0,0,.45-.59,3.07,3.07,0,0,0,.55-1.38,1.86,1.86,0,0,0-.14-.93,3.75,3.75,0,0,0-.38-.78c-.49-.77-1.06-1.49-1.58-2.23l-.39-.53a1.44,1.44,0,0,0-.52-.46,1.25,1.25,0,0,0-.43-.12,1,1,0,0,0-.48.1c-.23.11-.44.26-.66.39l-.55.34c-.79.48-1.57,1-2.37,1.42-.37.22-.77.41-1.15.62l-.58.32-.15.1c-.14.1-.31.2-.42.29l-.33.29a1.56,1.56,0,0,0-.46,1.43Zm3.07.34.58-.64c.38-.41.76-.84,1.15-1.24s.82-.81,1.26-1.19l.71-.63.21-.2.11-.1c.26.42.55.83.83,1.23a8.49,8.49,0,0,1,.9,1.54,3.59,3.59,0,0,1,.08.35h0c0,.05,0,.1,0,.15s-.12.2-.19.3c-.25.27-.52.51-.79.77a6,6,0,0,1-.53.48l-.42.32-.76.47c-.3.18-.63.33-.93.49l-.92.48a3.14,3.14,0,0,1-.37.18c-.19-.2-.36-.42-.54-.63l-.57-.68-.65-.77a5.27,5.27,0,0,0,.72-.52c.06,0,.11-.11.16-.16Z"/><path class="cls-3" d="M142.41,28.87a3,3,0,0,0,.31-.62,1.09,1.09,0,0,0,.05-.17,3.61,3.61,0,0,0,.13-.81,4.14,4.14,0,0,0-.49-2.18,10,10,0,0,0-.68-1,2.55,2.55,0,0,0-.26-.3,4.7,4.7,0,0,0-.43-.35,1.19,1.19,0,0,0-.36-.17,2.11,2.11,0,0,0-.23-.19,2.2,2.2,0,0,0-1-.36,3.64,3.64,0,0,0-.74.06,2.54,2.54,0,0,0-1.1.52,2.89,2.89,0,0,0-.73.79,6.37,6.37,0,0,0-.51,1,3.18,3.18,0,0,0-.27,1.21,3.32,3.32,0,0,0,.36,1.75,4.67,4.67,0,0,0,.7,1,4.57,4.57,0,0,0,.66.58,2.5,2.5,0,0,0,.41.25,3.71,3.71,0,0,0,.63.24,4.32,4.32,0,0,0,.72.11,7,7,0,0,0,.79,0,2.86,2.86,0,0,0,.42-.1,3.14,3.14,0,0,0,.62-.27,3.84,3.84,0,0,0,.56-.41l0,0a5.59,5.59,0,0,0,.45-.52Zm-2.84-1.73h0Zm-.25-.22c0,.11,0,.21,0,.31l-.12,0h0l-.11,0-.23-.15-.2-.22a1.51,1.51,0,0,1-.11-.22.36.36,0,0,1,0-.11,3,3,0,0,1,0-.42,4.83,4.83,0,0,1,.22-.64,1.62,1.62,0,0,1,.1-.18,3.22,3.22,0,0,0,.23.5,4.77,4.77,0,0,1,.24.44c0,.06,0,.12,0,.19l0,.51Z"/></g></g><g id="blue-bean-1"><path id="Path_403" data-name="Path 403" class="cls-4" d="M125.91,79.66c-2.78-6.89-13.53-29.38-20.43-47.81C99.32,15.36,84.54.77,71.68.49,55.43.14,34.39,26.12,34.39,59.3s9.38,62.47,52.86,62.47S130.72,91.56,125.91,79.66ZM86.84,117.79c-40.62,0-48.28-27.37-48.28-58.37S57.12,4.14,72.3,4.47c12,.26,24.72,13.9,30.48,29.3C109.22,51,119.27,72,121.87,78.45,126.36,89.57,127.47,117.79,86.84,117.79Z"/><ellipse id="Ellipse_1" data-name="Ellipse 1" class="cls-4" cx="63.98" cy="29.28" rx="2.7" ry="3.11"/><ellipse id="Ellipse_2" data-name="Ellipse 2" class="cls-4" cx="75.87" cy="28.61" rx="2.97" ry="3.92"/><path id="Path_404" data-name="Path 404" class="cls-4" d="M60.89,42.42c.93-2.54,17.3-5.4,18.11-4.59s1.35,22.43-7,24.59S59.82,45.4,60.89,42.42Z"/><path id="Path_405" data-name="Path 405" class="cls-4" d="M113.38,52.63c2.5-3.56,13.42-18.8,13.9-21.58s.58-7.88,3.75-9.33,7.06.91,7,4-5.39,6.15-7.12,7.88-14.42,19.23-15.67,22.58S112.71,53.6,113.38,52.63Z"/><path id="Path_406" data-name="Path 406" class="cls-4" d="M36,58.93C33.77,56.75,15.46,45.3,13.21,43.05c-1.4-1.4-1.08-4.61-2.94-7.54S2,32,.86,35.11.67,40.8,7.53,44,34.38,60.59,36,64.42,37.81,60.79,36,58.93Z"/><path id="Path_407" data-name="Path 407" class="cls-4" d="M65,118C62.57,123,58.13,135,57.49,139.43s1.49,12.76.74,14.35-3.62,3.41-2.55,6.28,5.21,2.87,7.55-.42,1.38-5.64.64-6.6a27.35,27.35,0,0,1-2.66-13.73c.74-5.42,7.56-19,7.77-20.21S66.32,115.49,65,118Z"/><path id="Path_408" data-name="Path 408" class="cls-4" d="M104.52,119.14c2.35,3,11.53,8.33,11.37,13.73s-3.68,13.41-1.72,16.84,11.45,1.8,11.45-2.78-6.5-4.09-7.48-4.58,1.59-5.72,1.1-10.79c-.43-4.42-5.89-13.57-8-14.71S102.24,116.19,104.52,119.14Z"/></g></svg>