<svg id="Layer_1" data-name="Layer 1" xmlns="http://www.w3.org/2000/svg" viewBox="0 0 525 49"><defs><style>.cls-1{fill:#f27d16;}.cls-2{fill:#f2cb05;}.cls-3{fill:#9450f2;}.cls-4{fill:#96d9c6;}.cls-5{fill:#3068d9;}.cls-6{fill:#4d4d4d;}</style></defs><title>company</title><g id="Group_448" data-name="Group 448"><g id="Group_447" data-name="Group 447"><g id="Group_437" data-name="Group 437"><path id="Path_670" data-name="Path 670" class="cls-1" d="M11.89,14.33c0,3.68,0,3.68,3.67,3.68s3.68,0,3.68-3.46V6c0-2.68,0-5.35,4-5.35H26.6c4,0,4,2.67,4,5.35V42.76c0,2.68,0,5.35-4,5.35H23.26c-4,0-4-2.67-4-5.35v-10c0-4.41-.28-4.68-3.68-4.68h-.72c-2.12,0-2.95,0-2.95,3.4V42.76c0,2.68,0,5.35-4,5.35H4.54c-4,0-4-2.67-4-5.35V6c0-2.68,0-5.35,4-5.35H7.88c4,0,4,2.67,4,5.35Z"/></g><g id="Group_438" data-name="Group 438"><path id="Path_671" data-name="Path 671" class="cls-2" d="M66.4,44.77c0,3.06-2.06,3.34-5.91,3.34H56.93c-4.12,0-2.06-10-4.73-10H46.85c-2.68,0-1.12,10-5.13,10H38.6c-3.46,0-5.58-.28-5.58-3.34,0-4,1.62-7.59,6.8-38.8.56-3.35,1.9-5.35,4.57-5.35H54.7c2.68,0,4,2,4.69,5.35C63.9,33.4,66.4,40.75,66.4,44.77ZM47,27C47,28,47.4,28,49.57,28s2.62,0,2.62-1A9.42,9.42,0,0,0,52.13,26c-.78-6.58-1.06-14.66-2.56-14.66S47.67,19.35,47,26A5.65,5.65,0,0,0,47,27Z"/></g><g id="Group_439" data-name="Group 439"><path id="Path_672" data-name="Path 672" class="cls-3" d="M80.17,32.89v9.82c0,2.67,0,5.35-4,5.35H72.81c-4,0-4-2.68-4-5.35V5.91c0-2.67,0-5.35,4-5.35h14.5c7.24,0,11.31,5.91,11.31,15.28a31,31,0,0,1-2.06,10.81c-2.12,4.57-8.47,5.24-12.26,5.24a20.25,20.25,0,0,1-2.46-.11C80.23,31.78,80.17,32.34,80.17,32.89Zm-.11-20c0,.89.06,2,.06,3.4s-.06,2.56-.06,3.34c0,2.23.39,2.62,3.07,2.62,3.56,0,3.68-2.94,3.68-6s-.67-6.69-3.68-6.69c-2.62,0-3.06.83-3.06,3.29Z"/></g><g id="Group_440" data-name="Group 440"><path id="Path_673" data-name="Path 673" class="cls-4" d="M112.22,32.89v9.82c0,2.67,0,5.35-4,5.35h-3.34c-4,0-4-2.68-4-5.35V5.91c0-2.67,0-5.35,4-5.35h14.49c7.25,0,11.31,5.91,11.31,15.28a30.78,30.78,0,0,1-2.06,10.81c-2.12,4.57-8.47,5.24-12.26,5.24a20,20,0,0,1-2.45-.11C112.28,31.78,112.22,32.34,112.22,32.89Zm0-20c0,.89,0,2,0,3.4s0,2.56,0,3.34c0,2.23.39,2.62,3.06,2.62,3.57,0,3.68-2.94,3.68-6s-.67-6.69-3.68-6.69C112.56,9.65,112.17,10.48,112.17,12.94Z"/></g><g id="Group_441" data-name="Group 441"><path id="Path_674" data-name="Path 674" class="cls-5" d="M145.5,48.11c-4,0-4-2.67-4-5.35V32.67c0-3.62-3.46-12-4.68-14.77l-.22-.45c-1.34-3-5.3-13.15-5.3-15A1.66,1.66,0,0,1,132.83.64a1.84,1.84,0,0,1,.41,0h7.64c2.12,0,2.79,2.9,3.35,5.35.44,2.12,2.67,9.64,2.78,10.26a.77.77,0,0,0,.67.72.67.67,0,0,0,.67-.67c.06-.61,2.06-8.15,2.62-10.31.61-2.45,1.39-5.35,3.79-5.35h6c2,0,2.73,0,2.73,1.73,0,1.9-3.9,12.1-5.24,15.05-.62,1.34-1.74,4.41-3.12,7.92a22.78,22.78,0,0,0-2.29,11.76v6c0,2.61,0,5.07-4,5.07h-3.3Z"/></g></g><path id="Path_675" data-name="Path 675" class="cls-6" d="M205.65,22.69a.34.34,0,0,0,.28.34c4.79,1.62,6.58,6.91,6.58,11.59A16.12,16.12,0,0,1,210.72,42c-3.29,6-6.07,6.13-10.42,6.13H185.36c-4,0-4-2.67-4-5.35V6c0-2.68,0-5.35,4-5.35h14.39c8.64,0,11.48,5.74,11.48,11.93a10.61,10.61,0,0,1-5.29,9.81C205.71,22.41,205.65,22.53,205.65,22.69Zm-13-8.53c0,3.35,0,4.46,3.35,4.46,2.67,0,3.34-2.11,3.34-4.46s-.67-4.57-3.34-4.57c-3.35.06-3.35,1.23-3.35,4.57Zm0,18.9c0,4,0,6,3.68,6,3.35,0,3.68-3,3.68-6s0-5.91-3.68-5.91-3.68,1.9-3.68,5.91Z"/><path id="Path_676" data-name="Path 676" class="cls-6" d="M226.28,35.85a2.6,2.6,0,0,0,2.78,2.23c3.79,0,5.08-.11,6.47-.11,2.79,0,3.68.78,3.68,2.78v4.68c0,2-.67,2.68-2.68,2.68H218.92c-4,0-4-4-4-5.35V6c0-2.68,0-5.35,4-5.35H236.2c1.67,0,3.12.67,3.12,2V8.31c0,1.62-1.34,1.67-3,1.67-2.62,0-4.68-.11-6.36-.11-3.68,0-3.68,1.34-3.68,3.46,0,4.35,0,5.46,3.35,5.46,4.13,0,4.79-.11,6.35-.11,2.35,0,2.46,2.34,2.46,3.07V26c0,2-1.39,2.12-3.07,2.12-3.4,0-5.57-.11-7-.11-2.12,0-2.12.95-2.12,3.12Z"/><path id="Path_677" data-name="Path 677" class="cls-6" d="M274.94,44.77c0,3.06-2.06,3.34-5.91,3.34h-3.56c-4.13,0-2.06-10-4.74-10h-5.35c-2.67,0-1.11,10-5.13,10h-3.12c-3.45,0-5.57-.28-5.57-3.34,0-4,1.62-7.59,6.8-38.8.56-3.35,1.89-5.35,4.57-5.35h10.31c2.68,0,4,2,4.68,5.35C272.49,33.4,274.94,40.75,274.94,44.77ZM255.49,27c0,1.05.44,1.05,2.61,1.05s2.62,0,2.62-1a7.53,7.53,0,0,0-.05-1.06c-.78-6.58-1.06-14.66-2.57-14.66s-1.89,8-2.56,14.66A6.77,6.77,0,0,0,255.49,27Z"/><path id="Path_678" data-name="Path 678" class="cls-6" d="M298.08,22c.22,0,.34-.22.34-.66V6c0-2.68,0-5.35,4-5.35h3.34c4,0,4,2.67,4,5.35V42.76c0,2.68,0,5.35-4,5.35-6,0-6.46-1.06-7.41-3.06L289.44,25.7c-.22-.39-.39-.67-.56-.67s-.28.28-.28.67l.06,17.06c0,2.68,0,5.35-4,5.35H281.3c-4,0-4-2.67-4-5.35V6c0-2.68,0-5.35,4-5.35h3.57c2.23,0,2.94.28,4,2.34l8.63,18.4C297.68,21.8,297.91,22,298.08,22Z"/><path id="Path_679" data-name="Path 679" class="cls-6" d="M326.62.28c5.57,0,9.31,1,9.31,2.9V8.31c0,.73-.28,2-2.57,2h-.55c-1.06,0-3.46-.73-5.41-.73-1.62,0-2.9.56-2.9,2.68s.61,3.12,3.23,5.3c8,6.57,9.59,11.26,9.59,16.66,0,3.07-.05,5.91-1.78,8.48a12.79,12.79,0,0,1-7.14,5,29.37,29.37,0,0,1-6.41.73c-5,0-9.76-1-9.76-3.63V39.69c0-.78.67-1.61,2.46-1.61s3.23,1,7,1c1.9,0,4.4-1.45,4.4-3.57,0-1.56-.05-2.67-4.12-6.69-6.24-6.07-9.14-8.91-9.14-14.38C312.73,1.29,321.26.28,326.62.28Z"/><path id="Path_680" data-name="Path 680" class="cls-6" d="M369.25.62C384,.62,386,10,386,24.37c0,13.71-1.34,23.74-16.72,23.74h-10c-4,0-4-2.67-4-5.35V6c0-2.68,0-5.35,4-5.35Zm-2.73,11.09c0,7.58.05,15.78.05,23.69,0,1.74.11,3.35,1.34,3.35,5,0,5.35-4,5.35-14.72,0-9.36-.33-14.39-5.35-14.39-1.16,0-1.39.69-1.39,2.07Z"/><path id="Path_681" data-name="Path 681" class="cls-6" d="M399.86,35.85a2.61,2.61,0,0,0,2.79,2.23c3.79,0,5.07-.11,6.46-.11,2.79,0,3.68.78,3.68,2.78v4.68c0,2-.66,2.68-2.67,2.68H392.45c-4,0-4-4-4-5.35V6c0-2.68,0-5.35,4-5.35h17.28c1.67,0,3.12.67,3.12,2V8.31c0,1.62-1.34,1.67-3,1.67-2.62,0-4.68-.11-6.36-.11-3.68,0-3.68,1.34-3.68,3.46,0,4.35,0,5.46,3.35,5.46,4.12,0,4.79-.11,6.35-.11,2.34,0,2.46,2.34,2.46,3.07V26c0,2-1.39,2.12-3.07,2.12-3.4,0-5.58-.11-7-.11-2.12,0-2.12.95-2.12,3.12v4.68Z"/><path id="Path_682" data-name="Path 682" class="cls-6" d="M429.58.28c5.57,0,9.31,1,9.31,2.9V8.31c0,.73-.28,2-2.57,2h-.56c-1.06,0-3.45-.73-5.4-.73-1.62,0-2.9.56-2.9,2.68s.61,3.12,3.23,5.3c8,6.57,9.59,11.26,9.59,16.66,0,3.07-.06,5.91-1.79,8.48a12.76,12.76,0,0,1-7.13,5,29.51,29.51,0,0,1-6.41.73c-5,0-9.76-1-9.76-3.63V39.69c0-.78.67-1.61,2.45-1.61s3.24,1,7,1c1.89,0,4.4-1.45,4.4-3.57,0-1.56-.05-2.67-4.12-6.69-6.24-6.07-9.15-8.91-9.15-14.38C415.69,1.29,424.22.28,429.58.28Z"/><path id="Path_683" data-name="Path 683" class="cls-6" d="M453.93,42.76c0,2.68,0,5.35-4,5.35h-3.35c-4,0-4-2.67-4-5.35V6c0-2.68,0-5.35,4-5.35h3.35c4,0,4,2.67,4,5.35Z"/><path id="Path_684" data-name="Path 684" class="cls-6" d="M478.07,29.77c0-2.06-1.23-2.12-2.45-2.12-2.23,0-2.46-1-2.46-2.89v-.67c0-5.41.06-5.74,3.24-5.74H486c2.9,0,2.9,1.38,2.9,2.67V41.87c0,6.58-6.46,6.58-10.31,6.58-10.65,0-22.19-4.8-22.19-24.53C456.38,4.74,468.7.28,476.89.28c7,0,9.76.73,9.76,2.79v5.3c0,1.22-.89,1.61-1.95,1.61-2.06,0-4.13-.89-7.14-.89-8.47,0-9.47,11.82-9.47,14.61,0,5.46,1,15.05,7.8,15.05,1.34,0,2.28-.67,2.28-3v-6Z"/><path id="Path_685" data-name="Path 685" class="cls-6" d="M512.29,22c.23,0,.34-.22.34-.66V6c0-2.68,0-5.35,4-5.35H520c4,0,4,2.67,4,5.35V42.76c0,2.68,0,5.35-4,5.35-6,0-6.47-1.06-7.42-3.06L503.66,25.7c-.23-.39-.39-.67-.56-.67s-.28.28-.28.67l.05,17.06c0,2.68,0,5.35-4,5.35h-3.34c-4,0-4-2.67-4-5.35V6c0-2.68,0-5.35,4-5.35h3.56c2.23,0,2.95.28,4,2.34l8.64,18.4C511.9,21.8,512.13,22,512.29,22Z"/></g></svg>