<svg xmlns="http://www.w3.org/2000/svg" viewBox="0 0 67.84 59.17"><defs><style>.cls-1{fill:#f9c800;}</style></defs><title>crown</title><g id="plan-intro"><path class="cls-1" d="M22.47,59.17c-2.94-2.71-5.86-5.44-8.64-8.34q-2.12-2.16-4.05-4.5a37.53,37.53,0,0,1-3.63-5,12.49,12.49,0,0,1-1.34-3.12,5.86,5.86,0,0,1-.16-2.06,3.83,3.83,0,0,1,1.14-2.3,5.06,5.06,0,0,1,2-1.13,10,10,0,0,1,1.83-.35,18.4,18.4,0,0,1,3.32,0,48.15,48.15,0,0,1,6.15.92l3,.62,1.42.3c.44.08.94.16,1.16.17l-2.48,2c0-.11,0-.7-.09-1.17s-.13-1-.21-1.56l-.53-3.24c-.35-2.19-.67-4.41-.94-6.67a58.13,58.13,0,0,1-.45-7A21,21,0,0,1,20.23,13a10.71,10.71,0,0,1,.59-2.13,6.61,6.61,0,0,1,1.57-2.38A5.24,5.24,0,0,1,25.51,7a7.21,7.21,0,0,1,2.72.25A15.07,15.07,0,0,1,32,9a43.86,43.86,0,0,1,5.67,4.34c1.73,1.52,3.36,3.09,5,4.66L45,20.35l1.13,1.12.52.49c.17.15.32.26.28.24l-3.8.48a21.57,21.57,0,0,0,2.39-4c.82-1.59,1.63-3.25,2.63-5a21.09,21.09,0,0,1,1.8-2.65,9.57,9.57,0,0,1,1.43-1.41c.16-.12.28-.23.47-.35s.41-.23.63-.34l.32-.15a1.41,1.41,0,0,1,.39-.14,4.66,4.66,0,0,1,1-.19,5.15,5.15,0,0,1,1,.07,5.87,5.87,0,0,1,.87.26,4.15,4.15,0,0,1,.7.36,4,4,0,0,1,.55.38l.47.39.37.38a7.67,7.67,0,0,1,.61.74,18,18,0,0,1,1.68,2.78,80.69,80.69,0,0,1,4,10.63c1.13,3.49,2.11,7,3.2,10.4l0,.12a2.32,2.32,0,0,1-1.21,2.8L44.43,48.33c-3.7,1.72-7.37,3.5-11,5.26q-2.78,1.32-5.5,2.7C26.06,57.19,24.21,58.13,22.47,59.17Zm0,0a103.43,103.43,0,0,1,10.09-7c3.45-2.21,7-4.32,10.47-6.43l10.63-6.15c3.56-2,7.13-4,10.76-5.95l-1.16,2.92c-1.38-3.5-2.52-6.93-3.73-10.34a75,75,0,0,0-4-9.7,12.39,12.39,0,0,0-1.19-1.87c-.1-.1-.2-.24-.27-.3l-.11-.11-.07,0a1.38,1.38,0,0,0,.67.12,1.08,1.08,0,0,0,.36,0l.08,0s0,0,0,0,0,0,0,0l-.07.07a3.21,3.21,0,0,0-.49.52,16.51,16.51,0,0,0-1.23,1.9c-.81,1.45-1.57,3.08-2.42,4.74a24.55,24.55,0,0,1-3.32,5.33,2.84,2.84,0,0,1-3.75.51l0,0a8.09,8.09,0,0,1-1-.8L42,25.8l-1.24-1.21L38.4,22.23c-1.54-1.55-3.08-3.07-4.66-4.49A36.33,36.33,0,0,0,28.92,14a9.24,9.24,0,0,0-2.22-1.1,2.34,2.34,0,0,0-.56-.1c-.08,0,.16,0,.15-.1s-.11.13-.23.37a5.33,5.33,0,0,0-.33,1.06,16,16,0,0,0-.33,2.82,51.76,51.76,0,0,0,.2,6.3c.17,2.15.43,4.32.67,6.52l.34,3.34c.06.57.11,1.13.14,1.74a12,12,0,0,1,0,2.15v0a2.22,2.22,0,0,1-2.46,2h0a13,13,0,0,1-1.78-.35L21,38.22l-2.87-.78c-1.89-.49-3.77-.95-5.61-1.25A15.44,15.44,0,0,0,9.85,36a7.32,7.32,0,0,0-1.12.11,2,2,0,0,0-.64.24.36.36,0,0,0-.19.3,2.27,2.27,0,0,0,0,.9A10.22,10.22,0,0,0,8.73,40a58.37,58.37,0,0,0,6.34,9.8C17.46,52.94,20,56,22.47,59.17Z"/><circle class="cls-1" cx="1.66" cy="32.83" r="1.66"/><circle class="cls-1" cx="21.2" cy="2.49" r="2.49"/><circle class="cls-1" cx="54.45" cy="4.99" r="1.66"/></g></svg>