<svg id="Layer_1" data-name="Layer 1" xmlns="http://www.w3.org/2000/svg" xmlns:xlink="http://www.w3.org/1999/xlink" viewBox="0 0 216 43"><defs><style>.cls-1{fill:none;}.cls-2{clip-path:url(#clip-path);}.cls-3{fill:#f4f4f4;}.cls-4{opacity:0.66;}.cls-5{fill:#fff;opacity:0.99;isolation:isolate;}</style><clipPath id="clip-path"><path class="cls-1" d="M196.93,41.28H18.27a18,18,0,0,1-18-18V34.7h0V26.2h0L.32,15C8.79,6.35,36.94-1.27,50.81.71,82.11,5.18,79.43,19.94,95.53,24c19.71,4.93,32.26-12.66,47.84-15.2C165.28,5.18,171.31,22.4,197,25.2c6.5.7,12.42-.66,17.88-2.14V26.2h0V23.3A18,18,0,0,1,196.93,41.28Z"/></clipPath></defs><title>ent-basic-plans</title><g id="Group_114" data-name="Group 114"><g class="cls-2"><g id="Group_113" data-name="Group 113"><path id="Path_554" data-name="Path 554" class="cls-3" d="M196.93,41.28H18.27a18,18,0,0,1-18-18V34.7h0V26.2h0L.32,15C8.79,6.35,36.94-1.27,50.81.71,82.11,5.18,79.43,19.94,95.53,24c19.71,4.93,32.26-12.66,47.84-15.2C165.28,5.18,171.31,22.4,197,25.2c6.5.7,12.42-.66,17.88-2.14V26.2h0V23.3A18,18,0,0,1,196.93,41.28Z"/><g id="Group_112" data-name="Group 112" class="cls-4"><g id="Group_110" data-name="Group 110"><path id="Path_555" data-name="Path 555" class="cls-5" d="M20.47,4.2c-.29.07-.58.13-.88.18h0c-.59,0-1.17.1-1.75.11a19.66,19.66,0,0,0-2.31.25c-1.17.18-2.31.51-3.47.72-.24,0-.48,0-.71,0a2.2,2.2,0,0,0-1.52.63,2.09,2.09,0,0,0-.46.69A2.22,2.22,0,0,0,8.22,8.73c0,.2,0,.4,0,.6a8.82,8.82,0,0,0,.13,1.36c.05.38.14.75.21,1.12.13.64.28,1.28.42,1.92.3,1.28.57,2.57.94,3.83l.27.93a9.32,9.32,0,0,0,.38,1,3,3,0,0,0,1.31,1.4,4.22,4.22,0,0,0,1.73.47,5.62,5.62,0,0,0,1.23,0,10.29,10.29,0,0,0,1.55-.28c.28-.07.56-.16.84-.25,1.31-.41,2.62-.82,3.93-1.25.57-.18,1.13-.38,1.7-.57a5.75,5.75,0,0,0,1.08-.46,2.79,2.79,0,0,0,.89-1A2.83,2.83,0,0,0,25.15,16a8.78,8.78,0,0,0-.23-1.36c-.08-.34-.18-.68-.28-1s-.21-.78-.31-1.18c-.18-.65-.34-1.31-.5-2-.29-1.18-.57-2.37-.8-3.56-.05-.3-.11-.6-.17-.9a5.24,5.24,0,0,0-.35-1.29,1.31,1.31,0,0,0-.88-.62,1.58,1.58,0,0,0-.38,0,3.34,3.34,0,0,0-.77.12Zm.16,1.72V6h0V5.92Zm-2,1.26c.47-.14,1-.24,1.43-.36a3.94,3.94,0,0,0,.68-.25c.21,1.23.52,2.45.8,3.67.18.76.36,1.52.55,2.28.24,1,.55,2,.72,3a4.71,4.71,0,0,1,0,.53,23.5,23.5,0,0,0-3.35.48L17.41,17c-.73.18-1.46.37-2.2.5a7.09,7.09,0,0,1-1,0c0-.2-.08-.4-.13-.6l-.21-1c-.14-.73-.3-1.45-.44-2.18s-.32-1.46-.47-2.19c-.12-.58-.25-1.16-.35-1.74V9.63l.34-.1A11,11,0,0,0,14.24,9L16.06,8c.84-.32,1.7-.6,2.57-.85ZM23,16l-.09.06ZM23,16l-.06,0h0L23,16Zm-.2.06Zm0,.16a.47.47,0,0,1-.05.1Zm-9.06,1.12,0,0Zm.55.54,0,.06Z"/><path id="Path_556" data-name="Path 556" class="cls-5" d="M39.47,25.88a1.51,1.51,0,0,0-.12,1.23h0a1.05,1.05,0,0,0-1.29.74c-.43,2-.84,4.1-1.23,6.15a10.42,10.42,0,0,0-.26,1.93,1.49,1.49,0,0,0,.18.8c.09.13.19.25.29.38a1.26,1.26,0,0,0,.51.3,3.61,3.61,0,0,0,.87.16,5.25,5.25,0,0,0,1.12,0c.83-.09,1.65-.27,2.47-.42.37-.07.74-.12,1.12-.18l.94-.11a8.56,8.56,0,0,0,1.79-.34,2.75,2.75,0,0,0,1.89-2.36,2.31,2.31,0,0,0-.39-1.3c-.14-.22-.3-.44-.44-.66L45.61,30.3c-.28-.4-.6-.77-.9-1.16l-.54-.69c-.33-.44-.66-.88-1-1.33l-.55-.8a6,6,0,0,0-.44-.56l-.14-.12a1.78,1.78,0,0,0-.7-.41,1.72,1.72,0,0,0-.6-.1h0a1.53,1.53,0,0,0-1.27.75Zm-.16,6.2c.25-1.23.49-2.46.75-3.68a1.11,1.11,0,0,0,0-.17c.26.28.55.54.8.8s.78.79,1.16,1.19l1.11,1.19c.36.4.69.8,1,1.21l.48.65c.15.2.31.4.45.61l0,0a9.26,9.26,0,0,1-1.48.31l-1.14.21-1.22.25c-.69.17-1.37.34-2.06.46l-.32,0c0-.21,0-.42.07-.64.12-.81.24-1.63.4-2.45Z"/><path id="Path_557" data-name="Path 557" class="cls-5" d="M47.91-7.39l0,0h0l-.7,0q-.61,0-1.23.12c-.62.1-1.23.27-1.86.37l-.51.08a1.61,1.61,0,0,0-.49.07,2,2,0,0,0-1.19.91v0a2.11,2.11,0,0,0-.22.54,1.77,1.77,0,0,0-.41.31,1.69,1.69,0,0,0-.53,1.27c.24,2.17.5,4.34.8,6.5.13.89.24,1.78.39,2.67A5.35,5.35,0,0,0,42.38,7a2.31,2.31,0,0,0,2,1.23,4.69,4.69,0,0,0,1.89-.66c.45-.19.9-.37,1.36-.54.69-.25,1.39-.51,2.06-.83A3,3,0,0,0,51.1,4.3a4.54,4.54,0,0,0,.07-2c-.09-.79-.2-1.58-.31-2.37-.17-1.2-.37-2.4-.57-3.6L50-5.54l-.12-.82a1.59,1.59,0,0,0-.41-.84,1.19,1.19,0,0,0-.58-.32,1,1,0,0,0-.3,0,1.75,1.75,0,0,0-.67.17Zm-.14,0h0Zm-3.3,4.49a4.93,4.93,0,0,0,.93-.44c.39-.22.78-.46,1.18-.67l1.23-.63c.06.33.12.67.19,1,.13.7.25,1.4.35,2.1L48.59.55c0,.35.09.7.13,1.06a10.87,10.87,0,0,1,.07,1.71l-.13.22A21.15,21.15,0,0,0,46.39,4l-1,.26-.06-.36L45.13,2.8C45,2.18,44.94,1.57,44.85,1c-.16-1.26-.31-2.52-.46-3.78l.07,0Zm3.9,1.53v0Zm.45,4.49a.34.34,0,0,1,0,.1S48.82,3.19,48.82,3.16Zm0,.23a1.17,1.17,0,0,1-.05.11Zm-.05.07,0,0Z"/><path id="Path_558" data-name="Path 558" class="cls-5" d="M70-1.87C68.91-.65,67.83.59,66.77,1.83c-.28.33-.57.66-.84,1a6.08,6.08,0,0,0-1.4,2.31,1.8,1.8,0,0,0,0,.61,2.18,2.18,0,0,0,.22.83,1.8,1.8,0,0,0,.94.86,8.37,8.37,0,0,0,1.4.42c.61.14,1.23.26,1.84.43s1.1.36,1.64.56a2.12,2.12,0,0,0,.75.14,1.9,1.9,0,0,0,.93-.22,3.2,3.2,0,0,0,.5-.41,4.94,4.94,0,0,0,.42-.57,3.25,3.25,0,0,0,.42-1,9.35,9.35,0,0,0,.11-1c0-.7,0-1.4.06-2.11a23.22,23.22,0,0,0-.2-3.43,1.34,1.34,0,0,0-.06-.4l-.09-.48a1.93,1.93,0,0,0-1.85-1.41,1.38,1.38,0,0,0-.6-.13,1.18,1.18,0,0,0-.92.39Zm-.41,4.55L70,2.22a1.24,1.24,0,0,0,0,.16c.1.44.18.89.26,1.34s.08.71.11,1.07,0,.56,0,.85l0,0a9.85,9.85,0,0,0-1.09-.34c-.39-.1-.79-.19-1.19-.26l-.42-.08.16-.23c.55-.69,1.13-1.36,1.71-2ZM67.33,5.39h0Zm0,.18v.06s0,0,0-.06Z"/><path id="Path_559" data-name="Path 559" class="cls-5" d="M75.54,23.28c-.21,0-.41,0-.62.06a1.67,1.67,0,0,0-1.6.44l-.26.34a1.69,1.69,0,0,0-.23.85c-.17,1.37-.31,2.75-.42,4.13,0,.17,0,.35,0,.53a4.51,4.51,0,0,0,.09,1.16l.05.15a1.74,1.74,0,0,0,.44.75,2.11,2.11,0,0,0,.55.48,5.49,5.49,0,0,0,1.25.45c.74.15,1.48.25,2.23.34a7.82,7.82,0,0,0,3.87-.23,2.62,2.62,0,0,0,.58-.29,1.7,1.7,0,0,0,.5-.5,2.8,2.8,0,0,0,.46-1,7,7,0,0,0,.2-1.2c0-.24,0-.49,0-.73,0-.62,0-1.23,0-1.84,0-.37,0-.74,0-1.11l0-.5a1.62,1.62,0,0,0,0-.58,1,1,0,0,0-.1-.29,1.13,1.13,0,0,0-.23-.26,2.35,2.35,0,0,0-1-.4,5.54,5.54,0,0,0-.58-.17c-.44-.09-.89-.16-1.34-.21l-2.36-.26-1-.1-.46,0h-.12Zm2.84,2a18.93,18.93,0,0,1,2.61.12l-.19,0a5.67,5.67,0,0,1,.57.1c-.12.62-.24,1.24-.33,1.88a14.15,14.15,0,0,1-.57,2.72l-.12.23a8.25,8.25,0,0,1-.86,0c-.66-.12-1.32-.28-2-.41s-1.17-.21-1.75-.36c0-.24,0-.47,0-.71l.09-1.15c.07-.74.15-1.49.24-2.23.74-.08,1.5-.11,2.24-.12Zm3,.19h0a.13.13,0,0,1,0,.06s0,0,0-.06Zm-.76,4.77-.06,0Z"/></g><g id="Group_111" data-name="Group 111"><path id="Path_560" data-name="Path 560" class="cls-5" d="M155.34,27.56c.29-.07.59-.13.88-.17h0c.58-.06,1.16-.1,1.75-.12A20.1,20.1,0,0,0,160.3,27c1.17-.18,2.31-.51,3.47-.73l.71,0a2.18,2.18,0,0,0,1.52-.63,2.31,2.31,0,0,0,.46-.69A2.24,2.24,0,0,0,167.6,23c0-.2,0-.4,0-.59a9,9,0,0,0-.13-1.37c0-.37-.14-.74-.22-1.11-.13-.65-.27-1.28-.42-1.93-.29-1.27-.57-2.56-.93-3.82-.09-.31-.18-.62-.28-.93a9.25,9.25,0,0,0-.37-1A3,3,0,0,0,164,10.87a4.22,4.22,0,0,0-1.73-.47,7.2,7.2,0,0,0-1.23,0,10.21,10.21,0,0,0-1.56.29c-.28.07-.55.16-.83.24-1.31.41-2.63.82-3.93,1.25l-1.7.57a5.78,5.78,0,0,0-1.08.47,2.62,2.62,0,0,0-.89.95,2.73,2.73,0,0,0-.33,1.56,7.62,7.62,0,0,0,.23,1.35c.08.35.18.68.27,1s.21.79.32,1.18c.17.65.33,1.31.5,2,.29,1.18.56,2.37.79,3.56l.18.9a5.17,5.17,0,0,0,.35,1.28,1.36,1.36,0,0,0,.88.63,1.58,1.58,0,0,0,.38,0,3.34,3.34,0,0,0,.77-.12Zm-.16-1.71v-.06h0v.07Zm2-1.26c-.47.13-.95.24-1.43.35a4.32,4.32,0,0,0-.68.26c-.21-1.24-.51-2.45-.8-3.67-.17-.76-.36-1.53-.54-2.29-.24-1-.55-2-.73-3a4.58,4.58,0,0,1,0-.53,23.85,23.85,0,0,0,3.36-.48c.69-.14,1.38-.3,2.06-.46s1.47-.37,2.2-.5a7.22,7.22,0,0,1,1,0l.12.6.21,1c.14.73.3,1.46.45,2.18s.31,1.47.46,2.2c.13.57.25,1.15.35,1.74a.62.62,0,0,0,0,.13l-.35.1a12.74,12.74,0,0,0-1.32.56c-.61.31-1.21.64-1.82.94a25.76,25.76,0,0,1-2.57.85Zm-4.36-8.8.09-.07Zm-.05,0,.07,0h0Zm.2-.06Zm.05-.16a.3.3,0,0,1,0-.1Zm9.05-1.12,0,0Zm-.54-.54,0-.06Z"/><path id="Path_561" data-name="Path 561" class="cls-5" d="M136.34,5.89a1.5,1.5,0,0,0,.12-1.24h0a1.06,1.06,0,0,0,1.29-.73Q138.43.86,139-2.23a11.22,11.22,0,0,0,.26-1.92,1.48,1.48,0,0,0-.19-.8,3.73,3.73,0,0,0-.28-.38,1.19,1.19,0,0,0-.52-.3,3.64,3.64,0,0,0-.86-.17,4.75,4.75,0,0,0-1.13,0c-.83.08-1.65.26-2.47.41q-.56.1-1.11.18l-.94.12a8.31,8.31,0,0,0-1.79.33,2.74,2.74,0,0,0-1.89,2.36,2.21,2.21,0,0,0,.39,1.3c.13.23.3.44.44.66q.63.95,1.29,1.86c.28.4.6.78.9,1.16l.54.69c.33.44.65.89,1,1.34l.55.8c.13.2.28.37.43.56l.15.11a1.47,1.47,0,0,0,.7.41,1.72,1.72,0,0,0,.6.1h0a1.51,1.51,0,0,0,1.27-.75Zm.17-6.2-.75,3.68,0,.17c-.26-.28-.54-.54-.8-.8s-.77-.79-1.15-1.19S133,.76,132.67.36s-.7-.8-1-1.22l-.48-.64c-.16-.2-.31-.4-.46-.61l.06,0a9.12,9.12,0,0,1,1.47-.3c.39-.07.77-.13,1.15-.21s.81-.16,1.22-.26c.68-.16,1.36-.34,2.06-.45l.32,0c0,.21,0,.42-.07.63-.12.82-.24,1.64-.4,2.45Z"/><path id="Path_563" data-name="Path 563" class="cls-5" d="M194.18,22.68a2.57,2.57,0,0,0,.26-.56,2.25,2.25,0,0,0,.06-.63,2.06,2.06,0,0,0-.63-1.44l-.29-.22c0-.2-.06-.41-.1-.61-.09-.6-.18-1.2-.26-1.79-.15-1.26-.28-2.51-.38-3.76,0-.4-.07-.79-.12-1.18a2,2,0,0,0-.17-.62,2.73,2.73,0,0,0-.4-.56,1.56,1.56,0,0,0-.67-.36c-.15,0-.31,0-.46-.06a4,4,0,0,0-.5.08l-.18.07a4.69,4.69,0,0,0-.46.21,3.3,3.3,0,0,0-.51.31c-.17.1-.33.22-.49.33l-.83.58c-.5.35-1,.69-1.53,1l-.74.45-.38.26a4,4,0,0,0-.74.63,2.54,2.54,0,0,0-.44,2.39,3.25,3.25,0,0,0,.66,1.26,7.4,7.4,0,0,0,.55.57c.23.24.47.47.72.7a7.65,7.65,0,0,0,2,1.23A20.28,20.28,0,0,1,191,22.51a1.79,1.79,0,0,0,.73.81,1.75,1.75,0,0,0,.89.24,1.8,1.8,0,0,0,1.56-.88Zm-3.28-7.51c.11.76.22,1.52.34,2.28.07.48.15.95.23,1.42l-.06,0c-.84-.28-1.68-.55-2.5-.88a6.28,6.28,0,0,1-.92-.5,3.9,3.9,0,0,1-.38-.33c-.22-.2-.45-.39-.66-.6h0v-.06l.11-.1c.55-.4,1.13-.75,1.67-1.16s1.19-.93,1.78-1.39l.18-.13c.1.49.15,1,.22,1.47Zm-4,1.22v0Zm.05-.07v0Z"/><path id="Path_564" data-name="Path 564" class="cls-5" d="M127.9,39.16l0,0h0l.69,0a8.4,8.4,0,0,0,1.23-.12c.63-.1,1.24-.26,1.86-.37l.52-.07a2.76,2.76,0,0,0,.49-.07,1.9,1.9,0,0,0,1.18-.91l0,0a2,2,0,0,0,.21-.55,1.79,1.79,0,0,0,.42-.3,1.76,1.76,0,0,0,.52-1.28c-.24-2.16-.49-4.33-.8-6.5-.12-.89-.24-1.78-.39-2.66a5,5,0,0,0-.49-1.46,2.3,2.3,0,0,0-2-1.23,4.59,4.59,0,0,0-1.9.66l-1.36.53c-.69.26-1.38.52-2,.83a3,3,0,0,0-1.43,1.9,4.89,4.89,0,0,0-.07,2.05c.1.79.2,1.57.32,2.36.17,1.21.36,2.41.56,3.61l.3,1.82c.05.28.08.55.13.82a1.62,1.62,0,0,0,.41.85,1.4,1.4,0,0,0,.57.32,1.27,1.27,0,0,0,1-.14Zm.15,0,.08,0Zm3.3-4.5a4.73,4.73,0,0,0-.94.44c-.39.23-.77.46-1.17.67s-.82.42-1.23.63c-.07-.33-.13-.66-.19-1-.13-.7-.25-1.4-.35-2.1s-.17-1.36-.25-2c0-.36-.09-.7-.12-1.06a10.88,10.88,0,0,1-.08-1.71,1.64,1.64,0,0,1,.14-.22,22.17,22.17,0,0,0,2.27-.44l1-.25.06.35c.06.36.13.72.18,1.08.1.61.19,1.23.28,1.84.16,1.26.32,2.52.46,3.79l-.07,0Zm-3.91-1.52v0ZM127,28.6s0-.06,0-.1S127,28.57,127,28.6Zm.05-.22a.61.61,0,0,1,0-.12Zm0-.08,0,0Z"/><path id="Path_565" data-name="Path 565" class="cls-5" d="M105.82,33.64q1.64-1.85,3.22-3.7c.29-.33.57-.67.85-1a6.22,6.22,0,0,0,1.39-2.31,1.84,1.84,0,0,0,0-.62,2.16,2.16,0,0,0-.21-.83,1.81,1.81,0,0,0-.94-.85,7,7,0,0,0-1.4-.42c-.62-.14-1.24-.26-1.85-.43s-1.1-.36-1.64-.56a2.38,2.38,0,0,0-.74-.15,1.86,1.86,0,0,0-.93.23,3.25,3.25,0,0,0-.5.4,3.43,3.43,0,0,0-.42.58,3,3,0,0,0-.43,1,9.28,9.28,0,0,0-.1,1.06c0,.7,0,1.4-.06,2.1a23.27,23.27,0,0,0,.19,3.44,2.63,2.63,0,0,0,.06.39l.09.48a2,2,0,0,0,1.85,1.42,1.58,1.58,0,0,0,.6.13,1.23,1.23,0,0,0,.93-.4Zm.41-4.56-.4.47c0-.06,0-.11,0-.16-.11-.45-.18-.9-.26-1.35s-.08-.71-.11-1.07,0-.56,0-.84h0a8.1,8.1,0,0,0,1.09.34c.39.1.79.19,1.19.27l.42.08-.16.22c-.55.69-1.13,1.37-1.71,2Zm2.25-2.71Zm0-.17v-.07a.13.13,0,0,0,0,.06h0Z"/><path id="Path_566" data-name="Path 566" class="cls-5" d="M100.27,8.48c.21,0,.42,0,.62-.05a1.68,1.68,0,0,0,1.6-.45l.27-.34A1.66,1.66,0,0,0,103,6.8c.17-1.38.31-2.75.42-4.13,0-.18,0-.35,0-.53A4.51,4.51,0,0,0,103.36,1L103.3.82a1.72,1.72,0,0,0-.43-.74,1.84,1.84,0,0,0-.56-.48,4.61,4.61,0,0,0-1.24-.45c-.74-.15-1.49-.25-2.23-.35A7.85,7.85,0,0,0,95-1a3.06,3.06,0,0,0-.57.29,1.87,1.87,0,0,0-.51.5,3,3,0,0,0-.46,1,6.83,6.83,0,0,0-.2,1.2c0,.24,0,.48,0,.73,0,.61,0,1.22,0,1.84q0,.55,0,1.11c0,.16,0,.33,0,.5a1.56,1.56,0,0,0,0,.57,1,1,0,0,0,.1.29,1,1,0,0,0,.23.26,2.56,2.56,0,0,0,1,.41c.19,0,.38.12.57.16.45.09.89.17,1.34.22l2.36.26c.35,0,.69.07,1,.09l.46,0h.12Zm-2.84-2a20.48,20.48,0,0,1-2.6-.11l.19,0a5.21,5.21,0,0,1-.57-.09c.11-.63.24-1.25.33-1.88a13.14,13.14,0,0,1,.56-2.72,1.71,1.71,0,0,1,.13-.23,4.84,4.84,0,0,1,.85,0c.67.12,1.32.28,2,.41s1.17.2,1.74.36c0,.23,0,.47,0,.71l-.09,1.14c-.06.75-.14,1.49-.23,2.23a21.21,21.21,0,0,1-2.25.13Zm-3-.18h0s0,0,0-.07a.2.2,0,0,1,0,.07Zm.77-4.78.06,0Z"/><path id="Path_567" data-name="Path 567" class="cls-5" d="M183.84,46.27c.08-.4.15-.8.23-1.19s.15-.72.24-1.07a6.78,6.78,0,0,1,.3-.9l0,0c.21-.06.42-.1.64-.14a20.42,20.42,0,0,1,3.75-.07l-.09.68c0-.12,0-.25,0-.38-.13.92-.26,1.84-.41,2.75a3.5,3.5,0,0,0-.65.08c-.22.05-.43.12-.64.19a6.25,6.25,0,0,1-.72.17,14.4,14.4,0,0,1-2.71-.07Zm.51-3.07.06,0Z"/></g></g></g></g></g></svg>