<svg id="Layer_1" data-name="Layer 1" xmlns="http://www.w3.org/2000/svg" viewBox="0 0 80 75"><defs><style>.cls-1{fill:#f9c800;}</style></defs><title>ent-basic-plans</title><g id="Path_553" data-name="Path 553"><path class="cls-1" d="M27.06,73.5a4.26,4.26,0,0,1-3.14-1.38c-.5-.56-1.11-1.21-1.78-1.94C8.53,55.51,2.26,47,5.71,41c3.1-5.39,11.49-3.81,18.79-2.06l-.15-1.11c-1.8-13.24-2.68-23.62,3.54-26.71,6.42-3.19,14.51,4.16,23.65,13.35l.88-1.75c2.32-4.62,4.51-9,8.12-10.3a5.91,5.91,0,0,1,4.62.28c4.45,2.16,7.26,10,11.37,22.59.8,2.45,1.56,4.76,2.21,6.55A4.24,4.24,0,0,1,76.65,47c-5.46,2.71-40.82,20.92-47,25.61A4.25,4.25,0,0,1,27.06,73.5ZM13.56,45.69c1.16,3.05,5.91,9.1,14.16,18.05,9.73-6,32.86-18,41.83-22.61-.35-1-.71-2.14-1.07-3.26-1.39-4.27-4-12.29-6-16-.84,1.38-1.79,3.28-2.45,4.6-1.46,2.92-2.85,5.67-4.52,7.46a4.25,4.25,0,0,1-5.39.68,33.3,33.3,0,0,1-4.54-4.19c-2.64-2.65-10.29-10.35-13.71-11.48-1,3.34.36,13.64.91,17.7.6,4.42.88,6.62.68,8.18a4.24,4.24,0,0,1-4.54,3.69,32.49,32.49,0,0,1-4.64-1C21.93,47,16.32,45.61,13.56,45.69ZM63.73,20.2Z"/></g><circle id="Ellipse_28" data-name="Ellipse 28" class="cls-1" cx="2.56" cy="38.63" r="1.84"/><circle id="Ellipse_29" data-name="Ellipse 29" class="cls-1" cx="25.64" cy="6.39" r="2.77"/><circle id="Ellipse_30" data-name="Ellipse 30" class="cls-1" cx="62.53" cy="7.74" r="1.84"/></svg>