<svg id="Layer_1" data-name="Layer 1" xmlns="http://www.w3.org/2000/svg" viewBox="0 0 431 90"><defs><style>.cls-1{fill:#96d9c6;}.cls-2{fill:#f27d16;}.cls-3{fill:#f2cb05;}.cls-4{fill:#9450f2;}.cls-5{fill:#3068d9;}.cls-6{fill:#4d4d4d;}</style></defs><title>footer</title><g id="Group_449" data-name="Group 449"><g id="Group_436" data-name="Group 436"><g id="Group_434" data-name="Group 434"><path id="Path_669" data-name="Path 669" class="cls-1" d="M418.45,86.62c-3.54-1.19-3.83-5.3-1.83-9.13,2.2-4.28,8.18-7.5,10.95-6.07s3.22,6.31,1.27,10C426.39,86,421.67,87.67,418.45,86.62Z"/></g><g id="Group_435" data-name="Group 435"><circle id="Ellipse_43" data-name="Ellipse 43" class="cls-1" cx="410.38" cy="86.09" r="2.93"/></g></g><g id="Group_448-2" data-name="Group 448-2"><g id="Group_447-2" data-name="Group 447-2"><g id="Group_437-2" data-name="Group 437-2"><path id="Path_670-2" data-name="Path 670-2" class="cls-2" d="M34.43,50c0,2.69,0,2.69,2.7,2.69s2.69,0,2.69-2.53V43.85c0-2,0-3.91,2.94-3.91H45.2c2.93,0,2.93,2,2.93,3.91V70.74c0,2,0,3.91-2.93,3.91H42.76c-2.94,0-2.94-2-2.94-3.91V63.4c0-3.21-.2-3.42-2.69-3.42H36.6c-1.55,0-2.16,0-2.16,2.49v8.27c0,2,0,3.91-2.93,3.91H29.06c-2.93,0-2.93-2-2.93-3.91V43.84c0-2,0-3.91,2.93-3.91h2.45c2.93,0,2.93,2,2.93,3.91Z"/></g><g id="Group_438-2" data-name="Group 438-2"><path id="Path_671-2" data-name="Path 671-2" class="cls-3" d="M74.27,72.2c0,2.24-1.51,2.44-4.32,2.44H67.34c-3,0-1.51-7.33-3.46-7.33H60c-2,0-.81,7.33-3.75,7.33H53.94c-2.52,0-4.07-.2-4.07-2.44,0-2.94,1.18-5.54,5-28.36.41-2.44,1.39-3.91,3.34-3.91h7.54c2,0,2.93,1.47,3.42,3.91C72.44,63.89,74.27,69.26,74.27,72.2Zm-14.22-13c0,.77.33.77,1.91.77s1.92,0,1.92-.73a6.51,6.51,0,0,0,0-.77c-.57-4.81-.78-10.72-1.88-10.72s-1.38,5.87-1.87,10.72a4.46,4.46,0,0,0,0,.73Z"/></g><g id="Group_439-2" data-name="Group 439-2"><path id="Path_672-2" data-name="Path 672-2" class="cls-4" d="M84.33,63.52v7.17c0,2,0,3.91-2.93,3.91H79c-2.93,0-2.93-2-2.93-3.91V43.8c0-1.95,0-3.91,2.93-3.91H89.55c5.3,0,8.27,4.32,8.27,11.16A22.76,22.76,0,0,1,96.31,59c-1.55,3.34-6.2,3.83-9,3.83a15.41,15.41,0,0,1-1.79-.08C84.38,62.71,84.33,63.11,84.33,63.52Zm-.08-14.58c0,.65,0,1.46,0,2.48s0,1.87,0,2.44c0,1.63.29,1.92,2.24,1.92,2.61,0,2.7-2.16,2.7-4.36s-.49-4.89-2.7-4.89c-1.91,0-2.24.61-2.24,2.41Z"/></g><g id="Group_440-2" data-name="Group 440-2"><path id="Path_673-2" data-name="Path 673-2" class="cls-1" d="M107.76,63.52v7.17c0,2,0,3.91-2.93,3.91h-2.45c-2.93,0-2.93-2-2.93-3.91V43.8c0-1.95,0-3.91,2.93-3.91H113c5.3,0,8.27,4.32,8.27,11.16a22.75,22.75,0,0,1-1.5,7.91c-1.55,3.34-6.2,3.83-9,3.83a15.32,15.32,0,0,1-1.79-.08C107.8,62.71,107.76,63.11,107.76,63.52Zm0-14.58c0,.65,0,1.46,0,2.48s0,1.87,0,2.44c0,1.63.28,1.92,2.24,1.92,2.6,0,2.69-2.16,2.69-4.36s-.49-4.89-2.69-4.89c-2,0-2.24.61-2.24,2.41Z"/></g><g id="Group_441-2" data-name="Group 441-2"><path id="Path_674-2" data-name="Path 674-2" class="cls-5" d="M132.08,74.64c-2.94,0-2.94-2-2.94-3.91V63.35c0-2.64-2.52-8.75-3.42-10.79l-.16-.33c-1-2.2-3.87-9.61-3.87-11A1.2,1.2,0,0,1,122.82,40a1.38,1.38,0,0,1,.29,0h5.58c1.55,0,2,2.12,2.45,3.91.32,1.55,2,7,2,7.5a.58.58,0,0,0,.49.53.49.49,0,0,0,.49-.49c0-.45,1.51-6,1.92-7.54.45-1.79,1-3.91,2.77-3.91h4.36c1.46,0,2,0,2,1.26s-2.85,8.84-3.83,11c-.45,1-1.26,3.22-2.28,5.79a16.66,16.66,0,0,0-1.67,8.59V71c0,1.92,0,3.71-2.93,3.71h-2.41Z"/></g></g><path id="Path_675-2" data-name="Path 675-2" class="cls-6" d="M176,56.06a.26.26,0,0,0,.21.25c3.5,1.18,4.8,5,4.8,8.47a11.86,11.86,0,0,1-1.3,5.38c-2.41,4.39-4.44,4.48-7.62,4.48H161.2c-2.93,0-2.93-2-2.93-3.91V43.84c0-2,0-3.91,2.93-3.91h10.51c6.31,0,8.39,4.2,8.39,8.72a7.77,7.77,0,0,1-3.87,7.17C176.07,55.86,176,55.94,176,56.06Zm-9.49-6.23c0,2.44,0,3.26,2.44,3.26,2,0,2.45-1.55,2.45-3.26s-.49-3.34-2.45-3.34c-2.44,0-2.44.9-2.44,3.34Zm0,13.81c0,2.93,0,4.4,2.7,4.4,2.44,0,2.69-2.2,2.69-4.4s0-4.32-2.69-4.32-2.7,1.39-2.7,4.32Z"/><path id="Path_676-2" data-name="Path 676-2" class="cls-6" d="M191.1,65.68a1.89,1.89,0,0,0,2.05,1.62c2.77,0,3.7-.08,4.72-.08,2,0,2.7.57,2.7,2v3.42c0,1.47-.49,2-2,2H185.74c-2.93,0-2.93-2.93-2.93-3.91V43.84c0-2,0-3.91,2.93-3.91h12.62c1.22,0,2.28.49,2.28,1.47v4.15c0,1.19-1,1.23-2.2,1.23-1.91,0-3.42-.08-4.64-.08-2.7,0-2.7,1-2.7,2.52,0,3.18,0,4,2.45,4,3,0,3.5-.08,4.64-.08,1.71,0,1.79,1.71,1.79,2.24v3.14c0,1.47-1,1.55-2.24,1.55-2.48,0-4.07-.08-5.09-.08-1.55,0-1.55.69-1.55,2.28Z"/><path id="Path_677-2" data-name="Path 677-2" class="cls-6" d="M226.66,72.19c0,2.25-1.51,2.45-4.32,2.45h-2.61c-3,0-1.5-7.33-3.46-7.33h-3.91c-2,0-.81,7.33-3.75,7.33h-2.28c-2.52,0-4.07-.21-4.07-2.45,0-2.93,1.18-5.54,5-28.35.41-2.44,1.39-3.91,3.34-3.91h7.54c2,0,2.93,1.47,3.42,3.91C224.87,63.89,226.66,69.26,226.66,72.19Zm-14.22-13c0,.77.33.77,1.92.77s1.91,0,1.91-.73a6.51,6.51,0,0,0,0-.77c-.57-4.81-.77-10.72-1.87-10.72s-1.39,5.87-1.88,10.72a4.46,4.46,0,0,0,0,.73Z"/><path id="Path_678-2" data-name="Path 678-2" class="cls-6" d="M243.57,55.57c.16,0,.24-.16.24-.49V43.84c0-2,0-3.91,2.94-3.91h2.44c2.93,0,2.93,2,2.93,3.91V70.73c0,2,0,3.91-2.93,3.91-4.4,0-4.73-.78-5.42-2.24l-6.52-14.14c-.16-.28-.29-.49-.41-.49s-.2.21-.2.49l0,12.47c0,2,0,3.91-2.93,3.91H231.3c-2.93,0-2.93-2-2.93-3.91V43.84c0-2,0-3.91,2.93-3.91h2.61c1.63,0,2.16.21,2.89,1.71l6.31,13.44C243.28,55.41,243.45,55.57,243.57,55.57Z"/><path id="Path_679-2" data-name="Path 679-2" class="cls-6" d="M264.43,39.69c4.07,0,6.8.73,6.8,2.12v3.75c0,.52-.2,1.46-1.87,1.46H269c-.77,0-2.53-.53-3.95-.53-1.18,0-2.12.41-2.12,2s.45,2.28,2.36,3.87c5.83,4.81,7,8.23,7,12.18a10.44,10.44,0,0,1-1.3,6.19,9.32,9.32,0,0,1-5.22,3.67,21.59,21.59,0,0,1-4.68.53c-3.62,0-7.13-.7-7.13-2.65V68.49c0-.57.49-1.18,1.8-1.18s2.36.73,5.13.73c1.38,0,3.22-1.06,3.22-2.6,0-1.14,0-2-3-4.89-4.56-4.44-6.68-6.53-6.68-10.51C254.28,40.42,260.52,39.69,264.43,39.69Z"/><path id="Path_680-2" data-name="Path 680-2" class="cls-6" d="M295.59,39.93c10.75,0,12.22,6.85,12.22,17.36,0,10-1,17.35-12.22,17.35h-7.33c-2.94,0-2.94-2-2.94-3.91V43.84c0-2,0-3.91,2.94-3.91Zm-2,8.11c0,5.54.05,11.53.05,17.31,0,1.26.08,2.45,1,2.45,3.67,0,3.91-2.94,3.91-10.76,0-6.84-.24-10.51-3.91-10.51-.85,0-1,.49-1,1.51Z"/><path id="Path_681-2" data-name="Path 681-2" class="cls-6" d="M318,65.68a1.91,1.91,0,0,0,2,1.63c2.77,0,3.71-.08,4.73-.08,2,0,2.69.56,2.69,2v3.43c0,1.46-.49,2-2,2H312.55c-2.93,0-2.93-2.93-2.93-3.91V43.84c0-2,0-3.91,2.93-3.91h12.62c1.22,0,2.28.49,2.28,1.47v4.15c0,1.19-1,1.23-2.2,1.23-1.91,0-3.42-.08-4.64-.08-2.7,0-2.7,1-2.7,2.52,0,3.18,0,4,2.45,4,3,0,3.5-.08,4.64-.08,1.71,0,1.79,1.71,1.79,2.24v3.14c0,1.47-1,1.55-2.24,1.55-2.48,0-4.07-.08-5.09-.08-1.55,0-1.55.69-1.55,2.28v3.42Z"/><path id="Path_682-2" data-name="Path 682-2" class="cls-6" d="M339.67,39.69c4.07,0,6.8.73,6.8,2.12v3.75c0,.52-.2,1.46-1.87,1.46h-.41c-.77,0-2.52-.53-3.95-.53-1.18,0-2.12.41-2.12,2s.45,2.28,2.37,3.87c5.82,4.81,7,8.23,7,12.18a10.44,10.44,0,0,1-1.3,6.19A9.32,9.32,0,0,1,341,74.36a21.59,21.59,0,0,1-4.68.53c-3.62,0-7.12-.7-7.12-2.65V68.49c0-.57.48-1.18,1.79-1.18s2.36.73,5.13.73c1.39,0,3.22-1.06,3.22-2.6,0-1.14,0-2-3-4.89-4.56-4.44-6.68-6.53-6.68-10.51C329.52,40.42,335.76,39.69,339.67,39.69Z"/><path id="Path_683-2" data-name="Path 683-2" class="cls-6" d="M357.47,70.73c0,2,0,3.91-2.94,3.91h-2.44c-2.93,0-2.93-2-2.93-3.91V43.84c0-2,0-3.91,2.93-3.91h2.44c2.94,0,2.94,2,2.94,3.91Z"/><path id="Path_684-2" data-name="Path 684-2" class="cls-6" d="M375.11,61.24c0-1.51-.9-1.55-1.8-1.55-1.63,0-1.79-.77-1.79-2.12v-.49c0-3.95,0-4.19,2.36-4.19h7c2.12,0,2.12,1,2.12,2V70.08c0,4.8-4.73,4.8-7.54,4.8-7.78,0-16.21-3.5-16.21-17.92,0-14,9-17.27,15-17.27,5.09,0,7.13.53,7.13,2V45.6c0,.89-.65,1.18-1.43,1.18-1.51,0-3-.66-5.21-.66-6.19,0-6.93,8.64-6.93,10.68,0,4,.74,11,5.7,11,1,0,1.68-.49,1.68-2.2V61.24Z"/><path id="Path_685-2" data-name="Path 685-2" class="cls-6" d="M400.12,55.57c.16,0,.24-.16.24-.49V43.84c0-2,0-3.91,2.94-3.91h2.44c2.93,0,2.93,2,2.93,3.91V70.73c0,2,0,3.91-2.93,3.91-4.4,0-4.73-.78-5.42-2.24L393.8,58.26c-.17-.28-.29-.49-.41-.49s-.2.21-.2.49l0,12.47c0,2,0,3.91-2.94,3.91h-2.44c-2.93,0-2.93-2-2.93-3.91V43.84c0-2,0-3.91,2.93-3.91h2.61c1.63,0,2.16.21,2.89,1.71l6.31,13.44C399.83,55.41,400,55.57,400.12,55.57Z"/></g><g id="special-left"><g id="Group_445" data-name="Group 445"><g id="Group_443" data-name="Group 443"><path id="Path_686" data-name="Path 686" class="cls-1" d="M4.21,34.76c4.24-3.26,9.37-.28,12.34,5.13C19.85,46,18.87,55.62,15,57.78c-3.71,2-10.06-1.23-12.87-6.48C-1.41,44.74.38,37.73,4.21,34.76Z"/></g><g id="Group_444" data-name="Group 444"><circle id="Ellipse_44" data-name="Ellipse 44" class="cls-1" cx="11.3" cy="25.67" r="4.2"/></g></g><g id="Group_446" data-name="Group 446"><path id="Path_687" data-name="Path 687" class="cls-1" d="M30.16,24.25c1.83,1.22,1.71,4.93-.74,7-2,1.67-8.72,5.37-12.1,3.38-2.32-1.39.13-6.11,3.22-8.88C23.15,23.35,27.14,22.25,30.16,24.25Z"/></g></g></g></svg>