<svg xmlns="http://www.w3.org/2000/svg" xmlns:xlink="http://www.w3.org/1999/xlink" viewBox="0 0 1920 643"><defs><style>.cls-1{fill:none;}.cls-2{clip-path:url(#clip-path);}.cls-3{clip-path:url(#clip-path-2);}.cls-4{fill:#fff;opacity:0.99;isolation:isolate;}.cls-5{fill:#f2f2f2;}</style><clipPath id="clip-path"><path id="header-bkg" class="cls-1" d="M.66-304.41c75.78,77.55,192.81,153.82,317.8,144,242-19,294-156,483-197,177.66-38.54,288.65,71.61,427,100,229,47,302-113,532-138,58.2-6.32,111.14,5.89,160,19.14l.11-524.14H.36Z"/></clipPath><clipPath id="clip-path-2"><path class="cls-1" d="M1368.09-410.72c-38.16-30.39-88.8,11.09-122.62-20.93-42.47-40.21-119.65-13.07-122.23,39.4-2.54,51.61,43.48,48.37,79.13,106.65,29.21,47.78,95,80.15,143.56,37S1412.51-375.34,1368.09-410.72Z"/></clipPath></defs><title>footer-large</title><g id="Layer_2" data-name="Layer 2"><g class="cls-2"><g id="pattern-small"><g class="cls-3"><g id="Group_62" data-name="Group 62"><g id="Group_51" data-name="Group 51"><g id="Group_50" data-name="Group 50"><g id="Group_48" data-name="Group 48"><path id="Path_310" data-name="Path 310" class="cls-4" d="M1182.39,0A23.2,23.2,0,0,0,1180,3c-.55.86-1.09,1.74-1.65,2.6l-1.64,2.43c-.53.79-1,1.61-1.49,2.44-.73,1.39-1.72,2.8-1.63,4.44a3.4,3.4,0,0,0,.84,2.42s0,.08,0,.11c.1.27.19.54.29.8a3.23,3.23,0,0,0,1.17,1.29q2.68,2.12,5.43,4.15c.86.64,1.72,1.28,2.6,1.9.4.29.8.56,1.22.82a5.18,5.18,0,0,0,1.64.7l.82.14c.35,0,.7-.05,1-.1a4,4,0,0,0,1.53-.69,11.54,11.54,0,0,0,2-1.61,16.7,16.7,0,0,0,1.68-2.07c.4-.54.77-1.11,1.15-1.67.52-.77,1-1.57,1.55-2.35a60,60,0,0,0,3.23-5.1c.23-.45.43-.92.63-1.38a6.83,6.83,0,0,0,.41-1.83,4.21,4.21,0,0,0,0-.71,9.25,9.25,0,0,0-.16-1.39,7.22,7.22,0,0,0-1.46-2.83,10.67,10.67,0,0,0-1.9-1.78c-.34-.26-.67-.53-1-.77l-1.54-1.08c-.86-.6-1.76-1.16-2.64-1.73s-1.54-1-2.35-1.41A17.81,17.81,0,0,0,1188-2a4.29,4.29,0,0,0-4.52.85l-.19.16c-.34.31-.64.69-.94,1Zm3.22,2.45.15,0h0l-.15,0Zm.76.46c.38.29.75.6,1.12.9.61.49,1.21,1,1.83,1.46,1.25,1,2.55,1.91,3.79,2.91a10.21,10.21,0,0,1,1.22,1.24l.05.1v.11c0,.05,0,.1-.05.16-.38.69-.83,1.36-1.26,2-.53.83-1.06,1.65-1.58,2.49s-1.16,1.85-1.73,2.78a36.43,36.43,0,0,1-2,3.06l-.16.17-1-.71c-.67-.5-1.34-1-2-1.53-1.29-1-2.58-2-3.86-3,.25-.81.42-1.64.66-2.45a31.25,31.25,0,0,1,1.3-3.37l.56-1.22c.33-.69.66-1.38,1-2.06a16.52,16.52,0,0,1,1.2-2c.21-.29.44-.57.67-.85l.2-.23Zm7.92,6.24,0,.08Z"/></g></g></g></g></g></g></g><g id="Group_423" data-name="Group 423"><path id="Path_663" data-name="Path 663" class="cls-5" d="M1920.26,147.48c-75.8-77.6-192.8-153.9-317.8-144-242,19-294,156-483,197-177.7,38.5-288.7-71.6-427-100-229-47-302,113-532,138-58.2,6.3-111.1-5.9-160-19.1l-.1,423h1920.2Z"/></g></g></svg>