<svg xmlns="http://www.w3.org/2000/svg" viewBox="0 0 418 382"><defs><style>.cls-1{fill:#f27d16;}.cls-2{fill:#f2cb05;}.cls-3{fill:#9450f2;}.cls-4{fill:#96d9c6;}.cls-5{fill:#3068d9;}.cls-6{fill:#4d4d4d;}.cls-7{fill:#fff;stroke:#4d4d4d;stroke-miterlimit:10;stroke-width:2px;}</style></defs><title>large-header</title><g id="Layer_2" data-name="Layer 2"><g id="Group_460" data-name="Group 460"><g id="Group_459" data-name="Group 459"><path id="Path_57" data-name="Path 57" class="cls-1" d="M28.4,33.44C28.4,42,28.4,42,37,42s8.56,0,8.56-8.09V14c0-6.22,0-12.44,9.32-12.44h7.78c9.33,0,9.33,6.22,9.33,12.44V99.53c0,6.22,0,12.44-9.33,12.44H54.83c-9.32,0-9.32-6.22-9.32-12.44V76.2c0-10.26-.63-10.88-8.56-10.88h-1.7c-5,0-6.85,0-6.85,7.93V99.53c0,6.22,0,12.44-9.33,12.44H11.3C2,112,2,105.75,2,99.53V14C2,7.78,2,1.56,11.3,1.56h7.77C28.4,1.56,28.4,7.78,28.4,14Z"/><path id="Path_58" data-name="Path 58" class="cls-2" d="M163.39,104.2c0,7.15-4.82,7.77-13.68,7.77h-8.24c-9.64,0-4.82-23.32-11-23.32H118c-6.22,0-2.65,23.32-12,23.32H98.7c-8.08,0-12.91-.62-12.91-7.77,0-9.33,3.73-17.58,15.87-90.2C102.9,6.22,106,1.56,112.23,1.56h24c6.22,0,9.32,4.66,10.88,12.44C157.64,77.76,163.39,94.86,163.39,104.2ZM118.14,62.83c0,2.49,1.09,2.49,6.07,2.49,4.81,0,6.06,0,6.06-2.33a15.94,15.94,0,0,0-.16-2.49c-1.86-15.24-2.48-34.06-5.9-34.06-3.27,0-4.36,18.66-5.91,34.06a14,14,0,0,0-.16,2.33Z"/><path id="Path_59" data-name="Path 59" class="cls-3" d="M203.68,76.67V99.53c0,6.22,0,12.44-9.33,12.44h-7.77c-9.33,0-9.33-6.22-9.33-12.44V14c0-6.22,0-12.44,9.33-12.44h33.75c16.8,0,26.28,13.68,26.28,35.45,0,8.71-2.49,20.38-4.82,25.2-5,10.57-19.75,12.13-28.46,12.13a40.88,40.88,0,0,1-5.75-.31C203.84,74,203.68,75.27,203.68,76.67Zm-.15-46.5c0,2,.15,4.66.15,7.93,0,3.11-.15,5.91-.15,7.78,0,5.13.93,6.06,7.15,6.06,8.24,0,8.56-6.84,8.56-13.84s-1.56-15.55-8.56-15.55c-6.22,0-7.15,2-7.15,7.62Z"/><path id="Path_60" data-name="Path 60" class="cls-4" d="M286.12,76.67V99.53c0,6.22,0,12.44-9.33,12.44H269c-9.33,0-9.33-6.22-9.33-12.44V14c0-6.22,0-12.44,9.33-12.44h33.75C319.55,1.56,329,15.24,329,37c0,8.71-2.49,20.38-4.82,25.2-5,10.57-19.75,12.13-28.46,12.13A40.88,40.88,0,0,1,290,74C286.27,74,286.12,75.27,286.12,76.67ZM286,30.17c0,2,.16,4.66.16,7.93,0,3.11-.16,5.91-.16,7.78,0,5.13.93,6.06,7.15,6.06,8.25,0,8.56-6.84,8.56-13.84s-1.56-15.55-8.56-15.55c-6.21,0-7.15,2-7.15,7.62Z"/><path id="Path_61" data-name="Path 61" class="cls-5" d="M373.53,112c-9.34,0-9.34-6.22-9.34-12.44V76.05c0-8.4-8.08-27.84-10.88-34.37l-.47-1.09c-3.11-7-12.28-30.64-12.28-35,0-4,3.42-4,4.51-4H362.8c5,0,6.53,6.69,7.77,12.44,1.09,5,6.22,22.39,6.53,23.79a1.83,1.83,0,0,0,1.56,1.71c.78,0,1.4-.47,1.56-1.56.15-1.4,4.82-19,6.06-23.95,1.4-5.75,3.27-12.44,8.86-12.44H409c4.67,0,6.38,0,6.38,4.05,0,4.35-9,28.14-12.13,35-1.4,3.11-4.05,10.26-7.31,18.35-4.82,12.13-5.29,13.68-5.29,27.36v13.85c0,6.06,0,11.81-9.33,11.81Z"/></g><g id="Group_9" data-name="Group 9"><path id="Path_62" data-name="Path 62" class="cls-6" d="M60.55,188.62a.84.84,0,0,0,.65.82c11.71,3.9,15.94,16.74,15.94,28.13a39,39,0,0,1-4.39,17.89c-8,14.63-14.8,15-25.37,15H11.11c-9.75,0-9.75-6.5-9.75-13V148c0-6.5,0-13,9.75-13h35c21,0,28,14,28,28.94,0,9.6-3.9,19.19-12.85,23.91A.83.83,0,0,0,60.55,188.62ZM29,168c0,8.13,0,10.89,8.13,10.89,6.5,0,8.13-5.2,8.13-10.89s-1.62-11.06-8.13-11.06C29,156.91,29,159.84,29,168Zm0,45.85c0,9.76,0,14.64,8.94,14.64,8.14,0,9-7.32,9-14.64s0-14.31-9-14.31S29,204.07,29,213.83Z"/><path id="Path_63" data-name="Path 63" class="cls-6" d="M119.57,220.66c.33,3.58,3.58,5.36,6.83,5.36,9.27,0,12.36-.32,15.78-.32,6.83,0,8.94,2,8.94,6.83v11.38c0,4.88-1.62,6.5-6.51,6.5H101.69c-9.76,0-9.76-9.75-9.76-13V148c0-6.5,0-13,9.76-13h41.95c4.07,0,7.64,1.62,7.64,4.88v13.82c0,3.9-3.25,4.06-7.31,4.06-6.35,0-11.39-.32-15.45-.32-9,0-9,3.25-9,8.46,0,10.56,0,13.33,8.13,13.33,10.09,0,11.71-.33,15.45-.33,5.7,0,6,5.7,6,7.48v10.41c0,4.88-3.41,5.2-7.48,5.2-8.3,0-13.5-.32-16.91-.32-5.21,0-5.21,2.27-5.21,7.64Z"/><path id="Path_64" data-name="Path 64" class="cls-6" d="M246.57,242.29c0,7.48-5,8.13-14.31,8.13h-8.62c-10.08,0-5-24.4-11.54-24.4h-13c-6.5,0-2.76,24.4-12.52,24.4h-7.64c-8.45,0-13.5-.65-13.5-8.13,0-9.76,3.9-18.38,16.59-94.32,1.3-8.13,4.55-13,11.06-13h25c6.5,0,9.76,4.88,11.38,13C240.56,214.64,246.57,232.53,246.57,242.29ZM199.25,199c0,2.6,1.14,2.6,6.34,2.6,5,0,6.34,0,6.34-2.44a16.14,16.14,0,0,0-.16-2.6c-2-15.94-2.6-35.61-6.18-35.61-3.41,0-4.55,19.51-6.18,35.61a14.23,14.23,0,0,0-.16,2.44Z"/><path id="Path_65" data-name="Path 65" class="cls-6" d="M311.46,187c.48,0,.81-.49.81-1.63V148c0-6.5,0-13,9.76-13h8.13c9.75,0,9.75,6.5,9.75,13v89.44c0,6.5,0,13-9.75,13-14.64,0-15.78-2.6-18.06-7.49l-21.63-47c-.48-1-1-1.62-1.3-1.62-.48,0-.65.65-.65,1.62l.17,41.47c0,6.51,0,13-9.76,13H270.8c-9.76,0-9.76-6.5-9.76-13V148c0-6.5,0-13,9.76-13h8.62c5.36,0,7.15.65,9.6,5.69l21,44.72C310.47,186.51,311,187,311.46,187Z"/><path id="Path_66" data-name="Path 66" class="cls-6" d="M389.34,134.14c13.5,0,22.6,2.44,22.6,7v12.53c0,1.79-.65,4.87-6.18,4.87h-1.3c-2.6,0-8.46-1.79-13.18-1.79-3.9,0-7,1.3-7,6.5,0,5,1.46,7.65,7.8,12.85,19.37,15.95,23.27,27.33,23.27,40.5,0,7.48-.17,14.31-4.39,20.66-5.37,8.13-13.82,11.22-17.4,12.2A68.4,68.4,0,0,1,378,251.23c-12,0-23.75-2.27-23.75-8.78V229.93c0-2,1.63-3.9,6-3.9,4.23,0,7.8,2.44,17.08,2.44,4.55,0,10.73-3.58,10.73-8.62,0-3.74-.16-6.51-10.08-16.26-15.13-14.8-22.28-21.63-22.28-35C355.68,136.58,376.33,134.14,389.34,134.14Z"/></g><g id="Group_10" data-name="Group 10"><path id="Path_67" data-name="Path 67" class="cls-7" d="M32.89,276.39c32.43,0,36.85,20.64,36.85,52.33,0,30.22-2.95,52.33-36.85,52.33H10.78c-8.85,0-8.85-5.9-8.85-11.79V288.18c0-5.9,0-11.79,8.85-11.79Zm-6,24.47c0,16.66.14,34.79.14,52.19,0,3.83.3,7.37,3,7.37,11.05,0,11.79-8.85,11.79-32.43,0-20.64-.73-31.7-11.79-31.7C27.29,296.29,26.85,297.76,26.85,300.86Z"/><path id="Path_68" data-name="Path 68" class="cls-7" d="M108.36,354.07c.29,3.25,3.24,4.87,6.19,4.87,8.4,0,11.2-.3,14.3-.3,6.19,0,8.11,1.77,8.11,6.19v10.32c0,4.42-1.48,5.9-5.9,5.9H92.14c-8.84,0-8.84-8.84-8.84-11.79V288.18c0-5.9,0-11.79,8.84-11.79h38c3.69,0,6.93,1.47,6.93,4.42v12.53c0,3.54-2.94,3.69-6.63,3.69-5.75,0-10.32-.3-14-.3-8.11,0-8.11,2.95-8.11,7.66,0,9.58,0,12.09,7.37,12.09,9.14,0,10.62-.3,14-.3,5.16,0,5.46,5.16,5.46,6.78v9.44c0,4.42-3.1,4.71-6.78,4.71-7.52,0-12.24-.29-15.33-.29-4.72,0-4.72,2.06-4.72,6.93Z"/><path id="Path_69" data-name="Path 69" class="cls-7" d="M181.62,275.65c12.23,0,20.49,2.21,20.49,6.34v11.35c0,1.62-.59,4.43-5.6,4.43h-1.18c-2.36,0-7.66-1.63-11.94-1.63-3.54,0-6.34,1.18-6.34,5.9,0,4.57,1.33,6.93,7.08,11.65,17.54,14.45,21.08,24.76,21.08,36.7,0,6.78-.15,13-4,18.72-4.87,7.37-12.53,10.17-15.78,11.06a62.36,62.36,0,0,1-14.15,1.62c-10.9,0-21.52-2.07-21.52-8V362.48c0-1.77,1.48-3.54,5.46-3.54,3.83,0,7.07,2.21,15.47,2.21,4.13,0,9.73-3.24,9.73-7.81,0-3.39-.14-5.9-9.14-14.74-13.7-13.42-20.2-19.6-20.2-31.7C151.11,277.86,169.83,275.65,181.62,275.65Z"/><path id="Path_70" data-name="Path 70" class="cls-7" d="M243.23,369.26c0,5.9,0,11.79-8.84,11.79H227c-8.84,0-8.84-5.9-8.84-11.79V288.18c0-5.9,0-11.79,8.84-11.79h7.37c8.84,0,8.84,5.9,8.84,11.79Z"/><path id="Path_71" data-name="Path 71" class="cls-7" d="M304.26,340.66c0-4.57-2.65-4.72-5.45-4.72-4.87,0-5.46-2.36-5.46-6.34v-1.47c0-11.94.15-12.68,7.08-12.68h21.08c6.34,0,6.34,3.1,6.34,5.9v46c0,14.45-14.3,14.45-22.7,14.45-23.44,0-48.95-10.61-48.95-54.1,0-42.31,27.13-52,45.26-52,15.33,0,21.52,1.62,21.52,6.19v11.64c0,2.65-1.92,3.54-4.27,3.54-4.57,0-9.14-1.92-15.78-1.92-18.72,0-20.93,26.09-20.93,32.14,0,12.08,2.21,33.16,17.25,33.16,2.95,0,5-1.47,5-6.63Z"/><path id="Path_72" data-name="Path 72" class="cls-7" d="M387.25,323.56c.44,0,.74-.44.74-1.47v-33.9c0-5.9,0-11.79,8.84-11.79h7.37c8.84,0,8.84,5.9,8.84,11.79v81.07c0,5.9,0,11.8-8.84,11.8-13.27,0-14.3-2.36-16.36-6.79l-19.6-42.6c-.44-.88-.89-1.47-1.18-1.47s-.59.59-.59,1.47l.15,37.59c0,5.9,0,11.8-8.85,11.8H350.4c-8.84,0-8.84-5.9-8.84-11.8V288.18c0-5.9,0-11.79,8.84-11.79h7.81c4.87,0,6.49.59,8.7,5.16l19,40.54C386.36,323.12,386.81,323.56,387.25,323.56Z"/></g></g></g></svg>