<svg id="Layer_1" data-name="Layer 1" xmlns="http://www.w3.org/2000/svg" xmlns:xlink="http://www.w3.org/1999/xlink" viewBox="0 0 212 236"><defs><style>.cls-1{fill:none;}.cls-2{clip-path:url(#clip-path);}.cls-3{fill:#9e4bfa;}.cls-4{fill:#fff;}.cls-5{clip-path:url(#clip-path-2);}.cls-6{fill:#80dac4;}.cls-7{fill:#f9c800;}.cls-8{clip-path:url(#clip-path-3);}</style><clipPath id="clip-path"><path class="cls-1" d="M170.5,100.39c13.06,8,36.35,25.48,34.38,32.4s-29.29,20.5-33.53,18.9c-7.65-2.89.63-5.76,4-22.41S168,98.84,170.5,100.39Z"/></clipPath><clipPath id="clip-path-2"><path class="cls-1" d="M73.89,119.89c-3.84,8.41-11.7,43.5-6.94,57.2s25.27,4.77,47.15-.58c10.55-2.58-18.68-9.48-27.77-22.62C77.91,141.72,79,108.7,73.89,119.89Z"/></clipPath><clipPath id="clip-path-3"><path class="cls-1" d="M10.62,11.57c3.43,5.23,35.66,56,39.75,58.63S67.71,58.92,72.52,50.68,81,27.55,79.3,24.76,20.74,9.14,17.13,8.22C8.7,6.08,7.81,7.29,10.62,11.57Z"/></clipPath></defs><title>process</title><g id="Group_144" data-name="Group 144"><g id="Group_138" data-name="Group 138"><g class="cls-2"><g id="Group_137" data-name="Group 137"><path id="Path_606" data-name="Path 606" class="cls-3" d="M170.5,100.39c13.06,8,36.35,25.48,34.38,32.4s-29.29,20.5-33.53,18.9c-7.65-2.89.63-5.76,4-22.41S168,98.84,170.5,100.39Z"/><path id="Path_607" data-name="Path 607" class="cls-4" d="M184,111a2,2,0,0,1-.1.76c-.22,1-.42,2-.64,2.93a.71.71,0,0,0,.2.69c.73.79,1.46,1.57,2.18,2.36a.78.78,0,0,1,.2.84.75.75,0,0,1-.68.43c-1.07.1-2.13.21-3.2.3a.77.77,0,0,0-.67.44c-.52.93-1.06,1.86-1.59,2.79a.71.71,0,0,1-1.34-.05l-1.26-2.94a.77.77,0,0,0-.59-.52c-1.07-.22-2.16-.46-3.24-.66a.72.72,0,0,1-.59-.52.66.66,0,0,1,.22-.72l2.54-2.25a.64.64,0,0,0,.23-.6c-.12-1.06-.24-2.11-.37-3.16-.08-.6.19-1,.71-1a.94.94,0,0,1,.53.2c.9.54,1.81,1.07,2.7,1.62a.89.89,0,0,0,.89,0l2.78-1.28a.82.82,0,0,1,.9.07Z"/><path id="Path_608" data-name="Path 608" class="cls-4" d="M186.52,133.9a2.17,2.17,0,0,1-.09.76c-.23,1-.43,2-.65,2.93a.74.74,0,0,0,.2.69l2.18,2.37a.76.76,0,0,1,.2.83.75.75,0,0,1-.68.43l-3.19.3a.79.79,0,0,0-.68.44c-.52.93-1.06,1.86-1.58,2.79a.75.75,0,0,1-.65.44.73.73,0,0,1-.7-.5l-1.26-2.93a.75.75,0,0,0-.58-.52c-1.08-.22-2.17-.46-3.25-.66a.69.69,0,0,1-.58-.52.64.64,0,0,1,.21-.72c.85-.76,1.69-1.51,2.55-2.25a.66.66,0,0,0,.22-.6c-.12-1.06-.24-2.11-.37-3.16-.07-.6.2-1,.71-1a.94.94,0,0,1,.53.2c.9.53,1.81,1.07,2.71,1.62a.85.85,0,0,0,.88,0c.92-.42,1.86-.84,2.78-1.28a.84.84,0,0,1,.9.07Z"/><path id="Path_609" data-name="Path 609" class="cls-4" d="M204.22,120.28a1.91,1.91,0,0,1-.09.75c-.23,1-.43,2-.65,2.94a.74.74,0,0,0,.2.69l2.19,2.36a.76.76,0,0,1,.19.83.75.75,0,0,1-.68.44l-3.19.3a.79.79,0,0,0-.68.44c-.52.93-1.06,1.86-1.58,2.79a.73.73,0,0,1-.94.39.77.77,0,0,1-.41-.44c-.42-1-.84-2-1.25-2.94a.78.78,0,0,0-.59-.52c-1.08-.22-2.16-.46-3.24-.66a.69.69,0,0,1-.59-.52.64.64,0,0,1,.21-.72l2.55-2.25a.68.68,0,0,0,.23-.6c-.13-1-.25-2.11-.38-3.16-.07-.59.2-1,.72-1a1,1,0,0,1,.52.2l2.71,1.62a.85.85,0,0,0,.88,0l2.78-1.28a.82.82,0,0,1,.9.07Z"/></g></g></g><g id="Group_140" data-name="Group 140"><g class="cls-5"><g id="Group_139" data-name="Group 139"><path id="Path_611" data-name="Path 611" class="cls-3" d="M73.89,119.89c-3.84,8.41-11.7,43.5-6.94,57.2s25.27,4.77,47.15-.58c10.55-2.58-18.68-9.48-27.77-22.62C77.91,141.72,79,108.7,73.89,119.89Z"/><path id="Path_612" data-name="Path 612" class="cls-4" d="M80.3,147.48a2.18,2.18,0,0,1-.1.76c-.23,1-.43,2-.65,2.93a.74.74,0,0,0,.2.69l2.19,2.37a.72.72,0,0,1-.49,1.26l-3.19.3a.79.79,0,0,0-.68.44c-.52.94-1.06,1.86-1.58,2.79a.75.75,0,0,1-.65.44.73.73,0,0,1-.69-.49Q74,157.5,73.4,156a.8.8,0,0,0-.59-.52c-1.08-.22-2.16-.46-3.24-.66a.69.69,0,0,1-.59-.52.64.64,0,0,1,.21-.72c.85-.75,1.7-1.51,2.55-2.25a.66.66,0,0,0,.23-.6c-.12-1.06-.24-2.11-.38-3.16-.07-.59.2-1,.72-1a.91.91,0,0,1,.52.2c.9.54,1.81,1.07,2.71,1.62a.87.87,0,0,0,.88,0l2.79-1.28a.8.8,0,0,1,.89.07Z"/><path id="Path_613" data-name="Path 613" class="cls-4" d="M77.23,176.72a1.91,1.91,0,0,1-.09.75c-.23,1-.43,2-.65,2.94a.71.71,0,0,0,.2.68l2.19,2.37a.76.76,0,0,1,.19.83.72.72,0,0,1-.68.43l-3.19.3a.81.81,0,0,0-.68.44c-.52.94-1.06,1.86-1.58,2.8a.77.77,0,0,1-.65.44.73.73,0,0,1-.7-.5l-1.26-2.94a.76.76,0,0,0-.58-.51c-1.08-.23-2.16-.47-3.25-.67a.69.69,0,0,1-.58-.52.64.64,0,0,1,.21-.72c.85-.75,1.69-1.51,2.55-2.25a.65.65,0,0,0,.22-.6c-.12-1.06-.24-2.11-.37-3.16-.07-.59.2-1,.71-1a.94.94,0,0,1,.53.2l2.71,1.62a.87.87,0,0,0,.88,0l2.78-1.28a.82.82,0,0,1,.9.07Z"/><path id="Path_614" data-name="Path 614" class="cls-4" d="M97.21,162.65a2,2,0,0,1-.09.76c-.23,1-.43,2-.65,2.93a.74.74,0,0,0,.2.69l2.19,2.36a.77.77,0,0,1,.19.84.75.75,0,0,1-.68.43l-3.19.3a.79.79,0,0,0-.68.44c-.52.93-1.06,1.86-1.58,2.79a.73.73,0,0,1-.94.39.74.74,0,0,1-.4-.45c-.43-1-.85-1.95-1.26-2.93a.78.78,0,0,0-.59-.52c-1.08-.22-2.16-.46-3.24-.66a.69.69,0,0,1-.59-.52.64.64,0,0,1,.21-.72l2.55-2.26a.64.64,0,0,0,.23-.59c-.12-1.06-.24-2.11-.38-3.16-.07-.6.2-1,.72-1a.91.91,0,0,1,.52.2c.9.53,1.81,1.07,2.71,1.62a.87.87,0,0,0,.88,0c.93-.43,1.86-.85,2.78-1.29a.84.84,0,0,1,.9.07Z"/></g></g></g><path id="Path_616" data-name="Path 616" class="cls-6" d="M147.78,62.41C115.48,24.41,76.42,14,59.3,35.85,38,63,66.83,95.73,72.61,109.55c4.61,11,1.69,28.21,13,46.7,10.46,17.13,43.11,32.95,71.56,11.06C193.91,139,180.07,100.42,147.78,62.41Zm5.58,99.53c-26.17,20.14-54.94,4.61-64.57-11.16-10.4-17-6.12-33.41-10.36-43.55C73.11,94.51,43.74,66,63.3,41,79.06,20.82,114.17,31.06,143.9,66S187.18,135.91,153.36,161.94Z"/><path id="Path_617" data-name="Path 617" class="cls-6" d="M170,153.73c5.14,2.69,12.27,7.76,15,11.65s10,14,14.41,9.8,6.47-11.35,1.36-13.4-6.63,4.52-14.33-3.58c-4.43-4.66-10.92-7.9-13.27-9.9S167.24,152.3,170,153.73Z"/><path id="Path_618" data-name="Path 618" class="cls-6" d="M107.08,174.36c1.33,3.34,11.82,26,10.3,30.78s-6.24,8.85-6.22,13,5.23,9.9,12.23,2.72,1.3-12.19-1.29-17.93c-4-8.94-3.24-24.12-3.07-26.24S105.39,170.1,107.08,174.36Z"/><path id="Path_619" data-name="Path 619" class="cls-6" d="M74.77,118.58c-4.08.15-20.31-2.91-27.3-9.26s-7-8.22-8-7.69-7.45,5.14-11.91-.35-1.53-10,1.53-12.14,9.09-1,11.33,1.37c5.1,5.41,9.23,13.19,15,16.94a43.88,43.88,0,0,0,18.37,5.82C75.85,113.28,79.56,118.41,74.77,118.58Z"/><path id="Path_620" data-name="Path 620" class="cls-6" d="M162.21,84.37c1.17-3.43,5-14.56,5.52-20.71.56-6.32.73-10.75-.25-10.87-4.18-.55-12.86-6-6.08-11.74s12.36-.07,12.83,6a100.79,100.79,0,0,1-.68,20.47c-1,7.5-4.19,21.26-6.19,22.55S161.07,87.73,162.21,84.37Z"/><rect id="Rectangle_8" data-name="Rectangle 8" class="cls-3" x="165.58" y="21.95" width="5.49" height="48.53" rx="1.03" transform="translate(6.75 112.26) rotate(-37.58)"/><path id="Path_621" data-name="Path 621" class="cls-3" d="M146,65.34c-1.49,4-20.79,46.71-23.61,48.59s-41.61-4-49.3-5.53c-2.34-.47-.58,3.29.51,4.72s39.14,5.82,47.24,5.23c-.78,2.64-2.26,7.37-2.13,7.68s2,3,2.25,2.42c.63-1.79,3.68-9.59,4.41-9.94a51.57,51.57,0,0,1,9,.59c1,.18,1.65-4.2.75-4.25-.72,0-3.32-.36-6.64-.5,5-7.25,20-42.92,21.58-46,.71-1.36,1.45-2.18,0-3.9C148.44,62.44,146.86,63,146,65.34Z"/><ellipse id="Ellipse_33" data-name="Ellipse 33" class="cls-6" cx="89.64" cy="54.5" rx="3.26" ry="3.51" transform="translate(-13.29 74.78) rotate(-42.45)"/><ellipse id="Ellipse_34" data-name="Ellipse 34" class="cls-6" cx="82.82" cy="61.54" rx="3.09" ry="3.46" transform="translate(-20.35 63.29) rotate(-37.58)"/><path id="Path_622" data-name="Path 622" class="cls-6" d="M99,53.69C97.88,54.13,82.34,70.56,86,73.42c1.08.86,13,5.07,19-2.93C111.26,62,100.14,53.24,99,53.69Zm2.73,14.2a8.71,8.71,0,0,1-11.92,2.8c-2.92-2.31,7.4-11.82,8.32-12.18s8.7,2.5,3.59,9.37Z"/><g id="Group_141" data-name="Group 141"><rect id="Rectangle_9" data-name="Rectangle 9" class="cls-7" x="130.41" y="18.73" width="4.72" height="15.23" rx="1.14" transform="translate(87.6 153.94) rotate(-81.72)"/><rect id="Rectangle_10" data-name="Rectangle 10" class="cls-7" x="142.99" y="2.21" width="4.72" height="15.22" rx="1.14" transform="translate(8.75 60.46) rotate(-24.21)"/><rect id="Rectangle_11" data-name="Rectangle 11" class="cls-7" x="150.21" y="6.74" width="14.09" height="4.72" rx="1.14" transform="translate(122.66 162.78) rotate(-80.63)"/><rect id="Rectangle_12" data-name="Rectangle 12" class="cls-7" x="135.78" y="11.87" width="4.72" height="11.41" rx="1.14" transform="translate(37.35 113.66) rotate(-50.88)"/></g><g id="Group_143" data-name="Group 143"><g class="cls-8"><g id="Group_142" data-name="Group 142"><path id="Path_623" data-name="Path 623" class="cls-3" d="M10.62,11.57c3.43,5.23,35.66,56,39.75,58.63S67.71,58.92,72.52,50.68,81,27.55,79.3,24.76,20.74,9.14,17.13,8.22C8.7,6.08,7.81,7.29,10.62,11.57Z"/><path id="Path_624" data-name="Path 624" class="cls-4" d="M56.56,41.8a3.12,3.12,0,0,1-.05,1.14c-.22,1.49-.4,3-.61,4.46a1.08,1.08,0,0,0,.38,1l3.55,3.26a1.12,1.12,0,0,1,.39,1.22,1.09,1.09,0,0,1-1,.73c-1.58.28-3.16.57-4.73.83a1.21,1.21,0,0,0-1,.74c-.66,1.46-1.35,2.91-2,4.36a1.07,1.07,0,0,1-2,.08q-1.12-2.1-2.24-4.23a1.14,1.14,0,0,0-.94-.69c-1.63-.2-3.27-.44-4.91-.59a1,1,0,0,1-.94-.7,1,1,0,0,1,.23-1.11l3.52-3.67a1,1,0,0,0,.27-.92c-.31-1.56-.61-3.12-.94-4.67-.18-.88.16-1.5.94-1.59a1.53,1.53,0,0,1,.81.23l4.23,2.09a1.26,1.26,0,0,0,1.31-.15c1.33-.76,2.68-1.5,4-2.25a1.23,1.23,0,0,1,1.35,0Z"/><path id="Path_625" data-name="Path 625" class="cls-4" d="M54.4,25.59a1.58,1.58,0,0,1-.28.53c-.45.66-.88,1.33-1.32,2a.56.56,0,0,0,0,.57L53.68,31a.61.61,0,0,1-.09.67.59.59,0,0,1-.63.12l-2.45-.69a.6.6,0,0,0-.62.13l-2,1.6a.56.56,0,0,1-.8,0,.57.57,0,0,1-.18-.44c0-.85-.06-1.69-.08-2.53a.62.62,0,0,0-.29-.55c-.73-.48-1.46-1-2.2-1.42a.57.57,0,0,1-.29-.55.51.51,0,0,1,.37-.47Q45.71,26.45,47,26a.49.49,0,0,0,.34-.38c.22-.81.43-1.63.64-2.44.11-.46.42-.68.81-.54a.74.74,0,0,1,.33.3l1.54,2a.64.64,0,0,0,.66.23c.81-.05,1.62-.09,2.42-.15a.65.65,0,0,1,.64.31Z"/><path id="Path_626" data-name="Path 626" class="cls-4" d="M35.66,4.22A3.16,3.16,0,0,1,36,5.3c.35,1.46.73,2.91,1.09,4.36a1.07,1.07,0,0,0,.72.79l4.5,1.72a1.12,1.12,0,0,1,.82,1,1.09,1.09,0,0,1-.62,1c-1.37.84-2.72,1.7-4.09,2.53a1.19,1.19,0,0,0-.61,1c-.08,1.6-.18,3.2-.26,4.8a1.08,1.08,0,0,1-1.84.82c-1.22-1-2.44-2.06-3.64-3.1A1.17,1.17,0,0,0,31,20c-1.59.42-3.2.81-4.78,1.27a1,1,0,0,1-1.13-.3,1,1,0,0,1-.2-1.11c.63-1.57,1.27-3.15,1.92-4.71a1,1,0,0,0-.1-1c-.86-1.33-1.72-2.66-2.6-4-.5-.75-.4-1.46.29-1.82a1.39,1.39,0,0,1,.83-.08l4.71.37A1.3,1.3,0,0,0,31.08,8C32,6.83,33,5.65,34,4.45A1.21,1.21,0,0,1,35.2,4Z"/></g></g></g></g></svg>