<svg id="Layer_1" data-name="Layer 1" xmlns="http://www.w3.org/2000/svg" xmlns:xlink="http://www.w3.org/1999/xlink" viewBox="0 0 265 48"><defs><style>.cls-1{fill:none;}.cls-2{clip-path:url(#clip-path);}.cls-3{fill:#f2f2f2;}.cls-4{opacity:0.66;}.cls-5{fill:#fff;opacity:0.99;isolation:isolate;}</style><clipPath id="clip-path"><path class="cls-1" d="M243.88,47.69H18.9a18,18,0,0,1-18-18v4.9h0V26.06h0V14.87C9.41,6.18,37.61-1.46,51.51.53,82.86,5,99.79,23.82,116.41,23.82c29.49,0,47.34-15.23,73.82-15.23,22.24,0,28,13.67,53.74,16.47,6.52.71,14.68-1.11,20.15-2.59v3.15h0v3.61C264.13,39.18,254.86,47.69,243.88,47.69Z"/></clipPath></defs><title>pro-footer</title><g id="Group_108" data-name="Group 108"><g class="cls-2"><g id="Group_107" data-name="Group 107"><path id="Path_513" data-name="Path 513" class="cls-3" d="M243.88,47.69H18.9a18,18,0,0,1-18-18v4.9h0V26.06h0V14.87C9.41,6.18,37.61-1.46,51.51.53,82.86,5,99.79,23.82,116.41,23.82c29.49,0,47.34-15.23,73.82-15.23,22.24,0,28,13.67,53.74,16.47,6.52.71,14.68-1.11,20.15-2.59v3.15h0v3.61C264.13,39.18,254.86,47.69,243.88,47.69Z"/><g id="Group_102" data-name="Group 102" class="cls-4"><g id="Group_99" data-name="Group 99"><path id="Path_514" data-name="Path 514" class="cls-5" d="M126.87,8.66a6.26,6.26,0,0,1-.14-.73v0c0-.48-.09-1-.1-1.45a17.85,17.85,0,0,0-.2-1.92c-.15-1-.43-1.91-.6-2.88,0-.2,0-.39,0-.59a1.81,1.81,0,0,0-.52-1.26,1.88,1.88,0,0,0-.58-.38,1.83,1.83,0,0,0-1.58-.95h-.49a8.79,8.79,0,0,0-1.14.11c-.31,0-.62.12-.92.18L119-.89c-1.06.24-2.14.47-3.18.78L115,.11a8.29,8.29,0,0,0-.83.31A2.52,2.52,0,0,0,113,1.51,3.64,3.64,0,0,0,112.62,3a5,5,0,0,0,0,1,7.92,7.92,0,0,0,.23,1.29l.21.69c.34,1.09.68,2.18,1,3.27.15.47.31.94.47,1.41a5.1,5.1,0,0,0,.39.9,2.18,2.18,0,0,0,.78.73,2.28,2.28,0,0,0,1.3.28,7.21,7.21,0,0,0,1.13-.19l.84-.23,1-.26c.54-.15,1.09-.28,1.63-.42,1-.24,2-.46,3-.66l.75-.14a4.27,4.27,0,0,0,1.06-.29,1.16,1.16,0,0,0,.53-.73,1.66,1.66,0,0,0,0-.32,2.84,2.84,0,0,0-.1-.64Zm-1.42.13h0Zm-1-1.67c.11.39.2.79.3,1.19a5.37,5.37,0,0,0,.21.56c-1,.18-2,.43-3,.66L120,10c-.83.2-1.66.45-2.5.6l-.44,0a18.75,18.75,0,0,0-.4-2.79c-.12-.57-.25-1.14-.38-1.71s-.31-1.22-.42-1.83a4.93,4.93,0,0,1,0-.86l.5-.1.86-.17L119,2.78l1.82-.39,1.44-.29h.11c0,.1,0,.19.09.29a8.73,8.73,0,0,0,.47,1.09c.25.51.52,1,.77,1.51.28.7.5,1.41.71,2.13Zm-7.31,3.62,0-.07Zm0,0s0,0,0,0h0Zm0-.17h0v0Zm-.13,0-.09,0ZM116,3.06h0Zm-.45.45,0,0Z"/><path id="Path_515" data-name="Path 515" class="cls-5" d="M92.8,11.37a11.15,11.15,0,0,0-.35-2c-.13-.51-.28-1-.42-1.54l-.36-1.48A11.58,11.58,0,0,0,91.25,5a4.53,4.53,0,0,0-1.13-2.18,1.7,1.7,0,0,0-1.22-.52l-.05,0-.41-.17a1.72,1.72,0,0,0-.9,0c-1.16.2-2.33.41-3.49.64-.55.11-1.1.21-1.64.33-.25,0-.49.11-.74.18a2.58,2.58,0,0,0-.84.39l-.34.26a4.59,4.59,0,0,0-.33.44,2,2,0,0,0-.27.83,5.91,5.91,0,0,0-.08,1.33A9,9,0,0,0,80,7.82c.07.34.16.68.24,1s.24.95.36,1.42a29.56,29.56,0,0,0,.83,3c.09.24.2.48.31.72a3.12,3.12,0,0,0,.56.8,2.16,2.16,0,0,0,.27.25,4.19,4.19,0,0,0,.59.42,3.71,3.71,0,0,0,1.6.43,5,5,0,0,0,1.34-.11l.66-.12,1-.21c.53-.12,1.06-.27,1.59-.41s.91-.25,1.36-.41a7.61,7.61,0,0,0,.93-.39,2.48,2.48,0,0,0,.88-.76,2.39,2.39,0,0,0,.38-1.27V12.1c0-.24,0-.49-.06-.72Zm-2.07.38-.06.05h0Zm-.44.13c-.24,0-.49.08-.74.12l-1.2.19c-.81.14-1.62.31-2.44.44a5.42,5.42,0,0,1-.9,0H85l0,0s0,0,0-.08c-.14-.39-.24-.79-.34-1.19s-.26-1-.4-1.47-.31-1.1-.47-1.64a18.92,18.92,0,0,1-.48-1.83.53.53,0,0,0,0-.13l.61-.11c.43-.09.86-.16,1.29-.24l2.49-.45c.22.38.48.74.71,1.12a16.29,16.29,0,0,1,.84,1.67l.27.64c.15.37.29.74.44,1.1a7.88,7.88,0,0,1,.35,1.17c0,.18.07.37.1.56a.77.77,0,0,1,0,.15Zm-5.17.86h0Z"/><path id="Path_516" data-name="Path 516" class="cls-5" d="M108.88,24.43a1.24,1.24,0,0,0-1-.1v0a.88.88,0,0,0-.61-1.07q-2.55-.54-5.11-1a8.68,8.68,0,0,0-1.6-.22,1.26,1.26,0,0,0-.66.15l-.32.24a1,1,0,0,0-.25.43,2.87,2.87,0,0,0-.13.71,4.21,4.21,0,0,0,0,.94c.07.69.22,1.37.35,2.05.06.31.1.61.15.93s.06.52.1.78a7.42,7.42,0,0,0,.27,1.48,2.28,2.28,0,0,0,2,1.57,1.85,1.85,0,0,0,1.08-.32l.55-.37,1.55-1.07c.33-.23.64-.5,1-.74l.57-.45c.37-.27.73-.55,1.11-.81l.67-.45a5.32,5.32,0,0,0,.46-.37l.09-.12a1.23,1.23,0,0,0,.34-.58,1.41,1.41,0,0,0,.09-.49v0a1.27,1.27,0,0,0-.62-1.05Zm-5.15-.14,3.06.62.14,0c-.24.21-.45.44-.67.66l-1,1c-.33.32-.65.62-1,.92s-.66.57-1,.85l-.54.4c-.17.13-.33.26-.51.38l0-.05a8.52,8.52,0,0,1-.25-1.22c-.06-.32-.11-.64-.17-1s-.14-.67-.22-1c-.13-.56-.28-1.13-.37-1.71a2.11,2.11,0,0,1,0-.26l.53.06c.67.1,1.36.2,2,.33Z"/><path id="Path_517" data-name="Path 517" class="cls-5" d="M136.49,31.43v-.05l0-.57a7,7,0,0,0-.1-1c-.08-.52-.22-1-.31-1.54a3.18,3.18,0,0,0-.06-.43,1.45,1.45,0,0,0-.06-.41,1.64,1.64,0,0,0-.75-1h0a1.77,1.77,0,0,0-.45-.18,1.47,1.47,0,0,0-1.31-.78c-1.8.2-3.6.41-5.39.67-.74.1-1.48.2-2.22.32a4,4,0,0,0-1.21.41,1.92,1.92,0,0,0-1,1.65,3.83,3.83,0,0,0,.55,1.57c.15.37.3.75.44,1.13.22.57.43,1.15.69,1.71a2.55,2.55,0,0,0,1.58,1.18,3.9,3.9,0,0,0,1.7,0c.65-.07,1.31-.16,2-.25,1-.15,2-.3,3-.48l1.51-.25.68-.1a1.28,1.28,0,0,0,.7-.34,1,1,0,0,0,.27-.47,1.13,1.13,0,0,0,0-.25,1.19,1.19,0,0,0-.14-.56Zm0-.12s0,0,0-.07Zm-3.73-2.74a3.93,3.93,0,0,0,.36.78c.19.32.39.64.56,1s.35.69.52,1l-.82.16-1.75.29-1.7.2c-.29,0-.58.08-.88.1a9.52,9.52,0,0,1-1.41.07l-.19-.12a15.2,15.2,0,0,0-.36-1.88c-.06-.28-.13-.57-.21-.85l.29-.05.9-.14,1.53-.24,3.14-.38,0,.06Zm-1.27,3.24h0Zm-3.73.38h0Zm-.19,0-.1,0Zm-.06,0,0,0Z"/><path id="Path_518" data-name="Path 518" class="cls-5" d="M155.54,6a1.84,1.84,0,0,0-1.74-1.32,18.91,18.91,0,0,0-2.3-1c-.7-.3-1.4-.6-2.11-.88a3.26,3.26,0,0,0-.68-.25,1.51,1.51,0,0,0-1.23.25,1.85,1.85,0,0,0-.53.55,4,4,0,0,0-.2.35c-.12.23-.21.48-.31.72a5,5,0,0,0-.33,1.79c0,.47,0,.94,0,1.4a8.43,8.43,0,0,0,.1,1,1.79,1.79,0,0,0,1.86,1.54,9.31,9.31,0,0,0,1.28-.24,5.6,5.6,0,0,0,.7-.2c.5-.15,1-.34,1.48-.51a19.88,19.88,0,0,0,3.15-1.17,1.8,1.8,0,0,0,.83-2Zm-5.19-.71,1.25.47-.12.07c-.57.33-1.16.6-1.75.87l-.65.26c0-.07,0-.15,0-.23a10.41,10.41,0,0,1,0-1.58,1.84,1.84,0,0,1,.05-.25,8.92,8.92,0,0,1,1.24.39Z"/><path id="Path_519" data-name="Path 519" class="cls-5" d="M87.56,37.92a3.21,3.21,0,0,0-.26-.67l-.09-.16a4.63,4.63,0,0,0-.52-.65,4.23,4.23,0,0,0-2-1.14,8.71,8.71,0,0,0-1.26-.2H83a5,5,0,0,0-.56.09,1.16,1.16,0,0,0-.38.15l-.3,0a2.21,2.21,0,0,0-1,.55,3,3,0,0,0-.47.6,2.68,2.68,0,0,0-.37,1.2,3,3,0,0,0,.1,1.11,6.24,6.24,0,0,0,.41,1.09,3.51,3.51,0,0,0,.74,1,3.78,3.78,0,0,0,.81.62,3.73,3.73,0,0,0,.78.31,4.32,4.32,0,0,0,1.24.17,4.53,4.53,0,0,0,.91-.1,2.64,2.64,0,0,0,.48-.14,3,3,0,0,0,.62-.31,4.41,4.41,0,0,0,.58-.47,8.06,8.06,0,0,0,.52-.64,1.58,1.58,0,0,0,.21-.38,3,3,0,0,0,.23-.66,4.41,4.41,0,0,0,.08-.72v0c0-.23-.05-.47-.09-.7Zm-3.29,1v0Zm-.34,0,.23.23-.07.1h0l-.11.07a2.44,2.44,0,0,1-.26.06,1.14,1.14,0,0,1-.32,0,2,2,0,0,1-.23-.06l-.1-.06c-.11-.1-.22-.2-.31-.3a5.36,5.36,0,0,1-.34-.62l-.06-.2a3.09,3.09,0,0,0,.54.17l.5.13.17.1.38.37Z"/><path id="Path_520" data-name="Path 520" class="cls-5" d="M151.75,29.33a1.84,1.84,0,0,0-.27-.34,1.85,1.85,0,0,0-.06-.57l-.16-.39a1.64,1.64,0,0,0-.59-.58,5.25,5.25,0,0,0-1.51-.72,6.89,6.89,0,0,0-1.18-.25,3.24,3.24,0,0,0-3.22,1.69,3.09,3.09,0,0,0-.34,1.69,5.32,5.32,0,0,0,.24,1.12,5.6,5.6,0,0,0,.67,1.42,4.25,4.25,0,0,0,3.45,2,4.46,4.46,0,0,0,1-.12,3,3,0,0,0,1.36-.65,3.05,3.05,0,0,0,.85-1.5,6.1,6.1,0,0,0,.17-.95,2.26,2.26,0,0,0,0-.26,3.21,3.21,0,0,0-.45-1.57Zm-2.54,2,0,0Zm-.38.13h0a.6.6,0,0,1-.19-.06,3.07,3.07,0,0,1-.31-.17c-.06,0-.1-.1-.16-.16a4.09,4.09,0,0,1-.25-.46,6.28,6.28,0,0,1-.23-.85h.1a5,5,0,0,1,.78.22h0l0,.22a1.73,1.73,0,0,0,.16.74c.05.15.09.3.13.46v.05Z"/><path id="Path_521" data-name="Path 521" class="cls-5" d="M131.91,49.77c-1-.9-2-1.79-3.07-2.68l-.82-.7a5.16,5.16,0,0,0-1.92-1.15,1.46,1.46,0,0,0-.51,0,1.8,1.8,0,0,0-.69.17,1.5,1.5,0,0,0-.71.78,6.84,6.84,0,0,0-.35,1.17c-.12.51-.22,1-.36,1.52s-.3.92-.46,1.37a1.67,1.67,0,0,0-.12.62,1.59,1.59,0,0,0,.18.77,2.25,2.25,0,0,0,.34.41,3.27,3.27,0,0,0,.48.35,2.62,2.62,0,0,0,.86.36,8.52,8.52,0,0,0,.87.08c.58,0,1.17,0,1.75,0a18.1,18.1,0,0,0,2.85-.16,1.26,1.26,0,0,0,.33-.05l.4-.07A1.61,1.61,0,0,0,132.13,51a1.25,1.25,0,0,0,.11-.5,1,1,0,0,0-.32-.77Zm-3.78-.34.39.33-.14,0c-.37.09-.74.16-1.11.22l-.89.09-.7,0v0a7.06,7.06,0,0,0,.28-.89c.09-.33.16-.66.22-1,0-.12,0-.23.07-.35l.18.13c.58.45,1.14.94,1.69,1.42Zm-2.25-1.87Zm-.14,0h0Z"/><path id="Path_523" data-name="Path 523" class="cls-5" d="M153.1,52.54c.1-.43.22-.86.33-1.3,0-.22.11-.44.16-.67,0-.06,0-.12,0-.18a3.56,3.56,0,0,0,.07-.52c0-.15,0-.3,0-.46a1.56,1.56,0,0,0-.77-1.34h0a1.07,1.07,0,0,0,0-.25,1.26,1.26,0,0,0-1.25-1.25c-1.25,0-2.5-.12-3.74-.1a4.9,4.9,0,0,0-1,.11,2.32,2.32,0,0,0-.53.24,1.47,1.47,0,0,0-.52.56,2.75,2.75,0,0,0-.24.68l-.09.34c-.14.51-.25,1-.37,1.54a12.58,12.58,0,0,0-.33,1.71,8.45,8.45,0,0,0,0,1.59m2.11.37c0-.25,0-.5,0-.74s0-.36,0-.54.11-.61.17-.91.19-.7.28-1.05.18-.69.26-1l.12-.42c.29,0,.58,0,.86,0l.92,0,1,0a5.63,5.63,0,0,0-.1.91,1.93,1.93,0,0,0,0,.24h0l.09.88c0,.58.12,1.17.14,1.75"/></g><g id="Group_101" data-name="Group 101"><g id="Group_100" data-name="Group 100"><path id="Path_524" data-name="Path 524" class="cls-5" d="M39.11,8.66c-.06-.24-.11-.49-.15-.73v0c0-.48-.08-1-.1-1.45a15.63,15.63,0,0,0-.2-1.92c-.14-1-.42-1.91-.6-2.88a5.83,5.83,0,0,1,0-.59A1.87,1.87,0,0,0,37.5-.19a1.84,1.84,0,0,0-.57-.38,1.85,1.85,0,0,0-1.59-.95h-.49a8.48,8.48,0,0,0-1.13.11c-.31,0-.62.12-.93.18l-1.6.35c-1.06.24-2.13.47-3.18.78l-.77.22a8.11,8.11,0,0,0-.82.31,2.52,2.52,0,0,0-1.17,1.09A3.48,3.48,0,0,0,24.86,3a5,5,0,0,0,0,1,7.92,7.92,0,0,0,.23,1.29c.06.23.14.46.21.69.33,1.09.68,2.18,1,3.27l.48,1.41a4.42,4.42,0,0,0,.38.9,2.21,2.21,0,0,0,.79.73,2.28,2.28,0,0,0,1.3.28,6.89,6.89,0,0,0,1.12-.19l.85-.23,1-.26c.54-.15,1.09-.28,1.63-.42,1-.24,2-.46,3-.66l.74-.14a4.34,4.34,0,0,0,1.07-.29,1.11,1.11,0,0,0,.52-.73,1.12,1.12,0,0,0,0-.32,2.84,2.84,0,0,0-.1-.64Zm-1.43.13h0Zm-1-1.67c.11.39.2.79.3,1.19a2.92,2.92,0,0,0,.21.56c-1,.18-2,.43-3,.66L32.2,10c-.83.2-1.65.45-2.49.6l-.44,0a20.16,20.16,0,0,0-.4-2.79c-.13-.57-.25-1.14-.39-1.71s-.3-1.22-.42-1.83a8.19,8.19,0,0,1,0-.86l.5-.1.86-.17,1.81-.37,1.83-.39,1.44-.29h.11c0,.1,0,.19.08.29a8.73,8.73,0,0,0,.47,1.09c.26.51.53,1,.78,1.51.27.7.5,1.41.71,2.13Zm-7.31,3.62,0-.07Zm0,0,0,0h0Zm-.06-.17h0v0Zm-.13,0-.08,0Zm-.93-7.52h0Zm-.45.45-.05,0Z"/><path id="Path_525" data-name="Path 525" class="cls-5" d="M5,11.37a12.15,12.15,0,0,0-.35-2c-.14-.51-.29-1-.42-1.54L3.91,6.38A13.64,13.64,0,0,0,3.49,5,4.53,4.53,0,0,0,2.36,2.78a1.7,1.7,0,0,0-1.22-.52l0,0L.68,2.05a1.72,1.72,0,0,0-.9,0c-1.17.2-2.33.41-3.49.64-.55.11-1.1.21-1.64.33-.25,0-.5.11-.74.18a2.58,2.58,0,0,0-.84.39l-.34.26a4.59,4.59,0,0,0-.33.44,2,2,0,0,0-.27.83,5.38,5.38,0,0,0-.08,1.33,7.94,7.94,0,0,0,.2,1.37q.11.51.24,1c.11.48.24.95.36,1.42a29.56,29.56,0,0,0,.83,3c.09.24.2.48.31.72a3.35,3.35,0,0,0,.55.8l.28.25a5.19,5.19,0,0,0,.59.42,3.71,3.71,0,0,0,1.6.43,5,5,0,0,0,1.34-.11c.22,0,.44-.07.65-.12l1-.21c.53-.12,1.06-.27,1.58-.41s.92-.25,1.37-.41a8.33,8.33,0,0,0,.93-.39,2.48,2.48,0,0,0,.88-.76,2.48,2.48,0,0,0,.38-1.27V12.1A5.66,5.66,0,0,0,5,11.38ZM3,11.75l-.06.05h0L3,11.75Zm-.44.13c-.24,0-.49.08-.74.12l-1.2.19c-.81.14-1.63.31-2.44.44a5.42,5.42,0,0,1-.9,0h-.06l0,0,0-.08c-.14-.39-.24-.79-.34-1.19s-.26-1-.4-1.47-.31-1.1-.47-1.64A18.92,18.92,0,0,1-4.58,6.4a.53.53,0,0,0,0-.13L-4,6.16l1.29-.24L-.2,5.47c.22.38.48.74.71,1.12a16.29,16.29,0,0,1,.84,1.67l.27.64c.15.37.29.74.44,1.1a7.88,7.88,0,0,1,.35,1.17c0,.18.07.37.1.56a.77.77,0,0,1,0,.15Zm-5.17.86h0Z"/><path id="Path_526" data-name="Path 526" class="cls-5" d="M21.11,24.43a1.22,1.22,0,0,0-1-.1v0a.86.86,0,0,0-.6-1.07c-1.7-.36-3.41-.7-5.11-1a8.79,8.79,0,0,0-1.6-.22,1.32,1.32,0,0,0-.67.15l-.31.24a.94.94,0,0,0-.25.43,2.88,2.88,0,0,0-.14.71,4.21,4.21,0,0,0,0,.94c.07.69.22,1.37.35,2.05.05.31.1.61.14.93s.07.52.1.78a6.79,6.79,0,0,0,.28,1.48,2.27,2.27,0,0,0,2,1.57A1.9,1.9,0,0,0,15.35,31l.55-.37c.52-.35,1-.71,1.54-1.07.33-.23.65-.5,1-.74l.58-.45c.36-.27.73-.55,1.11-.81l.66-.45c.16-.11.31-.24.47-.37l.09-.12a1.31,1.31,0,0,0,.34-.58,1.2,1.2,0,0,0,.08-.49v0a1.22,1.22,0,0,0-.62-1.05ZM16,24.29l3,.62.14,0c-.23.21-.45.44-.66.66l-1,1-1,.92c-.33.3-.66.57-1,.85l-.53.4-.51.38,0-.05a7.34,7.34,0,0,1-.25-1.22c-.06-.32-.11-.64-.17-1s-.14-.67-.22-1c-.13-.56-.28-1.13-.38-1.71,0-.08,0-.17,0-.26l.52.06c.68.1,1.36.2,2,.33Z"/><path id="Path_527" data-name="Path 527" class="cls-5" d="M48.73,31.43v-.05l0-.57a7,7,0,0,0-.1-1c-.08-.52-.22-1-.31-1.54a3.18,3.18,0,0,0-.06-.43,1.45,1.45,0,0,0-.06-.41,1.6,1.6,0,0,0-.75-1h0a2,2,0,0,0-.46-.18,1.47,1.47,0,0,0-1.31-.78c-1.8.2-3.6.41-5.39.67-.74.1-1.48.2-2.22.32a4,4,0,0,0-1.21.41,1.92,1.92,0,0,0-1,1.65,3.83,3.83,0,0,0,.55,1.57c.15.37.3.75.44,1.13.22.57.43,1.15.69,1.71A2.55,2.55,0,0,0,39,34.09a3.9,3.9,0,0,0,1.7,0c.65-.07,1.31-.16,2-.25,1-.15,2-.3,3-.48l1.51-.25.68-.1a1.28,1.28,0,0,0,.7-.34.9.9,0,0,0,.27-.47,1.13,1.13,0,0,0,0-.25,1.19,1.19,0,0,0-.14-.56Zm0-.12s0,0,0-.07ZM45,28.57a4.58,4.58,0,0,0,.36.78c.19.32.39.64.56,1l.53,1-.83.16-1.75.29-1.7.2c-.29,0-.58.08-.88.1a9.52,9.52,0,0,1-1.41.07l-.19-.12a15.2,15.2,0,0,0-.36-1.88c-.06-.28-.13-.57-.21-.85l.29-.05.9-.14,1.53-.24L45,28.51s0,0,0,.06ZM43.7,31.81h0ZM40,32.19h0Zm-.18,0-.1,0Zm-.07,0,0,0Z"/><path id="Path_528" data-name="Path 528" class="cls-5" d="M67.78,6A1.84,1.84,0,0,0,66,4.71a18.91,18.91,0,0,0-2.3-1c-.7-.3-1.4-.6-2.11-.88A3.26,3.26,0,0,0,61,2.56a1.57,1.57,0,0,0-1.23.25,1.89,1.89,0,0,0-.54.55,3.9,3.9,0,0,0-.19.35c-.12.23-.21.48-.31.72a5,5,0,0,0-.33,1.79c0,.47,0,.94,0,1.4s.05.68.1,1a1.81,1.81,0,0,0,1.87,1.54,9.31,9.31,0,0,0,1.28-.24,5.6,5.6,0,0,0,.7-.2c.5-.15,1-.34,1.47-.51A19.64,19.64,0,0,0,67,8.05a1.76,1.76,0,0,0,.89-1.56A1.47,1.47,0,0,0,67.77,6Zm-5.19-.71,1.25.47-.12.07c-.57.33-1.16.6-1.75.87L61.32,7c0-.07,0-.15,0-.23a10.41,10.41,0,0,1,0-1.58c0-.09,0-.17,0-.25a9.05,9.05,0,0,1,1.25.39Z"/><path id="Path_530" data-name="Path 530" class="cls-5" d="M64,29.33a1.5,1.5,0,0,0-.27-.34,1.84,1.84,0,0,0-.05-.57L63.49,28a1.56,1.56,0,0,0-.59-.58,5.25,5.25,0,0,0-1.51-.72,6.69,6.69,0,0,0-1.18-.25A3.22,3.22,0,0,0,57,28.17a3,3,0,0,0-.35,1.69A7,7,0,0,0,56.89,31a6,6,0,0,0,.67,1.42,4.25,4.25,0,0,0,3.45,2,4.46,4.46,0,0,0,1-.12,3,3,0,0,0,1.36-.65,3.05,3.05,0,0,0,.85-1.5,6.1,6.1,0,0,0,.17-.95,2.26,2.26,0,0,0,0-.26A3.11,3.11,0,0,0,64,29.33Zm-2.54,2,0,0Zm-.37.13h0a.7.7,0,0,1-.19-.06,3.07,3.07,0,0,1-.31-.17l-.15-.16a4.17,4.17,0,0,1-.26-.46,8.19,8.19,0,0,1-.23-.85H60a5.2,5.2,0,0,1,.77.22h0l0,.22a1.73,1.73,0,0,0,.16.74,3.47,3.47,0,0,1,.13.46v.05Z"/><path id="Path_531" data-name="Path 531" class="cls-5" d="M44.15,49.77c-1-.9-2-1.79-3.07-2.68l-.83-.7a5.12,5.12,0,0,0-1.91-1.15,1.51,1.51,0,0,0-.52,0,1.75,1.75,0,0,0-.68.17,1.5,1.5,0,0,0-.71.78,6.05,6.05,0,0,0-.35,1.17c-.12.51-.22,1-.36,1.52s-.3.92-.47,1.37a1.88,1.88,0,0,0-.11.62,1.48,1.48,0,0,0,.18.77,2.25,2.25,0,0,0,.34.41,3.27,3.27,0,0,0,.48.35,2.62,2.62,0,0,0,.86.36,8.52,8.52,0,0,0,.87.08c.58,0,1.16,0,1.75,0a18.1,18.1,0,0,0,2.85-.16,1.26,1.26,0,0,0,.33-.05l.4-.07A1.61,1.61,0,0,0,44.37,51a1.25,1.25,0,0,0,.11-.5,1,1,0,0,0-.32-.77Zm-3.78-.34.39.33-.14,0c-.37.09-.74.15-1.11.22l-.89.09-.7,0v0a9.43,9.43,0,0,0,.29-.9q.12-.49.21-1c0-.11,0-.23.07-.35l.18.13c.58.46,1.14.94,1.69,1.42Zm-2.25-1.87Zm-.15,0h0Z"/><path id="Path_533" data-name="Path 533" class="cls-5" d="M65.33,52.54c.1-.43.23-.86.34-1.3,0-.22.11-.44.16-.67,0-.06,0-.12,0-.18a3.56,3.56,0,0,0,.07-.52c0-.15,0-.3,0-.46a1.58,1.58,0,0,0-.77-1.34h0a1.07,1.07,0,0,0,0-.25,1.27,1.27,0,0,0-1.25-1.25c-1.25,0-2.5-.12-3.74-.1a4.9,4.9,0,0,0-1,.11,2.32,2.32,0,0,0-.53.24,1.47,1.47,0,0,0-.52.56,2.13,2.13,0,0,0-.24.68l-.09.34c-.14.51-.25,1-.38,1.54a14.29,14.29,0,0,0-.32,1.71,7.69,7.69,0,0,0,0,1.59m2.11.37c0-.25,0-.5,0-.74s0-.36,0-.54.11-.61.17-.91.18-.7.27-1.05.18-.69.27-1l.12-.42c.29,0,.57,0,.86,0l.92,0,1,0a5.63,5.63,0,0,0-.1.91,1.93,1.93,0,0,0,0,.24h0l.09.88c0,.58.11,1.17.14,1.75"/></g></g></g><g id="Group_106" data-name="Group 106" class="cls-4"><g id="Group_103" data-name="Group 103"><path id="Path_534" data-name="Path 534" class="cls-5" d="M256.48,12.49a12,12,0,0,0-.35-2c-.14-.51-.29-1-.42-1.54s-.24-1-.36-1.48a14.59,14.59,0,0,0-.42-1.43,4.58,4.58,0,0,0-1.13-2.18,1.79,1.79,0,0,0-1.22-.52l-.05,0-.41-.17a1.72,1.72,0,0,0-.9,0c-1.17.19-2.33.41-3.49.63l-1.64.34c-.25.05-.5.11-.74.18a2.58,2.58,0,0,0-.84.39l-.34.26a4.46,4.46,0,0,0-.33.43,2.08,2.08,0,0,0-.27.83,6,6,0,0,0-.09,1.34,10.77,10.77,0,0,0,.2,1.37c.07.34.16.68.24,1s.25.94.36,1.42c.23,1,.51,2,.84,3,.08.25.2.49.3.73a3.71,3.71,0,0,0,.56.8,2.09,2.09,0,0,0,.28.24,4.83,4.83,0,0,0,.58.43,3.89,3.89,0,0,0,1.6.43,5.56,5.56,0,0,0,1.35-.11c.22,0,.44-.07.65-.12l.95-.22c.54-.12,1.06-.27,1.59-.41s.92-.24,1.36-.4a9.82,9.82,0,0,0,.94-.4,2.25,2.25,0,0,0,.87-.75,2.31,2.31,0,0,0,.38-1.28v-.13c0-.24,0-.48-.06-.72Zm-2.07.38-.07.05h0ZM254,13l-.74.12-1.2.19c-.82.14-1.63.31-2.45.43a5.38,5.38,0,0,1-.9,0h-.05l0,0a.56.56,0,0,0-.05-.08c-.13-.39-.23-.79-.34-1.19s-.26-1-.4-1.48-.31-1.09-.46-1.63-.36-1.22-.48-1.84c0,0,0-.08,0-.12l.61-.12L248.75,7l2.49-.44c.22.38.48.73.7,1.11a13.73,13.73,0,0,1,.84,1.67l.27.65c.15.36.3.73.44,1.1a7.91,7.91,0,0,1,.36,1.17c0,.18.07.36.1.55s0,.11,0,.16Zm-5.17.86,0,0Z"/><path id="Path_537" data-name="Path 537" class="cls-5" d="M251.23,39a2.59,2.59,0,0,0-.26-.67.8.8,0,0,0-.08-.16,3.74,3.74,0,0,0-.53-.66,4.22,4.22,0,0,0-2-1.14,10.47,10.47,0,0,0-1.25-.19,2.81,2.81,0,0,0-.41,0,3.72,3.72,0,0,0-.57.08,1.4,1.4,0,0,0-.38.16,1.54,1.54,0,0,0-.3,0,2.24,2.24,0,0,0-1,.54,3.36,3.36,0,0,0-.47.6,2.85,2.85,0,0,0-.37,1.2,3.26,3.26,0,0,0,.1,1.12,7.1,7.1,0,0,0,.42,1.08,3.2,3.2,0,0,0,.73,1,4.89,4.89,0,0,0,.81.63,4.37,4.37,0,0,0,.78.31,4.83,4.83,0,0,0,1.25.17,5.51,5.51,0,0,0,.91-.1,2.54,2.54,0,0,0,.47-.14,2.8,2.8,0,0,0,.62-.32,2.91,2.91,0,0,0,.58-.47,6.21,6.21,0,0,0,.52-.63,1.87,1.87,0,0,0,.22-.39,3.15,3.15,0,0,0,.23-.65,4.39,4.39,0,0,0,.07-.72v0a4.06,4.06,0,0,0-.09-.7Zm-3.29,1v0Zm-.33,0,.23.22-.07.1h0l-.11.06-.27.07a1.07,1.07,0,0,1-.31,0l-.24-.06-.1-.07c-.1-.09-.21-.19-.31-.3a5.92,5.92,0,0,1-.33-.61,1.59,1.59,0,0,1-.07-.2,5,5,0,0,0,.55.17l.5.12.17.1.37.38Z"/></g><g id="Group_105" data-name="Group 105"><g id="Group_104" data-name="Group 104"><path id="Path_540" data-name="Path 540" class="cls-5" d="M202.79,9.77c-.06-.24-.11-.48-.15-.73h0c0-.49-.08-1-.1-1.45a15.23,15.23,0,0,0-.2-1.92c-.14-1-.42-1.92-.6-2.88,0-.2,0-.4,0-.59a1.78,1.78,0,0,0-.52-1.26,1.7,1.7,0,0,0-.57-.39A1.86,1.86,0,0,0,199-.4h-.49a7.33,7.33,0,0,0-1.14.11c-.31,0-.61.11-.92.18-.54.1-1.06.22-1.6.34-1.06.25-2.13.48-3.18.78l-.77.23a8.29,8.29,0,0,0-.83.31,2.62,2.62,0,0,0-1.17,1.09,3.47,3.47,0,0,0-.38,1.44,5,5,0,0,0,0,1,9.74,9.74,0,0,0,.24,1.29c.06.23.13.46.2.69.34,1.09.68,2.18,1,3.26.16.47.32.94.47,1.41a4.8,4.8,0,0,0,.39.9,2.23,2.23,0,0,0,2.09,1,6.1,6.1,0,0,0,1.12-.19c.29-.06.56-.15.84-.23l1-.26,1.63-.41c1-.24,2-.47,2.95-.66l.75-.14a4.36,4.36,0,0,0,1.07-.3,1.09,1.09,0,0,0,.52-.73,1.05,1.05,0,0,0,0-.31,2.38,2.38,0,0,0-.1-.65Zm-1.43.13h0Zm-1-1.66c.11.39.2.79.3,1.18a2.78,2.78,0,0,0,.21.57c-1,.17-2,.43-3.05.66l-1.9.45c-.83.2-1.65.46-2.49.6a3.39,3.39,0,0,1-.45,0,17.57,17.57,0,0,0-.4-2.78c-.12-.57-.25-1.15-.38-1.72s-.31-1.21-.42-1.82a6.17,6.17,0,0,1,0-.86l.5-.1.86-.17,1.81-.38,1.82-.38c.48-.1,1-.21,1.45-.29h.1l.09.29a8.14,8.14,0,0,0,.47,1.09c.26.51.53,1,.78,1.52.27.7.5,1.41.71,2.13ZM193,11.85l-.06-.07Zm0,.05,0-.06h0Zm-.06-.17h0v0Zm-.13,0-.08,0Zm-.93-7.52v0Zm-.45.45,0,0Z"/><path id="Path_541" data-name="Path 541" class="cls-5" d="M168.71,12.49a11,11,0,0,0-.34-2c-.14-.51-.29-1-.42-1.54s-.24-1-.36-1.48-.26-1-.42-1.43A4.58,4.58,0,0,0,166,3.89a1.81,1.81,0,0,0-1.22-.52l-.06,0-.4-.17a1.72,1.72,0,0,0-.9,0c-1.17.19-2.33.41-3.49.63l-1.65.34c-.24.05-.49.11-.73.18a2.73,2.73,0,0,0-.85.39l-.33.26a4.46,4.46,0,0,0-.33.43,2.08,2.08,0,0,0-.27.83,6,6,0,0,0-.09,1.34,9.24,9.24,0,0,0,.2,1.37c.07.34.16.68.24,1l.36,1.42c.23,1,.51,2,.83,3,.09.25.2.49.31.73a3.71,3.71,0,0,0,.56.8,2.09,2.09,0,0,0,.28.24,4.83,4.83,0,0,0,.58.43,3.89,3.89,0,0,0,1.6.43,5.56,5.56,0,0,0,1.35-.11c.22,0,.44-.07.65-.12l.95-.22c.54-.12,1.06-.27,1.59-.41s.92-.24,1.36-.4.63-.25.94-.4a2.25,2.25,0,0,0,.87-.75,2.31,2.31,0,0,0,.38-1.28v-.13c0-.24,0-.48-.06-.72Zm-2.06.38-.07.05h0l.07-.05Zm-.44.13-.74.12-1.2.19c-.82.14-1.63.31-2.45.43a5.43,5.43,0,0,1-.9,0h0l0,0-.05-.08c-.13-.39-.23-.79-.34-1.19s-.26-1-.4-1.48-.3-1.09-.46-1.63-.36-1.22-.48-1.84c0,0,0-.08,0-.12l.61-.12L161,7l2.49-.44c.22.38.48.73.7,1.11A13.73,13.73,0,0,1,165,9.37c.09.22.18.43.28.65s.29.73.43,1.1a7.91,7.91,0,0,1,.36,1.17c0,.18.07.36.1.55s0,.11,0,.16Zm-5.17.86,0,0Z"/><path id="Path_542" data-name="Path 542" class="cls-5" d="M184.79,25.54a1.26,1.26,0,0,0-1-.1v0a.87.87,0,0,0-.61-1.07q-2.55-.53-5.11-1a9.48,9.48,0,0,0-1.6-.22,1.27,1.27,0,0,0-.66.16,3.55,3.55,0,0,0-.31.23.94.94,0,0,0-.25.43,3.06,3.06,0,0,0-.14.72,3.61,3.61,0,0,0,0,.93c.07.69.22,1.38.34,2.05.06.31.1.62.15.93s.07.52.1.78a6.87,6.87,0,0,0,.28,1.49,2.27,2.27,0,0,0,2,1.57,2,2,0,0,0,1.08-.32l.54-.37,1.55-1.07c.33-.23.64-.5,1-.75l.57-.44q.56-.42,1.11-.81l.67-.46c.16-.11.31-.24.46-.36l.1-.12a1.31,1.31,0,0,0,.34-.58,1.69,1.69,0,0,0,.08-.5v0a1.25,1.25,0,0,0-.62-1.06Zm-5.14-.13,3,.62.14,0-.67.67-1,1-1,.91c-.34.31-.67.58-1,.86l-.54.4c-.16.12-.33.25-.51.37l0,0a8.4,8.4,0,0,1-.26-1.23c-.05-.31-.1-.63-.17-.95s-.13-.68-.21-1c-.14-.57-.28-1.14-.38-1.71,0-.09,0-.18,0-.26l.53.05c.68.1,1.36.2,2,.34Z"/><path id="Path_543" data-name="Path 543" class="cls-5" d="M212.41,32.55v0c0-.2,0-.39,0-.58a8.8,8.8,0,0,0-.1-1c-.08-.52-.22-1-.31-1.55l-.06-.42a1.4,1.4,0,0,0-.06-.41,1.61,1.61,0,0,0-.75-1h0a1.25,1.25,0,0,0-.45-.18,1.28,1.28,0,0,0-.26-.35,1.41,1.41,0,0,0-1.05-.43c-1.8.2-3.6.41-5.4.66-.73.1-1.47.2-2.21.32a4.67,4.67,0,0,0-1.21.41,1.9,1.9,0,0,0-1,1.65,3.65,3.65,0,0,0,.55,1.57c.15.38.3.75.44,1.13.21.58.43,1.15.69,1.71a2.5,2.5,0,0,0,1.57,1.18,3.76,3.76,0,0,0,1.7.06l2-.26c1-.14,2-.3,3-.47l1.51-.25.68-.1a1.26,1.26,0,0,0,.7-.35,1.06,1.06,0,0,0,.27-.47,1.07,1.07,0,0,0,0-.25,1.59,1.59,0,0,0-.14-.56Zm0-.12a.17.17,0,0,1,0-.07Zm-3.73-2.74a3.6,3.6,0,0,0,.36.77c.19.33.38.65.56,1l.52,1-.83.16c-.58.11-1.15.21-1.74.29l-1.7.21-.88.1a9.58,9.58,0,0,1-1.42.06l-.18-.11a15,15,0,0,0-.36-1.89c-.06-.28-.14-.56-.21-.84l.29-.05.9-.15,1.53-.23,3.14-.38s0,0,0,.06Zm-1.27,3.24h0Zm-3.73.38h0Zm-.19,0-.1,0Zm-.06,0,0,0Z"/><path id="Path_544" data-name="Path 544" class="cls-5" d="M231.45,7.15a1.84,1.84,0,0,0-1.73-1.33,21.38,21.38,0,0,0-2.3-1l-2.11-.89a4.23,4.23,0,0,0-.68-.24,1.52,1.52,0,0,0-1.24.25,1.86,1.86,0,0,0-.53.55,3.72,3.72,0,0,0-.19.34c-.12.23-.21.48-.31.72a5,5,0,0,0-.33,1.8c0,.46,0,.93,0,1.4s0,.67.1,1A1.8,1.8,0,0,0,224,11.29a9.31,9.31,0,0,0,1.28-.24c.23-.06.47-.12.7-.2.5-.16,1-.35,1.47-.51a22.18,22.18,0,0,0,3.16-1.17,1.74,1.74,0,0,0,.88-1.56,1.76,1.76,0,0,0-.06-.46Zm-5.18-.72,1.25.48-.13.07c-.56.32-1.15.6-1.75.87l-.64.26c0-.08,0-.15,0-.23a10.55,10.55,0,0,1,0-1.59c0-.08,0-.17.05-.25a11.34,11.34,0,0,1,1.25.4Z"/><path id="Path_545" data-name="Path 545" class="cls-5" d="M163.47,39a3,3,0,0,0-.26-.67.8.8,0,0,0-.08-.16,4.21,4.21,0,0,0-2.54-1.8,10.47,10.47,0,0,0-1.25-.19,2.84,2.84,0,0,0-.41,0,3.72,3.72,0,0,0-.57.08,1.14,1.14,0,0,0-.38.16,1.54,1.54,0,0,0-.3,0,2.24,2.24,0,0,0-1,.54,3.36,3.36,0,0,0-.47.6,2.85,2.85,0,0,0-.37,1.2A3.26,3.26,0,0,0,156,40a6.15,6.15,0,0,0,.41,1.08,3.39,3.39,0,0,0,.74,1,4.51,4.51,0,0,0,.81.63,4.37,4.37,0,0,0,.78.31,4.83,4.83,0,0,0,1.25.17,5.63,5.63,0,0,0,.91-.1,2,2,0,0,0,.47-.15,2.4,2.4,0,0,0,.62-.31,3.23,3.23,0,0,0,.58-.47,6.21,6.21,0,0,0,.52-.63,1.47,1.47,0,0,0,.21-.39,3.19,3.19,0,0,0,.24-.65,4.39,4.39,0,0,0,.07-.72v0a4.06,4.06,0,0,0-.09-.7Zm-3.29,1v0Zm-.34,0,.23.22a.36.36,0,0,1-.07.1h0l-.11.06-.27.07a1.07,1.07,0,0,1-.31,0l-.24-.06-.1-.07a2.91,2.91,0,0,1-.31-.3,4.47,4.47,0,0,1-.33-.61,1.59,1.59,0,0,1-.07-.2,5.6,5.6,0,0,0,.54.17,4.05,4.05,0,0,1,.5.12l.18.1c.12.13.24.26.37.38Z"/><path id="Path_546" data-name="Path 546" class="cls-5" d="M227.66,30.45a1.91,1.91,0,0,0-.27-.35,1.75,1.75,0,0,0-.06-.56l-.16-.39a1.75,1.75,0,0,0-.59-.59,5.25,5.25,0,0,0-1.51-.72,6.86,6.86,0,0,0-1.18-.24,3.21,3.21,0,0,0-3.22,1.68,3.12,3.12,0,0,0-.34,1.7,5.58,5.58,0,0,0,.91,2.54,4.25,4.25,0,0,0,3.44,2,4.06,4.06,0,0,0,1-.13,2.82,2.82,0,0,0,1.35-.64,3.07,3.07,0,0,0,.86-1.5,6.44,6.44,0,0,0,.17-1c0-.08,0-.17,0-.25a3.15,3.15,0,0,0-.46-1.58Zm-2.54,2,0,0Zm-.38.13h0l-.19-.06a1.92,1.92,0,0,1-.31-.18l-.16-.15a4.09,4.09,0,0,1-.25-.46,6.42,6.42,0,0,1-.23-.86h.1a5,5,0,0,1,.78.23h0l0,.22a1.69,1.69,0,0,0,.16.73c0,.15.09.31.13.46v.06Z"/><path id="Path_547" data-name="Path 547" class="cls-5" d="M207.83,50.88c-1-.9-2-1.79-3.07-2.67l-.83-.7A5.14,5.14,0,0,0,202,46.35a1.52,1.52,0,0,0-.52,0,1.68,1.68,0,0,0-.69.18,1.51,1.51,0,0,0-.71.78,6.74,6.74,0,0,0-.35,1.16c-.11.51-.21,1-.35,1.53s-.3.91-.47,1.36a2.2,2.2,0,0,0-.12.62,1.57,1.57,0,0,0,.19.77,2.26,2.26,0,0,0,.81.77,2.56,2.56,0,0,0,.86.35,6.4,6.4,0,0,0,.88.09c.58,0,1.16,0,1.75,0a19.46,19.46,0,0,0,2.85-.16,1.88,1.88,0,0,0,.33,0l.4-.08a1.59,1.59,0,0,0,1.17-1.53,1.25,1.25,0,0,0,.11-.5,1,1,0,0,0-.33-.77Zm-3.78-.34.38.34-.13,0c-.37.09-.74.16-1.11.22s-.6.07-.9.09l-.7.05,0,0a6.72,6.72,0,0,0,.28-.9c.09-.33.16-.66.22-1,0-.11,0-.23.07-.35l.18.13c.58.46,1.14.94,1.69,1.42Zm-2.25-1.86Zm-.15,0h0Z"/><path id="Path_549" data-name="Path 549" class="cls-5" d="M229,53.66c.1-.44.23-.87.34-1.3l.15-.67a1.25,1.25,0,0,0,0-.19c0-.16.06-.38.07-.52s0-.3,0-.45a1.59,1.59,0,0,0-.77-1.34h0a1.09,1.09,0,0,0,0-.26,1.28,1.28,0,0,0-1.26-1.25c-1.24,0-2.49-.11-3.74-.1a4.44,4.44,0,0,0-1,.12,2.74,2.74,0,0,0-.53.23,1.78,1.78,0,0,0-.52.57,2.28,2.28,0,0,0-.23.68l-.09.33c-.14.51-.26,1-.38,1.54a16.83,16.83,0,0,0-.33,1.72,9.3,9.3,0,0,0,0,1.58m2.11.37c0-.24,0-.49,0-.74l.06-.54c0-.3.11-.6.17-.91s.18-.7.27-1l.27-1c0-.15.08-.28.12-.42.29,0,.57,0,.86,0l.91,0,1,0a5.51,5.51,0,0,0-.1.91,1.93,1.93,0,0,0,0,.24h0c0,.29.06.59.08.88.05.58.12,1.16.15,1.74"/></g></g></g></g></g></g></svg>