<svg id="Layer_1" data-name="Layer 1" xmlns="http://www.w3.org/2000/svg" xmlns:xlink="http://www.w3.org/1999/xlink" viewBox="0 0 60 51"><defs><style>.cls-1{fill:none;}.cls-2{clip-path:url(#clip-path);}.cls-3{opacity:0.66;}.cls-4{fill:#fff;opacity:0.99;isolation:isolate;}.cls-5{fill:#80dac4;}</style><clipPath id="clip-path"><path class="cls-1" d="M-46.12,77.69h-225a18,18,0,0,1-18-18v4.9h0V56.06h0V44.87c8.49-8.69,36.69-16.33,50.59-14.34,31.35,4.48,48.28,23.29,64.9,23.29,29.49,0,47.34-15.23,73.82-15.23,22.24,0,28,13.67,53.74,16.47,6.52.71,14.68-1.11,20.15-2.59v3.15h0v3.61C-25.87,69.18-35.14,77.69-46.12,77.69Z"/></clipPath></defs><title>pro-price-bean</title><g id="Group_108" data-name="Group 108"><g class="cls-2"><g id="Group_107" data-name="Group 107"><g id="Group_106" data-name="Group 106" class="cls-3"><g id="Group_103" data-name="Group 103"><path id="Path_536" data-name="Path 536" class="cls-4" d="M29.22,37.15a1.85,1.85,0,0,0-1.74-1.33,20.54,20.54,0,0,0-2.3-1l-2.11-.89a4.23,4.23,0,0,0-.68-.24,1.52,1.52,0,0,0-1.24.25,1.86,1.86,0,0,0-.53.55,3.72,3.72,0,0,0-.19.34c-.12.23-.21.48-.31.72a5,5,0,0,0-.33,1.8c0,.46,0,.93,0,1.4s.05.67.1,1a1.8,1.8,0,0,0,1.87,1.54,9.31,9.31,0,0,0,1.28-.24c.23-.06.47-.12.7-.2.5-.16,1-.35,1.47-.51a21.74,21.74,0,0,0,3.16-1.17,1.8,1.8,0,0,0,.82-2ZM24,36.43l1.25.48-.13.07c-.56.32-1.15.6-1.74.87l-.65.26c0-.08,0-.15,0-.23a10.55,10.55,0,0,1,0-1.59c0-.08,0-.17.05-.25.42.11.84.24,1.25.39Z"/></g></g></g></g></g><path id="Path_512" data-name="Path 512" class="cls-5" d="M2.68,8.6C.42,13-.11,22.12,4.55,26.61c5.55,5.35,9.8,5.32,11.65,6.92,4.54,3.9,4.95,12.74,13.11,16.22s20.44-2.43,26.37-14.43,5.39-23.9-2-27.79-21.39,5.1-26.36,3.38c-4-1.37-6.28-6.74-12-9.54S4.5,5.05,2.68,8.6Z"/></svg>