<svg id="Layer_1" data-name="Layer 1" xmlns="http://www.w3.org/2000/svg" viewBox="0 0 80 93"><defs><style>.cls-1{fill:#80dac4;}</style></defs><title>moble-landingAB</title><g id="Group_98" data-name="Group 98"><g id="Group_96" data-name="Group 96"><path id="Path_507" data-name="Path 507" class="cls-1" d="M45.5,25.68l.13-.54c.13-.55.21-1.06,0-1.1a17,17,0,0,0-3,1.33,1.43,1.43,0,0,1-1,.2,4.85,4.85,0,0,1-2.11-3.75c.26-1.05,1.94-1.05,6.34-4.15l.2-.16c1.77-1.22,1.93-1.35,4.41-.76l2.18.52c2,.48,1.61,2,1.24,3.59L48.59,43c-.28,1.16-.56,2.33-2.93,1.76l-2.14-.51c-2.33-.56-2.05-1.72-1.77-2.89Z"/></g><g id="Group_97" data-name="Group 97"><path id="Path_508" data-name="Path 508" class="cls-1" d="M54.09,1.19,51.18.67c-1-.09-2-.16-3-.23s-2,.07-2.95.1-2,.27-2.92.41A29.5,29.5,0,0,0,31.65,5.43a32,32,0,0,0-13,18.33,29.88,29.88,0,0,0-.79,11.45c.13,1,.33,1.9.5,2.86s.52,1.87.78,2.81.73,1.81,1.09,2.72.9,1.73,1.36,2.59a28.36,28.36,0,0,0,7.94,8.53,28.86,28.86,0,0,0,10.64,4.6,30.33,30.33,0,0,0,22.09-4A29.64,29.64,0,0,0,75.18,37.26a30.81,30.81,0,0,0-3-22.12A29,29,0,0,0,64.64,6.3c-.8-.56-1.58-1.16-2.41-1.68s-1.71-1-2.59-1.43-1.81-.77-2.73-1.13Zm.06-.25A32.66,32.66,0,0,1,73.64,14.22a29.42,29.42,0,0,1,4.62,11.34,30.62,30.62,0,0,1-5.53,23.56,31.81,31.81,0,0,1-9.12,8.29,30.43,30.43,0,0,1-23.73,3.3,32.49,32.49,0,0,1-19-14.09L19.41,44l-1.24-2.76c-.34-1-.7-1.89-1-2.86s-.51-2-.72-3a31,31,0,0,1,.11-12.18,29.41,29.41,0,0,1,5.06-11.17A28.86,28.86,0,0,1,30.8,4,31.4,31.4,0,0,1,42.27.28c1-.07,2-.18,3-.24s2,0,3,0,2,.16,3,.29Z"/><path id="Path_509" data-name="Path 509" class="cls-1" d="M41.72,53a26.49,26.49,0,0,1-8.29-3.59,24.22,24.22,0,0,1-6.6-6.4,21.93,21.93,0,0,1-3.55-8.65A22.16,22.16,0,0,1,23.71,25a23,23,0,0,1,4.21-8.31,25.6,25.6,0,0,1,6.93-6A25.23,25.23,0,0,1,52.58,7.52,23.05,23.05,0,0,1,67.69,17.88a24.42,24.42,0,0,1,3.41,8.83,23.24,23.24,0,0,1-4.41,18,21.86,21.86,0,0,1-7.13,6.08A25.28,25.28,0,0,1,41.72,53Zm.07-.25,2.2.38c.74.07,1.49.12,2.23.16s1.49-.06,2.23-.09,1.46-.22,2.19-.33a21.71,21.71,0,0,0,8-3.49A23.56,23.56,0,0,0,68,35.56a22.3,22.3,0,0,0-2.46-16.37A22.94,22.94,0,0,0,52.24,8.94a21.51,21.51,0,0,0-8.71-.6A20.58,20.58,0,0,0,29.1,17.52a23.3,23.3,0,0,0-3.26,8,24.75,24.75,0,0,0,2.42,16.65,21.77,21.77,0,0,0,5.57,6.73,20.41,20.41,0,0,0,8,3.87Z"/></g><path id="Path_510" data-name="Path 510" class="cls-1" d="M42.69,60.59c-1.56,2.38-3.24,4.65-4.95,6.89-.86,1.13-1.72,2.24-2.61,3.34S33.36,73,32.46,74.1c-1.8,2.17-3.65,4.29-5.63,6.31s-4,4-5.9,6.08l-.78.84-.07-1.11c-.08-1.28-.19-2.56-.32-3.84s-.28-2.56-.47-3.84c-.33-2.55-.78-5.09-1.2-7.63l.87.75c-1.28.14-2.56.28-3.84.39l-3.86.32-7.7.53-3.14.22,2-2.48Q4.82,67.74,7.3,65c1.65-1.87,3.34-3.7,5-5.53S15.74,55.8,17.49,54s3.52-3.54,5.36-5.24l.2.16C21.65,51,20.17,53,18.68,55s-3,4-4.56,5.92S11,64.85,9.41,66.77s-3.21,3.8-4.87,5.65L3.43,70.16,11.16,70c1.28,0,2.57,0,3.86,0l3.87,0h.84l0,.74c.12,2.57.23,5.15.44,7.72.08,1.28.23,2.56.35,3.84s.3,2.56.5,3.83l-.85-.26c1.76-2.21,3.4-4.52,5.11-6.76s3.51-4.41,5.39-6.52c.93-1,1.88-2.1,2.84-3.13s1.92-2.07,2.89-3.09c2-2,4-4,6.06-5.94Z"/><path id="Path_511" data-name="Path 511" class="cls-1" d="M38.9,59.64c1.1,2.58,2.05,5.19,3,7.82.45,1.32.9,2.64,1.31,4s.85,2.66,1.25,4c.8,2.65,1.54,5.33,2.12,8.06s1.12,5.45,1.77,8.16l-.9-.12c.71-1.08,1.41-2.16,2.07-3.26s1.33-2.21,1.94-3.34c1.27-2.24,2.45-4.54,3.64-6.83l.33-.65.76.34c1.18.53,2.36,1,3.53,1.59L63.17,81l6.94,3.4-2,1.59q-1.08-3.53-2-7.1c-.64-2.37-1.23-4.77-1.81-7.16S63.2,67,62.69,64.54s-1-4.84-1.38-7.28l.25-.08c.95,2.29,1.8,4.61,2.64,6.93s1.62,4.66,2.39,7,1.51,4.69,2.21,7,1.38,4.72,2,7.11l.81,3.11-2.76-1.52-6.77-3.72c-1.12-.64-2.25-1.25-3.36-1.91l-3.32-2,1.1-.31c-1.45,2.12-2.92,4.25-4.3,6.42-.7,1.08-1.36,2.19-2,3.29s-1.29,2.22-1.9,3.36l-.53,1-.37-1.1c-.86-2.65-1.86-5.25-2.77-7.88s-1.7-5.29-2.41-8c-.35-1.35-.7-2.69-1-4s-.65-2.71-1-4.06c-.6-2.72-1.16-5.45-1.56-8.22Z"/></g></svg>