<svg id="Layer_1" data-name="Layer 1" xmlns="http://www.w3.org/2000/svg" viewBox="0 0 353 305"><defs><style>.cls-1{fill:#106ae0;}.cls-2{fill:#4d4d4d;}.cls-3,.cls-6{fill:none;}.cls-3{stroke:#fff;stroke-miterlimit:10;}.cls-4{fill:#f9c800;}.cls-5{fill:#fff;}</style></defs><title>sat-guar</title><g id="Group_458" data-name="Group 458"><g id="Group_452" data-name="Group 452"><path id="Path_691" data-name="Path 691" class="cls-1" d="M275.52,299.23c-7.67-3.39-7.39-12.72-2.12-20.88,5.88-9.12,20-15,25.86-11.23,5.59,3.61,5.82,14.82.68,22.65C293.54,299.52,282.5,302.32,275.52,299.23Z"/><circle id="Ellipse_48" data-name="Ellipse 48" class="cls-1" cx="257.63" cy="296.23" r="6.62"/></g><path id="Path_692" data-name="Path 692" class="cls-1" d="M186.19,11.49C299.35.63,350.82,95.68,351,138.23,351.37,262.25,74.85,332,21.43,255-50.58,151.26,89.5,20.77,186.19,11.49Z"/><g id="Group_453" data-name="Group 453"><path id="Path_693" data-name="Path 693" class="cls-2" d="M170.53,3.75h0a34.26,34.26,0,0,1,9.4,1.87,43.22,43.22,0,0,0,8.63,1.91c.62,0,1.28.08,2,.08a56.65,56.65,0,0,0,7-.59A52.6,52.6,0,0,1,204,6.47a16.64,16.64,0,0,1,3.66.35A30.82,30.82,0,0,1,217,11.23a43.35,43.35,0,0,0,7.88,4.1,43.06,43.06,0,0,0,8.76,1.83,31.16,31.16,0,0,1,9.91,2.46,30.93,30.93,0,0,1,7.79,6.63,43.73,43.73,0,0,0,6.58,6,43.55,43.55,0,0,0,8,4,30.76,30.76,0,0,1,9,4.93,30.81,30.81,0,0,1,5.81,8.39,43.92,43.92,0,0,0,4.82,7.55,42.8,42.8,0,0,0,6.64,5.9,31.32,31.32,0,0,1,7.41,7.12,31,31,0,0,1,3.42,9.59,44.43,44.43,0,0,0,2.7,8.57,43,43,0,0,0,4.85,7.39,31.15,31.15,0,0,1,5.32,8.85,31,31,0,0,1,.81,10.06,44.28,44.28,0,0,0,.39,9.06,44.1,44.1,0,0,0,2.84,8.61,30.74,30.74,0,0,1,2.82,9.7,30.92,30.92,0,0,1-1.84,10.16,43.08,43.08,0,0,0-1.92,8.63,44.9,44.9,0,0,0,.51,9,31,31,0,0,1,.21,10.17,31.43,31.43,0,0,1-4.41,9.28,43.4,43.4,0,0,0-4.11,7.88,43.6,43.6,0,0,0-1.83,8.76,30.82,30.82,0,0,1-2.45,9.9,31,31,0,0,1-6.63,7.8,32.51,32.51,0,0,0-10.05,14.56,31.13,31.13,0,0,1-4.93,9,30.93,30.93,0,0,1-8.39,5.8,32.54,32.54,0,0,0-13.46,11.46,30.71,30.71,0,0,1-7.11,7.41,30.76,30.76,0,0,1-9.59,3.43,43.75,43.75,0,0,0-8.57,2.7,43,43,0,0,0-7.39,4.85,31.15,31.15,0,0,1-8.85,5.32,23.13,23.13,0,0,1-7,.85c-1,0-2,0-3-.05s-2.1-.05-3.15-.05a32.48,32.48,0,0,0-5.91.45,44.1,44.1,0,0,0-8.61,2.84,30.74,30.74,0,0,1-9.7,2.82l-.76,0a34.32,34.32,0,0,1-9.4-1.86,42.41,42.41,0,0,0-8.63-1.92c-.62-.05-1.28-.08-2-.08a57,57,0,0,0-7,.59,50.59,50.59,0,0,1-6.51.55,16.61,16.61,0,0,1-3.65-.35,30.92,30.92,0,0,1-9.28-4.4,42.78,42.78,0,0,0-7.88-4.11,43.7,43.7,0,0,0-8.77-1.83,31.09,31.09,0,0,1-9.9-2.45,31.16,31.16,0,0,1-7.79-6.63,42.88,42.88,0,0,0-6.59-6,43.11,43.11,0,0,0-8-4,31.23,31.23,0,0,1-9-4.93,31.12,31.12,0,0,1-5.81-8.39,43.76,43.76,0,0,0-4.82-7.55,43.86,43.86,0,0,0-6.64-5.91,31.13,31.13,0,0,1-7.41-7.12,30.9,30.9,0,0,1-3.42-9.59,44.46,44.46,0,0,0-2.71-8.57A42.94,42.94,0,0,0,43.72,203a31,31,0,0,1-5.33-8.85,30.67,30.67,0,0,1-.8-10.06,43.58,43.58,0,0,0-.4-9.06,44.1,44.1,0,0,0-2.84-8.61,30.73,30.73,0,0,1-2.81-9.7,30.92,30.92,0,0,1,1.84-10.16,43.85,43.85,0,0,0,1.92-8.62,45,45,0,0,0-.51-9,30.72,30.72,0,0,1-.2-10.17A30.82,30.82,0,0,1,39,109.46a44,44,0,0,0,4.11-7.88,43.68,43.68,0,0,0,1.82-8.77,31.1,31.1,0,0,1,2.46-9.9A30.93,30.93,0,0,1,54,75.12a43.73,43.73,0,0,0,6-6.58,43.55,43.55,0,0,0,4-8,30.76,30.76,0,0,1,4.93-9,30.81,30.81,0,0,1,8.39-5.81A43.92,43.92,0,0,0,84.94,41a42.8,42.8,0,0,0,5.9-6.64A31.13,31.13,0,0,1,98,26.92a31,31,0,0,1,9.59-3.42,44.43,44.43,0,0,0,8.57-2.7A43.59,43.59,0,0,0,123.51,16a31.29,31.29,0,0,1,8.85-5.32,23.14,23.14,0,0,1,7-.86c1,0,2,0,3,.05s2.11.06,3.15.06a32.48,32.48,0,0,0,5.91-.45,44.41,44.41,0,0,0,8.62-2.84,30.68,30.68,0,0,1,9.69-2.82c.25,0,.51,0,.76,0m0-1.75-.85,0c-6.27.32-12.19,4.52-18.53,5.69a31.79,31.79,0,0,1-5.6.42c-2,0-4.14-.11-6.18-.11a24.75,24.75,0,0,0-7.56.94c-6.12,2-10.75,7.56-16.45,10.26S102.33,22,97,25.45s-8.39,10.08-13.2,14.18S72,45.71,67.72,50.42s-5.47,11.89-9.09,17.12-9.87,8.9-12.78,14.57S43.62,95,41.48,101s-7.24,11.13-8.58,17.38,1.19,13,.68,19.36-4.09,12.6-3.76,19,4.52,12.19,5.69,18.53-.67,13.36,1.25,19.34S44.32,205.37,47,211.07s2.8,13.05,6.23,18.35,10.08,8.39,14.19,13.21,6.07,11.85,10.78,16.1,11.89,5.48,17.12,9.09,8.9,9.88,14.57,12.78,12.87,2.23,18.88,4.38,11.13,7.23,17.38,8.58a19.36,19.36,0,0,0,4,.39c4.43,0,9.06-1.14,13.53-1.14.61,0,1.21,0,1.82.07,6,.48,12,3.78,18.16,3.78l.85,0c6.27-.33,12.19-4.52,18.53-5.69a30.87,30.87,0,0,1,5.6-.42c2,0,4.14.1,6.18.1a24.74,24.74,0,0,0,7.56-.93c6.12-2,10.76-7.56,16.45-10.26s13-2.8,18.35-6.23,8.39-10.08,13.21-14.19,11.85-6.07,16.1-10.78,5.48-11.89,9.09-17.12,9.88-8.9,12.78-14.57,2.23-12.87,4.38-18.88,7.23-11.13,8.58-17.38-1.19-13-.69-19.37,4.09-12.6,3.76-19-4.52-12.19-5.68-18.53.66-13.37-1.26-19.35-7.56-10.75-10.26-16.44-2.79-13-6.23-18.35S290.93,60.85,286.82,56,280.74,44.18,276,39.93s-11.89-5.48-17.12-9.09S250,21,244.34,18.05s-12.87-2.22-18.88-4.37S214.33,6.44,208.09,5.1a19.52,19.52,0,0,0-4-.39c-4.43,0-9.05,1.14-13.52,1.14-.61,0-1.22,0-1.82-.07-6-.48-12-3.78-18.17-3.78Z"/></g><g id="Ellipse_49" data-name="Ellipse 49"><circle class="cls-1" cx="177.11" cy="149.33" r="120.72"/><circle class="cls-3" cx="177.11" cy="149.33" r="120.04"/></g><g id="Group_454" data-name="Group 454"><path id="Path_694" data-name="Path 694" class="cls-4" d="M101.73,118.84l-.19-1.25c-.2-1.24-.47-2.38-.83-2.32-.62.09-4.33,4.33-5.17,5.37a3.25,3.25,0,0,1-2,1.31c-1.87.3-7.22-3.6-7.6-6s3.13-3.87,9.63-14.1l.29-.5c2.64-4.06,2.85-4.46,8.55-5.36l5-.78c4.53-.71,5.09,2.84,5.65,6.4l8,50.7c.42,2.67.84,5.34-4.59,6.19l-4.89.77c-5.34.84-5.75-1.83-6.17-4.5Z"/><path id="Path_695" data-name="Path 695" class="cls-4" d="M135.83,90.59c19.13-3,21.36,11.13,24.17,29s5,32-14.08,35-21.35-11.13-24.16-29S116.71,93.6,135.83,90.59Zm-.66,21.8,3.51,22.32c.66,4.18,1.54,8.06,5.28,7.47s3.64-5.22,2.62-11.72c-.41-2.58-1-5.5-1.43-8.52s-.81-5.71-1.19-8.11c-1-6.4-2.2-10.5-6-9.9S134.48,108,135.17,112.39Z"/><path id="Path_696" data-name="Path 696" class="cls-4" d="M176.57,84.18c19.12-3,21.35,11.13,24.16,29s5,32-14.08,35-21.35-11.12-24.16-29S157.45,87.19,176.57,84.18ZM175.9,106l3.51,22.33c.66,4.18,1.55,8,5.28,7.46s3.64-5.22,2.62-11.71c-.41-2.58-1-5.5-1.43-8.53s-.81-5.7-1.19-8.11c-1-6.4-2.2-10.5-6-9.9s-3.46,4.11-2.77,8.47Z"/><path id="Path_697" data-name="Path 697" class="cls-4" d="M210.28,79.51c.71-.12,1.44-.14,2.24-.26a8.32,8.32,0,0,1,8.35,5,35.25,35.25,0,0,1,2,7.34c1.8,11.48-3.63,15.16-5.51,16a12.86,12.86,0,0,1-3.48,1c-9.26,1.46-12.16-3.1-13.79-13.42C198.32,84,202.45,80.74,210.28,79.51Zm3.59,62.14a164.6,164.6,0,0,1,4.26-18.07c3.42-11.84,8.88-33.94,12.25-45.5.66-2.2,2-2.69,5.24-3.2l2-.32c3.91-.62,5.11-.53,5.34.89l.05.36L243,77c-1,4.89-9,37.61-12.78,51.41-3.18,11.62-2.49,13.15-7.29,13.91l-7,1A1.58,1.58,0,0,1,214,142.2l0-.18Zm-5.41-47.09c.47,3,.88,5.6,4.08,5.1,3.38-.53,3-3.11,2.5-6.14-.5-3.2-.9-5.69-4.28-5.16C207.56,88.87,208,91.36,208.46,94.56ZM246,109.06c.71-.11,1.43-.14,2.23-.26,2-.22,5.88.26,8.36,5a34.55,34.55,0,0,1,2,7.35l.13.8c1.89,12-3.75,14.35-5.63,15.2a12.46,12.46,0,0,1-3.49,1c-9.25,1.46-12.15-3.09-13.77-13.42C234.06,113.59,238.19,110.29,246,109.06Zm-1.83,15c.48,3,.89,5.61,4.09,5.1,3.38-.53,3-3.11,2.5-6.13-.51-3.21-.9-5.7-4.28-5.16-3.2.5-2.81,3-2.31,6.2Z"/></g><g id="Group_455" data-name="Group 455"><path id="Path_698" data-name="Path 698" class="cls-5" d="M111.44,166.73c2.82-.44,4.81-.23,5,.72l.41,2.62c.06.37,0,1-1.13,1.22l-.28.05c-.54.08-1.82-.1-2.81.06-.82.12-1.42.5-1.25,1.59s.56,1.55,2.06,2.43c4.57,2.69,5.76,5,6.19,7.7a7.31,7.31,0,0,1-.24,4.46,6.51,6.51,0,0,1-3.23,3.13,14.3,14.3,0,0,1-3.21.89c-2.52.39-5,.3-5.25-1.06l-.41-2.62c-.07-.41.21-.87,1.12-1a29.8,29.8,0,0,0,3.66,0c1-.15,2.12-1.1,2-2.16-.13-.78-.25-1.36-2.65-3.07-3.65-2.6-5.37-3.79-5.81-6.57C104.48,168.35,108.72,167.16,111.44,166.73Z"/><path id="Path_699" data-name="Path 699" class="cls-5" d="M138.13,185.71c.25,1.56-.78,1.87-2.72,2.17l-1.81.28c-2.11.34-1.85-4.93-3.21-4.72l-2.73.43c-1.36.22.23,5.2-1.81,5.51l-1.6.26c-1.77.27-2.84.31-3.09-1.26-.32-2,.21-4,.36-20.27,0-1.74.53-2.87,1.89-3.08l5.23-.82c1.36-.22,2.21.69,2.81,2.34C136,180.12,137.81,183.67,138.13,185.71Zm-11.32-7.49c.09.55.32.51,1.41.33s1.33-.2,1.25-.71a4.28,4.28,0,0,0-.12-.54c-.93-3.27-1.72-7.36-2.47-7.25s-.31,4.23-.12,7.65A3,3,0,0,0,126.81,178.22Z"/><path id="Path_700" data-name="Path 700" class="cls-5" d="M145.22,183.79c.14,1.3.26,2.51-1.64,2.8l-1.7.28c-2,.32-2.26-1-2.47-2.4L137,168.93c-.13-.86-.33-1-1.05-.92-.23,0-.57.13-1,.19-.85.14-1.55.11-1.68-.71l-.45-2.89c-.11-.69.59-1.14,1.44-1.28l9.38-1.47c.85-.14,1.66.08,1.76.76l.46,2.9c.13.82-.53,1.05-1.38,1.19-.24,0-.55.05-1,.11-.85.14-.89.35-.75,1.2Z"/><path id="Path_701" data-name="Path 701" class="cls-5" d="M155.28,182c.22,1.36.43,2.72-1.61,3l-1.7.28c-2,.32-2.25-1-2.46-2.4l-2.95-18.71c-.21-1.36-.43-2.72,1.61-3l1.7-.28c2-.32,2.25,1,2.46,2.4Z"/><path id="Path_702" data-name="Path 702" class="cls-5" d="M160.18,159.05c2.83-.44,4.81-.23,5,.72l.41,2.62c.06.37,0,1-1.13,1.22l-.27,0c-.55.08-1.83-.1-2.82.06-.82.13-1.42.5-1.25,1.59s.56,1.55,2.06,2.43c4.57,2.69,5.76,4.95,6.2,7.7a7.42,7.42,0,0,1-.24,4.47,6.56,6.56,0,0,1-3.24,3.12,14.3,14.3,0,0,1-3.21.89c-2.51.4-5,.3-5.25-1l-.41-2.62c-.07-.41.21-.87,1.13-1a27.77,27.77,0,0,0,3.65,0c.95-.15,2.13-1.1,2-2.16-.12-.78-.25-1.35-2.64-3.07-3.66-2.6-5.38-3.79-5.82-6.57C153.22,160.68,157.46,159.49,160.18,159.05Z"/><path id="Path_703" data-name="Path 703" class="cls-5" d="M173.54,164.62c.26,1.64.34,2.18,1.84,1.94s1.75-.34,2.33-.43c1.94-.31,2.06,0,2.3,1.52l.05.3c.38,2.45.44,2.79-1.88,3.15-.68.11-1.88.23-2.39.31-1.12.17-1.12.42-.84,2.15l.81,5.17c.21,1.36.43,2.72-1.61,3l-1.7.28c-2,.32-2.26-1-2.47-2.4L167,160.94c-.16-1-.43-2.72,1.61-3l8.43-1.33c.85-.14,1.65.09,1.76.77l.46,2.89c.1.69-.14.89-1.36,1.09-.86.13-1.1.1-2.7.35C173.13,162,173.22,162.62,173.54,164.62Z"/><path id="Path_704" data-name="Path 704" class="cls-5" d="M198.88,176.14c.25,1.57-.79,1.87-2.72,2.18l-1.81.28c-2.1.33-1.85-4.93-3.22-4.72l-2.72.43c-1.36.21.23,5.19-1.81,5.51l-1.6.25c-1.77.27-2.84.31-3.09-1.26-.32-2,.21-4,.36-20.26,0-1.75.53-2.88,1.89-3.09l5.24-.82c1.36-.21,2.2.7,2.8,2.35C196.71,170.56,198.56,174.1,198.88,176.14Zm-11.32-7.49c.09.55.32.51,1.41.34s1.33-.21,1.25-.72a5.23,5.23,0,0,0-.12-.54c-.93-3.27-1.72-7.36-2.47-7.24s-.31,4.23-.12,7.65A2.94,2.94,0,0,0,187.56,168.65Z"/><path id="Path_705" data-name="Path 705" class="cls-5" d="M205.93,151.85c.85-.13,1.36.21,1.47.89l.47,3c0,.34.14.85-1.16,1.05-.68.11-.72.05-1.09.11-3.24.51-2.31,6.39-2.11,7.62s1.21,7.47,4.27,7c.44-.07.43-.14,1.21-.26,1.3-.2,1.49,1,1.54,1.36l.36,2.28a1.14,1.14,0,0,1-.78,1.42,1.1,1.1,0,0,1-.31,0c-4.84.76-10.8-.56-12.43-10.94C195.84,155.71,201.1,152.61,205.93,151.85Z"/><path id="Path_706" data-name="Path 706" class="cls-5" d="M220.66,171.91c.14,1.3.26,2.5-1.64,2.8l-1.7.28c-2,.32-2.26-1-2.47-2.4L212.41,157c-.14-.85-.34-1-1-.91l-1,.19c-.85.14-1.55.1-1.68-.71l-.46-2.89c-.1-.69.59-1.14,1.44-1.28l9.39-1.47c.85-.14,1.65.08,1.76.76l.45,2.9c.13.82-.53,1.06-1.38,1.19-.24,0-.55.05-1,.12-.85.13-.88.34-.75,1.19Z"/><path id="Path_707" data-name="Path 707" class="cls-5" d="M230.73,170.08c.22,1.36.43,2.72-1.61,3l-1.7.28c-2,.32-2.25-1-2.46-2.4l-3-18.71c-.21-1.36-.43-2.72,1.61-3l1.71-.27c2-.33,2.25,1,2.46,2.39Z"/><path id="Path_708" data-name="Path 708" class="cls-5" d="M229.91,157.8c-.86-5.48-1-9.57,6.19-10.7,6.84-1.08,7.94,2.79,8.79,8.2.32,2,.74,4,1,5.84.85,5.37.61,9.42-5.95,10.45-7.18,1.13-8.32-2.8-9.17-8.25-.15-.91-.26-1.84-.42-2.79S230.05,158.69,229.91,157.8Zm5.37-3.77L237,164.74c.16,1,.38,2.38,2.08,2.12s1.49-1.63,1.32-2.65l-1.68-10.72c-.14-.85-.3-1.86-2-1.6s-1.54,1.29-1.4,2.14Z"/><path id="Path_709" data-name="Path 709" class="cls-5" d="M256.86,155.16c.1,0,.15-.13.11-.36L255.74,147c-.21-1.36-.43-2.72,1.61-3l1.7-.27c2-.33,2.26,1,2.47,2.4l3,18.7c.21,1.36.42,2.72-1.62,3-3.06.49-3.38,0-4-1l-6.07-9.12c-.14-.19-.26-.31-.33-.3s-.11.16-.08.36l1.4,8.67c.22,1.36.43,2.72-1.61,3l-1.7.28c-2,.32-2.26-1-2.47-2.4L245,148.66c-.22-1.36-.43-2.72,1.61-3l1.8-.29c1.12-.17,1.52-.1,2.19.88l5.86,8.66C256.64,155.09,256.75,155.18,256.86,155.16Z"/></g><g id="Group_456" data-name="Group 456"><path id="Path_710" data-name="Path 710" class="cls-5" d="M123.49,211.69c-.18-1.16-.86-1.09-1.57-1-1.23.2-1.48-.38-1.64-1.39l-.06-.38c-.48-3-.47-3.22,1.29-3.5l5.35-.84c1.61-.25,1.74.53,1.85,1.24l1.84,11.69c.57,3.66-3.06,4.24-5.19,4.57-6,.94-12.86-.73-14.6-11.78-1.69-10.75,4.81-14.3,9.42-15,3.89-.61,5.53-.45,5.71.71l.47,3c.1.68-.35,1-1,1.07-1.16.18-2.4-.12-4.08.14-4.76.75-4.28,7.47-4,9,.48,3.07,1.88,8.34,5.7,7.74.75-.12,1.22-.58,1-1.89Z"/><path id="Path_711" data-name="Path 711" class="cls-5" d="M147.58,210.62c.73,4.64.7,7.87-6.83,9.06-7.9,1.24-9-1.85-9.73-6.72-1.86-11.83-2.44-15.73-2.44-15.73-.23-1.5-.47-3,1.78-3.35l1.88-.3c2.25-.35,2.48,1.15,2.72,2.64l2.59,16.48c.18,1.12.33,2.05,2.39,1.74,1.68-.27,1.54-1.21,1.36-2.33l-2.6-16.52c-.23-1.46-.47-3,1.78-3.31l1.87-.29c2.25-.36,2.48,1.14,2.71,2.6Z"/><path id="Path_712" data-name="Path 712" class="cls-5" d="M168.17,213.25c.28,1.72-.86,2.05-3,2.39l-2,.32c-2.32.36-2.05-5.44-3.54-5.21l-3,.47c-1.5.24.25,5.72-2,6.07l-1.76.28c-1.94.3-3.13.34-3.4-1.39-.36-2.24.23-4.37.4-22.32,0-1.92.57-3.16,2.07-3.4l5.77-.9c1.5-.24,2.42.77,3.09,2.58C165.79,207.1,167.83,211,168.17,213.25ZM155.71,205c.1.6.36.56,1.56.37s1.46-.23,1.37-.79a5.63,5.63,0,0,0-.14-.59c-1-3.6-1.89-8.11-2.72-8s-.34,4.66-.13,8.43a2.76,2.76,0,0,0,.06.57Z"/><path id="Path_713" data-name="Path 713" class="cls-5" d="M174.92,186.86c5.58-.88,7.79,2.88,8.48,7.3.43,2.7.66,4.42-1.19,6.56-.91,1.06-1.66.65-1.44,2.07s1,3.33,2.26,3.14a5.34,5.34,0,0,0,1.17-.38c1.2-.19,1.54.79,1.82,2.51.12.82.25,1.84.42,3,.12.75-.07,1.47-2,1.78-3.44.54-5.6-1.73-6.75-4.39-1.45-3.34-2.67-3.76-2.89-3.72s-.21.64-.16.94l.84,5.32c.23,1.5.47,3-1.79,3.35l-2.61.41c-1.5.24-1.74-1.26-2-2.76l-3.24-20.6c-.23-1.49-.47-3,1.78-3.34ZM172.75,194c.08.49.25,1.34.38,2.13s.18,1.43.25,1.88c.2,1.23.46,1.43,2,1.19,1.68-.27,1.8-2,1.53-3.66s-1-3.68-2.65-3.42c-1.5.24-1.68.54-1.47,1.88Z"/><path id="Path_714" data-name="Path 714" class="cls-5" d="M205.85,207.32c.28,1.72-.86,2.05-3,2.39l-2,.31c-2.32.37-2.05-5.43-3.55-5.2l-3,.47c-1.5.23.25,5.72-2,6.07l-1.76.27c-1.95.31-3.13.34-3.4-1.38-.36-2.25.23-4.37.4-22.32,0-1.92.57-3.16,2.07-3.4l5.77-.91c1.5-.23,2.42.77,3.09,2.58C203.46,201.17,205.5,205.07,205.85,207.32Zm-12.46-8.25c.09.6.36.56,1.55.37s1.46-.23,1.37-.79a3.87,3.87,0,0,0-.13-.59c-1-3.6-1.89-8.11-2.72-8s-.34,4.66-.13,8.43a2.6,2.6,0,0,0,.06.56Z"/><path id="Path_715" data-name="Path 715" class="cls-5" d="M216.54,192.59c.11,0,.17-.14.13-.41l-1.36-8.61c-.23-1.5-.47-3,1.78-3.35l1.88-.29c2.24-.36,2.48,1.14,2.72,2.64l3.24,20.6c.23,1.49.47,3-1.78,3.35-3.37.53-3.73,0-4.43-1.07l-6.68-10c-.15-.21-.29-.34-.36-.33s-.13.17-.09.4l1.54,9.54c.23,1.5.47,3-1.78,3.35l-1.87.3c-2.25.35-2.49-1.15-2.72-2.65l-3.25-20.59c-.23-1.5-.47-3,1.78-3.35l2-.31c1.23-.2,1.67-.11,2.41.95l6.45,9.54C216.3,192.51,216.43,192.61,216.54,192.59Z"/><path id="Path_716" data-name="Path 716" class="cls-5" d="M236.12,201.67c.15,1.43.29,2.76-1.81,3.09l-1.87.29c-2.25.35-2.49-1.14-2.72-2.64L227,185.29c-.15-.94-.37-1.13-1.15-1-.26,0-.63.14-1.08.21-.94.15-1.71.11-1.85-.78l-.51-3.18c-.11-.76.65-1.26,1.59-1.41l10.33-1.62c.94-.15,1.82.09,1.94.84l.5,3.18c.14.9-.58,1.17-1.52,1.32-.26,0-.6.06-1.05.13-.94.14-1,.38-.82,1.32Z"/><path id="Path_717" data-name="Path 717" class="cls-5" d="M246.6,195.8a1.48,1.48,0,0,0,1.77,1c2.13-.34,2.83-.53,3.62-.65,1.57-.25,2.12.12,2.3,1.25l.41,2.62c.18,1.12-.13,1.56-1.26,1.73l-9.89,1.56c-2.24.35-2.6-1.89-2.72-2.64l-3.24-20.6c-.23-1.5-.47-3,1.78-3.35l9.66-1.52c.94-.15,1.82.1,1.94.85l.5,3.18c.14.9-.6,1.05-1.54,1.2-1.46.23-2.63.34-3.57.49-2.05.32-1.94,1.07-1.75,2.27.39,2.43.48,3.07,2.36,2.77,2.33-.36,2.68-.5,3.54-.63,1.31-.21,1.6,1.09,1.66,1.5l.38,2.4c.17,1.12-.6,1.32-1.54,1.47-1.9.3-3.12.41-3.9.54-1.2.19-1.12.71-.92,2Z"/><path id="Path_718" data-name="Path 718" class="cls-5" d="M261.54,193.44a1.46,1.46,0,0,0,1.77,1c2.13-.33,2.83-.52,3.62-.65,1.57-.24,2.13.13,2.3,1.25l.41,2.62c.18,1.13-.13,1.56-1.26,1.74L258.5,201c-2.25.35-2.61-1.9-2.72-2.65l-3.25-20.59c-.23-1.5-.47-3,1.78-3.35l9.66-1.52c.94-.15,1.82.09,1.94.84l.5,3.19c.14.89-.6,1-1.54,1.2-1.46.23-2.63.33-3.56.48-2.06.33-1.94,1.08-1.76,2.27.39,2.44.48,3.07,2.36,2.78,2.33-.37,2.68-.5,3.54-.64,1.31-.2,1.6,1.1,1.66,1.51l.38,2.4c.18,1.12-.6,1.32-1.53,1.47-1.92.3-3.13.41-3.91.54-1.2.19-1.12.71-.92,2Z"/></g><g id="Group_457" data-name="Group 457"><g id="Path_719" data-name="Path 719"><path class="cls-6" d="M103.85,121l-.19-1.25c-.2-1.24-.47-2.38-.82-2.32-.62.1-4.34,4.32-5.17,5.37a3.28,3.28,0,0,1-2,1.31c-1.87.3-7.23-3.6-7.61-6s3.13-3.88,9.63-14.1l.29-.5c2.64-4.06,2.85-4.46,8.54-5.36l5-.78c4.54-.71,5.1,2.84,5.66,6.4l8,50.7c.43,2.67.84,5.34-4.58,6.19l-4.89.77c-5.34.84-5.76-1.83-6.18-4.5Z"/><path class="cls-5" d="M112.63,97.92h0a7.19,7.19,0,0,0-1,.08l-5,.79c-2.69.42-4.14.74-5.12,1.37s-1.65,1.67-2.88,3.57l-.07.1-.27.48h0v0a83.18,83.18,0,0,1-7.3,9.88c-1.77,2.09-2.37,2.86-2.23,3.74s1.24,2.21,2.81,3.44a8.57,8.57,0,0,0,3.9,2h.11a2.66,2.66,0,0,0,1.55-1.07c.47-.58,1.63-1.92,2.7-3.07,2.26-2.44,2.63-2.5,2.9-2.54h.13c.85,0,1.18,1,1.47,2.91l.2,1.24,5.66,35.94a7.22,7.22,0,0,0,.85,2.92c.33.49,1,1.15,2.83,1.15a11,11,0,0,0,1.71-.15l4.89-.77c2.2-.34,3.5-1,4-2a6.09,6.09,0,0,0,0-3.38l-8-50.69a15.25,15.25,0,0,0-1.08-4.26,2.84,2.84,0,0,0-2.8-1.66m0-.68c3.53,0,4,3.24,4.55,6.49l8,50.7c.42,2.67.84,5.33-4.59,6.19l-4.89.77a11.51,11.51,0,0,1-1.82.16c-3.63,0-4-2.33-4.36-4.66L103.85,121l-.19-1.25c-.19-1.21-.46-2.33-.8-2.33h0c-.62.1-4.33,4.33-5.17,5.38a3.28,3.28,0,0,1-2,1.31h-.21c-2,0-7-3.7-7.39-6s3.13-3.87,9.63-14.1l.29-.5c2.64-4.06,2.85-4.46,8.54-5.36l5-.78A7.52,7.52,0,0,1,112.63,97.24Z"/></g><g id="Path_720" data-name="Path 720"><path class="cls-6" d="M138,92.71c19.12-3,21.34,11.13,24.16,29s5,32-14.08,35-21.35-11.13-24.16-29S118.83,95.72,138,92.71Zm-.67,21.8,3.51,22.32c.66,4.18,1.54,8,5.28,7.47s3.64-5.23,2.62-11.72c-.41-2.58-1-5.5-1.43-8.52s-.81-5.71-1.19-8.11c-1-6.41-2.2-10.5-6-9.9s-3.46,4.1-2.77,8.46Z"/><path class="cls-5" d="M142.77,93a29.84,29.84,0,0,0-4.71.4c-4.5.71-7.88,2-10.33,4.09a13.22,13.22,0,0,0-4.37,7.36c-1.45,6-.22,13.8,1.19,22.79h0c1.25,7.9,2.42,15.37,5,20.6a14.78,14.78,0,0,0,5.13,6,15.22,15.22,0,0,0,8.5,2.2,29.72,29.72,0,0,0,4.7-.4c4.51-.71,7.89-2,10.33-4.09a13.23,13.23,0,0,0,4.38-7.36c1.45-6,.22-13.8-1.2-22.8-1.24-7.9-2.42-15.37-5.05-20.6a14.76,14.76,0,0,0-5.12-6,15.22,15.22,0,0,0-8.5-2.2M145.36,145c-4,0-4.73-4.87-5.23-8.1l-3.52-22.32a18.16,18.16,0,0,1-.27-5.89,4,4,0,0,1,3.61-3.35,4.7,4.7,0,0,1,.82-.07c1.82,0,3.18,1,4.15,3.13a30.09,30.09,0,0,1,1.84,7.4c.18,1.14.35,2.35.53,3.63.2,1.44.41,2.93.66,4.48s.51,3.1.76,4.58.47,2.7.67,3.95a30.24,30.24,0,0,1,.51,8.27c-.37,2.48-1.62,3.9-3.7,4.23a6.12,6.12,0,0,1-.83.06m-2.59-52.73c14.72,0,16.79,13.16,19.35,29.41,2.8,17.79,5,32-14.08,35a31.55,31.55,0,0,1-4.81.41c-14.72,0-16.79-13.17-19.35-29.42-2.8-17.79-5-32,14.08-35A31.46,31.46,0,0,1,142.77,92.31Zm2.59,52.05a4.66,4.66,0,0,0,.72-.06c3.82-.6,3.64-5.22,2.62-11.72-.4-2.58-1-5.5-1.43-8.52s-.81-5.71-1.19-8.11c-.94-6-2-10-5.31-10a4.44,4.44,0,0,0-.71.06c-3.74.59-3.46,4.1-2.77,8.46l3.51,22.33C141.42,140.73,142.23,144.36,145.36,144.36Z"/></g><g id="Path_721" data-name="Path 721"><path class="cls-6" d="M178.69,86.3c19.12-3,21.35,11.13,24.16,29s5.05,32-14.08,35-21.35-11.12-24.16-29S159.57,89.31,178.69,86.3ZM178,108.09l3.51,22.33c.66,4.18,1.55,8.05,5.28,7.46s3.65-5.22,2.62-11.71c-.41-2.58-1-5.5-1.43-8.53s-.81-5.71-1.19-8.11c-1-6.4-2.2-10.5-6-9.89s-3.46,4.1-2.77,8.46Z"/><path class="cls-5" d="M183.5,86.58a31,31,0,0,0-4.71.39c-4.5.71-7.88,2-10.32,4.09a13.24,13.24,0,0,0-4.38,7.37c-1.45,6-.22,13.8,1.2,22.8,1.24,7.9,2.42,15.37,5.05,20.59a14.79,14.79,0,0,0,5.12,6,15.22,15.22,0,0,0,8.5,2.2,31.08,31.08,0,0,0,4.71-.4c4.5-.71,7.88-2,10.33-4.09a13.21,13.21,0,0,0,4.37-7.37c1.45-6,.22-13.79-1.19-22.79-1.25-7.91-2.43-15.37-5.06-20.6a14.69,14.69,0,0,0-5.12-6,15.22,15.22,0,0,0-8.5-2.2m2.59,52.05c-4,0-4.72-4.88-5.23-8.1l-3.52-22.33a17.84,17.84,0,0,1-.26-5.89,4,4,0,0,1,3.6-3.35,5.92,5.92,0,0,1,.82-.07c1.82,0,3.18,1,4.15,3.14a30.09,30.09,0,0,1,1.84,7.4c.18,1.15.35,2.37.53,3.66s.41,2.91.66,4.45.51,3.1.77,4.59.46,2.69.66,3.93a30.31,30.31,0,0,1,.51,8.28c-.37,2.47-1.62,3.89-3.7,4.22a4.89,4.89,0,0,1-.83.07M183.5,85.89c14.72,0,16.79,13.16,19.35,29.42,2.8,17.78,5.05,32-14.08,35a31.46,31.46,0,0,1-4.81.4c-14.72,0-16.79-13.16-19.35-29.41-2.8-17.79-5-32,14.08-35A30.32,30.32,0,0,1,183.5,85.89Zm2.59,52.05a4.56,4.56,0,0,0,.72-.06c3.83-.6,3.65-5.22,2.62-11.71-.4-2.58-1-5.5-1.43-8.53s-.81-5.7-1.19-8.1c-.94-6-2-10-5.31-10a4.53,4.53,0,0,0-.71.06c-3.74.59-3.46,4.1-2.77,8.46l3.51,22.32C182.15,134.32,183,137.94,186.09,137.94Z"/></g><g id="Path_722" data-name="Path 722"><path class="cls-6" d="M212.4,81.63c.71-.12,1.44-.14,2.24-.26,2-.22,5.87.25,8.35,5a34.64,34.64,0,0,1,2,7.34c1.81,11.48-3.63,15.16-5.5,16a12.58,12.58,0,0,1-3.49,1c-9.25,1.45-12.15-3.1-13.78-13.42C200.45,86.15,204.57,82.86,212.4,81.63ZM216,143.77a164.77,164.77,0,0,1,4.26-18.08c3.43-11.84,8.88-33.93,12.25-45.49.66-2.2,2-2.69,5.24-3.2l2-.32c3.91-.62,5.11-.53,5.34.89l.05.36-.08,1.2c-1,4.88-9,37.6-12.78,51.41-3.18,11.62-2.48,13.15-7.29,13.91l-7,1a1.58,1.58,0,0,1-1.91-1.16l0-.18Zm-5.41-47.09c.48,3,.88,5.6,4.08,5.1,3.38-.53,3-3.11,2.5-6.14-.5-3.2-.89-5.69-4.27-5.16C209.68,91,210.07,93.48,210.58,96.68Zm37.56,14.5c.71-.11,1.44-.13,2.24-.26,2-.22,5.87.26,8.35,5a34.48,34.48,0,0,1,2,7.34l.12.8c1.89,12-3.75,14.36-5.63,15.2a12.76,12.76,0,0,1-3.48,1c-9.25,1.45-12.16-3.1-13.78-13.42-1.76-11.12,2.37-14.41,10.2-15.65Zm-1.82,15c.47,3,.88,5.61,4.08,5.11,3.38-.54,3-3.12,2.5-6.14-.51-3.2-.9-5.69-4.28-5.16-3.2.5-2.81,3-2.3,6.19Z"/><path class="cls-5" d="M243.14,77a22.39,22.39,0,0,0-3.25.35l-2,.32c-3.16.5-4.15.92-4.69,2.71-1.72,5.88-4,14.63-6.22,23.09-2.14,8.16-4.35,16.59-6,22.41a176.91,176.91,0,0,0-4.24,17.83l.05.31a.89.89,0,0,0,.91.79l.25,0h0l7-1c1.88-.3,2.68-.69,3.28-1.62.7-1.08,1.18-3,2-6.19.39-1.51.86-3.39,1.47-5.6,3.82-14.07,11.81-46.58,12.75-51.33l.08-1.08,0-.28c-.06-.38-.11-.67-1.31-.67m-27.71,5c-.24,0-.48,0-.7,0-.43.07-.83.11-1.21.15s-.69.06-1,.11c-4.19.66-6.74,1.85-8.26,3.85-1.73,2.3-2.18,5.9-1.38,11,.77,4.87,1.75,7.94,3.19,10s3.71,3.16,6.82,3.16a19.51,19.51,0,0,0,3-.26,10.67,10.67,0,0,0,2.84-.77l.49-.19a8.61,8.61,0,0,0,3.8-3.71c1.6-2.9,2-6.78,1.29-11.55a35.25,35.25,0,0,0-1.91-7.14c-2.13-4-5.27-4.64-6.95-4.64m-1.52,20.52a3.2,3.2,0,0,1-3.06-1.93,14.06,14.06,0,0,1-.95-3.81,12.93,12.93,0,0,1-.23-4.37,3.31,3.31,0,0,1,3.11-2.61,5.48,5.48,0,0,1,1-.08,3.21,3.21,0,0,1,3.12,1.9,13.63,13.63,0,0,1,1,3.91,11.65,11.65,0,0,1,.18,4.27c-.36,1.49-1.42,2.36-3.25,2.65a6.63,6.63,0,0,1-.86.07m37.26,9c-.24,0-.48,0-.7,0-.43.07-.83.11-1.21.14s-.69.07-1,.12c-4.19.66-6.74,1.85-8.25,3.85-1.74,2.29-2.19,5.89-1.38,11,.76,4.87,1.75,7.93,3.19,9.95s3.71,3.15,6.81,3.15a19.54,19.54,0,0,0,3-.25,10.71,10.71,0,0,0,2.82-.77l.51-.19.06,0c1.9-.85,6.93-3.11,5.15-14.43l-.12-.8a35,35,0,0,0-1.92-7.15c-2.12-4-5.26-4.64-6.94-4.64m-1.53,20.52a3.19,3.19,0,0,1-3.06-1.92,13.79,13.79,0,0,1-.94-3.82,12.37,12.37,0,0,1-.23-4.36,3.31,3.31,0,0,1,3.11-2.62,6.52,6.52,0,0,1,.95-.08,3.23,3.23,0,0,1,3.13,1.9,14.14,14.14,0,0,1,1,3.92,11.61,11.61,0,0,1,.19,4.26c-.36,1.5-1.42,2.36-3.25,2.65a5.45,5.45,0,0,1-.87.07m-6.5-55.77c1.32,0,1.84.37,2,1.26l.06.35-.09,1.2c-1,4.89-9,37.61-12.77,51.42-3.19,11.62-2.49,13.15-7.29,13.9l-7,1-.36,0a1.56,1.56,0,0,1-1.59-1.36l0-.36c-.05-.9,1.92-9.78,4.26-18.08,3.42-11.84,8.88-33.94,12.25-45.5.66-2.2,2-2.69,5.24-3.19l2-.32A22.44,22.44,0,0,1,243.14,76.31Zm-27.71,5c2.1,0,5.38.87,7.56,5a35.51,35.51,0,0,1,2,7.34c1.8,11.48-3.64,15.16-5.51,16a12.46,12.46,0,0,1-3.49,1,20.76,20.76,0,0,1-3.09.26c-6.84,0-9.26-4.61-10.68-13.68-1.75-11.12,2.37-14.41,10.2-15.64.71-.12,1.44-.14,2.24-.26A6.3,6.3,0,0,1,215.43,81.32Zm-1.52,20.52a5.14,5.14,0,0,0,.75-.06c3.38-.53,3-3.11,2.5-6.14s-.82-5.23-3.42-5.23a5.42,5.42,0,0,0-.86.07c-3.2.51-2.81,3-2.3,6.2C211,99.45,211.39,101.84,213.91,101.84Zm37.26,9c2.1,0,5.38.87,7.55,5a34.26,34.26,0,0,1,2,7.34l.13.8c1.89,12-3.76,14.36-5.63,15.2a12.5,12.5,0,0,1-3.49,1,19.6,19.6,0,0,1-3.1.27c-6.84,0-9.25-4.62-10.68-13.68-1.75-11.12,2.38-14.41,10.21-15.65.71-.11,1.43-.13,2.24-.26C250.61,110.9,250.88,110.88,251.17,110.88Zm-1.53,20.52a5.17,5.17,0,0,0,.76-.06c3.38-.54,3-3.12,2.5-6.14s-.83-5.23-3.43-5.23a5.3,5.3,0,0,0-.85.07c-3.2.5-2.81,3-2.31,6.19C246.75,129,247.13,131.4,249.64,131.4Z"/></g></g></g></svg>