<svg id="Layer_1" data-name="Layer 1" xmlns="http://www.w3.org/2000/svg" xmlns:xlink="http://www.w3.org/1999/xlink" viewBox="0 0 164 224"><defs><style>.cls-1{fill:none;}.cls-2{clip-path:url(#clip-path);}.cls-3{fill:#fff;opacity:0.99;}.cls-4{fill:#f2cb05;}.cls-5{fill:#3068d9;}</style><clipPath id="clip-path"><path class="cls-1" d="M-186.35-226c-.68,25.12,30.89,67.8,61.75,77.29,36.7,11.3,55.42,1.32,67.28,4.24,29,7.12,50.83,46.14,94.89,42.92S163.94-146.3,162.89-214.31,91.07-348.43,49.63-349s-83.1,72.64-109,76.42c-20.65,3-43.1-15.9-74.57-15.37S-185-274-186.35-226Z"/></clipPath></defs><title>space-bean</title><g id="pattern"><g class="cls-2"><path class="cls-3" d="M34.22,6.74a14.27,14.27,0,0,0-2.42.43c-.63.18-1.26.37-1.89.53l-1.82.46a17.59,17.59,0,0,0-1.75.52,5.63,5.63,0,0,0-2.68,1.42,2.24,2.24,0,0,0-.56,1,2.09,2.09,0,0,0-.08.55.43.43,0,0,0,0,.07l-.21.51a2.17,2.17,0,0,0,0,1.13q.36,2.19.78,4.38c.13.69.26,1.37.41,2.06.06.31.14.62.22.92a3.39,3.39,0,0,0,.48,1.06l.32.43c.17.14.35.28.54.41a2.57,2.57,0,0,0,1,.34,7.54,7.54,0,0,0,1.64.1,12,12,0,0,0,1.68-.25c.42-.09.84-.2,1.26-.31L32.85,22a34.18,34.18,0,0,0,3.72-1c.3-.11.6-.25.89-.39a4.4,4.4,0,0,0,1-.7,2.43,2.43,0,0,0,.3-.34,4.7,4.7,0,0,0,.52-.74,4.8,4.8,0,0,0,.53-2,7.33,7.33,0,0,0-.13-1.69c0-.28-.09-.55-.15-.82s-.18-.8-.26-1.2c-.15-.66-.34-1.33-.51-2s-.3-1.15-.5-1.7a10.06,10.06,0,0,0-.48-1.18,3.06,3.06,0,0,0-.93-1.09,2.81,2.81,0,0,0-1.56-.48H35.1a8.72,8.72,0,0,0-.88.08Zm.46,2.59.07.08h0l-.07-.08Zm.17.56c0,.3.1.61.14.92.08.51.15,1,.24,1.51.17,1,.38,2,.53,3.06a8.55,8.55,0,0,1,.05,1.13.25.25,0,0,0,0,.07l0,.05-.09.06c-.48.17-1,.29-1.47.42l-1.81.5-2,.59c-.74.22-1.49.45-2.25.6H28l-.15-.76c-.1-.54-.19-1.08-.29-1.62-.19-1-.37-2.08-.55-3.12.47-.28.91-.61,1.37-.89a18,18,0,0,1,2.05-1.05l.8-.35,1.35-.54A9.12,9.12,0,0,1,34,10c.23,0,.45-.09.68-.12l.2,0Zm1,6.48s0,0,0,.05l0-.05Z"/><path class="cls-3" d="M66.84,13.32a3.78,3.78,0,0,0-.83.32l-.19.11a5.08,5.08,0,0,0-.81.66,5.43,5.43,0,0,0-1.4,2.52,12.13,12.13,0,0,0-.23,1.57,4.61,4.61,0,0,0,0,.52,4.53,4.53,0,0,0,.11.71,1.37,1.37,0,0,0,.19.47,1.65,1.65,0,0,0,.05.38,2.6,2.6,0,0,0,.67,1.24,3.78,3.78,0,0,0,.73.59,3.35,3.35,0,0,0,1.48.47A3.94,3.94,0,0,0,68,22.75a8.43,8.43,0,0,0,1.34-.52,4.17,4.17,0,0,0,1.29-.92,5.41,5.41,0,0,0,.76-1,4.8,4.8,0,0,0,.39-1,5.93,5.93,0,0,0,.2-1.57,6.21,6.21,0,0,0-.12-1.14,2.51,2.51,0,0,0-.18-.59,3.13,3.13,0,0,0-.38-.78,5,5,0,0,0-.57-.73,8.27,8.27,0,0,0-.79-.65,1.69,1.69,0,0,0-.47-.27,3.75,3.75,0,0,0-.81-.29,4.31,4.31,0,0,0-.88-.09h0a6.13,6.13,0,0,0-.86.11ZM68,17.44h0Zm0,.43.27-.29.13.09h0l.08.13a3.38,3.38,0,0,1,.08.34c0,.13,0,.26,0,.39a2.45,2.45,0,0,1-.08.29,1,1,0,0,1-.08.14,4.27,4.27,0,0,1-.36.38,6.4,6.4,0,0,1-.76.43l-.24.08a5.31,5.31,0,0,0,.2-.68c.05-.21.1-.42.16-.63l.12-.21.47-.47Z"/><path class="cls-3" d="M140.46.4h.06l.71,0a10.76,10.76,0,0,0,1.26-.13c.63-.1,1.26-.27,1.89-.38l.53-.08a2.15,2.15,0,0,0,.5-.07,2,2,0,0,0,1.21-.95v0a2,2,0,0,0,.22-.57,1.46,1.46,0,0,0,.42-.32,1.83,1.83,0,0,0,.54-1.32c-.25-2.26-.5-4.52-.82-6.77-.12-.93-.24-1.85-.39-2.78a5.77,5.77,0,0,0-.5-1.52,2.36,2.36,0,0,0-2-1.28,4.58,4.58,0,0,0-1.93.69l-1.39.56c-.7.27-1.41.53-2.1.86a3.19,3.19,0,0,0-1.45,2,4.93,4.93,0,0,0-.07,2.13c.1.82.21,1.64.32,2.46.18,1.25.37,2.5.58,3.76.1.63.2,1.26.31,1.9l.12.85a1.68,1.68,0,0,0,.42.88,1.24,1.24,0,0,0,.59.33,1.08,1.08,0,0,0,.3,0,1.58,1.58,0,0,0,.69-.18Zm.15,0h0ZM144-4.32a5.55,5.55,0,0,0-.95.46c-.4.24-.79.48-1.2.7l-1.26.66c-.06-.35-.12-.7-.19-1-.13-.73-.25-1.46-.35-2.19s-.17-1.42-.26-2.13c0-.37-.09-.74-.12-1.11a11.73,11.73,0,0,1-.08-1.78l.14-.23a18.12,18.12,0,0,0,2.31-.45l1-.26.06.37c.06.37.13.74.18,1.12.1.64.2,1.28.29,1.91.16,1.32.32,2.63.47,3.95l-.08,0Zm-4-1.59v0Zm-.46-4.68s0-.06,0-.1v.1Zm.05-.23a.61.61,0,0,1,0-.12l0,.12Zm0-.08,0,0,0,0Z"/><path class="cls-3" d="M143,19.53a2,2,0,0,0,.43-.34,2,2,0,0,0,.69-.06l.48-.21a2,2,0,0,0,.72-.74,6.58,6.58,0,0,0,.88-1.9,7.38,7.38,0,0,0,.3-1.47,4,4,0,0,0-2.07-4,3.64,3.64,0,0,0-2.07-.42,7.31,7.31,0,0,0-1.39.29,7.2,7.2,0,0,0-1.74.85,5.32,5.32,0,0,0-2,2.25,5.23,5.23,0,0,0-.48,2.07,5.7,5.7,0,0,0,.15,1.3,3.63,3.63,0,0,0,.8,1.69,3.72,3.72,0,0,0,1.84,1.08,7.54,7.54,0,0,0,1.17.21h.31a3.71,3.71,0,0,0,1.93-.57Zm-2.44-3.18,0,0,0,0Zm-.16-.47v0a2.17,2.17,0,0,1,.07-.24,3.84,3.84,0,0,1,.22-.39l.19-.19a4.48,4.48,0,0,1,.56-.32,8.22,8.22,0,0,1,1.05-.29v.13a6.35,6.35,0,0,1-.28,1v0l-.27,0a2.15,2.15,0,0,0-.9.2,5.36,5.36,0,0,1-.57.17Z"/><path class="cls-3" d="M120,21a1.63,1.63,0,0,0,.31,0,1.57,1.57,0,0,0,1.54-1.57c.06-1.56.14-3.12.12-4.69a5.52,5.52,0,0,0-.14-1.28,2.76,2.76,0,0,0-.29-.66,2,2,0,0,0-.69-.66,3,3,0,0,0-.83-.29l-.42-.12c-.62-.17-1.26-.31-1.89-.47a16.7,16.7,0,0,0-2.11-.4,9.69,9.69,0,0,0-1.94-.06c-.4,0-.79.1-1.18.16s-.61.1-.92.17a3.91,3.91,0,0,0-1.7.85,2.57,2.57,0,0,0-.66,1,5.39,5.39,0,0,0-.31,1.08c-.19,1.16-.27,2.34-.42,3.52l-.09.83a1.92,1.92,0,0,0,.1.89,1.34,1.34,0,0,0,.3.5,1.48,1.48,0,0,0,.53.33c.32.09.64.13,1,.19l.81.16c1.14.23,2.29.43,3.42.7.54.12,1.07.28,1.61.42l.82.19.23,0a5.17,5.17,0,0,0,.64.09h.55A1.93,1.93,0,0,0,120,21Zm-2.59-3-1.08.11c-.72.06-1.43.14-2.14.18s-1.46.06-2.2.05l-1.2,0h-.55c.11-.63.19-1.27.27-1.91a11.44,11.44,0,0,1,.47-2.24c.07-.14.14-.28.22-.41h0l.17-.1a3,3,0,0,1,.43-.12c.47-.05.93-.05,1.4-.06.3,0,.61,0,.91,0l.66.07c.38.06.75.13,1.12.21s.86.23,1.29.34l1.27.34.51.15c0,.36,0,.72,0,1.07s0,.77,0,1.16,0,.86,0,1.29a7,7,0,0,0-1.12-.12Z"/></g></g><g id="Group_65" data-name="Group 65"><path id="Path_409" data-name="Path 409" class="cls-4" d="M40.92,66.48c-8.56,22.78,2,41-.78,52.12s-24.72,26.92-3,47.89,55.49,21.64,73-2.59c21.4-29.63,5.21-91.07-17.77-110.3S46.38,51.92,40.92,66.48ZM91.35,57c21.73,18.18,37.05,76.28,16.81,104.3-16.56,22.91-48,21.78-69,2.45-19-17.5,1.34-35.12,4-45.67s-8.51-27.35-.42-48.9C47.87,55.45,69.62,38.85,91.35,57Z"/><path id="Path_410" data-name="Path 410" class="cls-4" d="M120.15,126.05c4.43-4.07,19.81-14.35,22.79-14.84s8.17,3.27,12.88,4,7.69-5.48,6.74-8.55c-1-3.24-6.16-6.84-13.37-4.15s-29.32,17.75-29.32,17.75Z"/><path id="Path_411" data-name="Path 411" class="cls-4" d="M40.12,120.59c-3.82-4.65-17.65-17-20.53-17.84S11,104.87,6.27,105s-6.86-6.48-5.5-9.4c1.42-3.07,7-5.92,13.81-2.27s26.6,21.6,26.6,21.6Z"/><path id="Path_412" data-name="Path 412" class="cls-4" d="M80.34,180.79a36.32,36.32,0,0,1,14.3,15.61c4.36,9.61.44,21.65,3.22,24.82,2.49,2.84,15.24,3.38,18.77-1.65s0-8.86-4.4-8.61a23.59,23.59,0,0,0-6.33,1.18,1.19,1.19,0,0,1-1.49-.79.85.85,0,0,1,0-.23,46.74,46.74,0,0,0-6.12-19.26A51.66,51.66,0,0,0,87,179.23C86.43,179.39,77.55,178.88,80.34,180.79Z"/><path id="Path_413" data-name="Path 413" class="cls-4" d="M60.4,178.46c-.25,1.18-1,11.31-4.91,16.74-6,8.26-12.06,9.06-18.67,4.28-6.89-5-7.88-10.87-7.17-13.71a6.88,6.88,0,0,1,8.81-4,8.19,8.19,0,0,1,5,10c-.75,3.13,3.93,9.67,8.22-.94,1.8-4.44,2.6-13.27,3.27-14.35S60.94,175.85,60.4,178.46Z"/><g id="Group_64" data-name="Group 64"><path id="Path_414" data-name="Path 414" class="cls-4" d="M62.59,86.46a1.65,1.65,0,0,1,1.69,1.38A12.14,12.14,0,0,0,88.38,87a1.64,1.64,0,0,1,1.6-1.5h0a1.68,1.68,0,0,1,1.73,1.62,1.09,1.09,0,0,1,0,.18A15.46,15.46,0,0,1,61,88.39a1.66,1.66,0,0,1,1.41-1.9l.18,0Z"/></g><ellipse id="Ellipse_3" data-name="Ellipse 3" class="cls-4" cx="81.24" cy="76.22" rx="3.02" ry="2.19" transform="translate(-11.87 137.37) rotate(-76.46)"/><ellipse id="Ellipse_4" data-name="Ellipse 4" class="cls-4" cx="69.57" cy="75.58" rx="3.17" ry="2.79" transform="translate(-20.2 125.53) rotate(-76.46)"/></g><g id="Group_66" data-name="Group 66"><path id="Path_415" data-name="Path 415" class="cls-5" d="M30,55.52a53.33,53.33,0,1,0,71.71-23.38A53.33,53.33,0,0,0,30,55.52Zm70-20A49.53,49.53,0,1,1,33.38,57.25h0A49.52,49.52,0,0,1,100,35.54Z"/><rect id="Rectangle_2" data-name="Rectangle 2" class="cls-5" x="100.63" y="22.47" width="39.06" height="3.91" transform="translate(29.99 107.51) rotate(-54.15)"/><rect id="Rectangle_3" data-name="Rectangle 3" class="cls-5" x="30.35" y="6.05" width="3.91" height="39.04" transform="translate(-8.89 24.85) rotate(-37.36)"/><circle id="Ellipse_5" data-name="Ellipse 5" class="cls-5" cx="134.06" cy="5.7" r="5.7"/><circle id="Ellipse_6" data-name="Ellipse 6" class="cls-5" cx="18.93" cy="6.74" r="5.7"/></g></svg>