<svg id="Layer_1" data-name="Layer 1" xmlns="http://www.w3.org/2000/svg" viewBox="0 0 130 130"><defs><style>.cls-1{fill:#f2cb05;}</style></defs><title>moble-landingAB</title><g id="Group_3" data-name="Group 3"><path id="Path_2" data-name="Path 2" class="cls-1" d="M64.87,1a36.68,36.68,0,1,0,36.67,36.67A36.67,36.67,0,0,0,64.87,1Zm0,66.66a30,30,0,1,1,30-30h0a30,30,0,0,1-30,30Z"/><g id="Group_2" data-name="Group 2"><g id="Group_1" data-name="Group 1"><path id="Path_3" data-name="Path 3" class="cls-1" d="M61,32.78c3.36,0,3.79-2,3.79-3.18,0-1,0-3.55-3.28-3.55a3.22,3.22,0,0,0-2.71,1.45c-.75.84-1.07,1.31-1.59,1.31A2.14,2.14,0,0,1,56,28.15L54.34,26.8c-.52-.42-1-.8-1-1.36a2,2,0,0,1,.42-1.07c2.95-4,5.52-4.68,9.92-4.68,2.47,0,6,.89,7.48,3.18a7.79,7.79,0,0,1,1.4,4.35c0,5.94-2.81,7.06-2.81,7.67s.84,1,1.31,1.31c2.76,2.15,2.76,5,2.76,7.06,0,6.54-3.55,10.1-11.69,10.1-3.32,0-4.86-.47-6.54-1.45-.7-.38-3-2.34-3-3.51,0-.56.33-1,1-1.68l2.1-2.06a1.22,1.22,0,0,1,1.87-.14,5.8,5.8,0,0,0,4.54,2.15c2.76,0,3.65-1.59,3.65-3.6,0-2.94-1.26-4-4.26-4-.14,0-.75.1-1.36.1-1.16,0-1.3-1.64-1.3-2.9v-.52c0-1.31,0-2.94,1.49-2.94Z"/></g></g></g><g id="Group_4" data-name="Group 4"><path id="Path_4" data-name="Path 4" class="cls-1" d="M24.38,107.58c0,1.19-.8,1.29-2.27,1.29H20.75c-1.6,0-.8-3.86-1.83-3.86H16.86c-1,0-.43,3.86-2,3.86H13.67c-1.34,0-2.14-.1-2.14-1.29,0-1.54.62-2.91,2.62-14.93.21-1.29.73-2.06,1.76-2.06h4c1,0,1.55.77,1.8,2.06C23.43,103.2,24.38,106,24.38,107.58Zm-7.49-6.85c0,.42.18.42,1,.42s1,0,1-.39a1.85,1.85,0,0,0,0-.41c-.31-2.53-.41-5.64-1-5.64s-.72,3.09-1,5.64A1.62,1.62,0,0,0,16.89,100.73Z"/><path id="Path_5" data-name="Path 5" class="cls-1" d="M30.84,103v3.78c0,1,0,2.06-1.54,2.06H28c-1.54,0-1.54-1-1.54-2.06V92.64c0-1,0-2,1.54-2H33.6c2.78,0,4.35,2.26,4.35,5.87a11.66,11.66,0,0,1-.8,4.17c-.82,1.76-3.27,2-4.71,2a6,6,0,0,1-.95,0C30.87,102.59,30.84,102.79,30.84,103Zm0-7.7c0,.33,0,.77,0,1.31s0,1,0,1.29c0,.85.15,1,1.18,1,1.37,0,1.42-1.13,1.42-2.29s-.26-2.58-1.42-2.58-1.18.34-1.18,1.27Z"/><path id="Path_6" data-name="Path 6" class="cls-1" d="M44.28,103v3.78c0,1,0,2.06-1.54,2.06H41.45c-1.54,0-1.54-1-1.54-2.06V92.64c0-1,0-2,1.54-2H47c2.78,0,4.35,2.26,4.35,5.87a11.87,11.87,0,0,1-.79,4.17c-.83,1.76-3.28,2-4.72,2a6.05,6.05,0,0,1-1,0C44.31,102.59,44.28,102.79,44.28,103Zm0-7.7c0,.33,0,.77,0,1.31s0,1,0,1.29c0,.85.15,1,1.18,1,1.37,0,1.42-1.13,1.42-2.29s-.26-2.58-1.42-2.58-1.18.34-1.18,1.27Z"/><path id="Path_7" data-name="Path 7" class="cls-1" d="M59.91,90.59c3.84,0,4.92,2.75,4.92,5.79,0,1.86,0,3-1.49,4.28-.72.62-1.18.25-1.18,1.23s.33,2.35,1.18,2.35a3.69,3.69,0,0,0,.82-.13c.83,0,1,.69,1,1.88,0,.57,0,1.26,0,2,0,.52-.21,1-1.54,1-2.37,0-3.58-1.75-4.07-3.66-.62-2.39-1.39-2.8-1.55-2.8s-.21.41-.21.61v3.66c0,1,0,2.06-1.54,2.06H54.37c-1,0-1-1-1-2.06V92.64c0-1,0-2,1.54-2ZM57.7,95.17c0,.34,0,.93,0,1.47s0,1,0,1.29c0,.85.16,1,1.18,1s1.42-1.13,1.42-2.29-.26-2.57-1.42-2.57S57.7,94.24,57.7,95.17Z"/><path id="Path_8" data-name="Path 8" class="cls-1" d="M67.07,97.64c0-4.14.39-7.18,5.82-7.18,5.18,0,5.54,3,5.54,7.08,0,1.55.08,3.07.08,4.43,0,4.07-.65,7-5.62,7-5.43,0-5.82-3-5.82-7.16,0-.7,0-1.39,0-2.11S67.07,98.32,67.07,97.64Zm4.41-2.16v8.11c0,.77,0,1.8,1.29,1.8s1.29-1,1.29-1.8V95.48c0-.64,0-1.41-1.29-1.41s-1.29.77-1.29,1.41Z"/><path id="Path_9" data-name="Path 9" class="cls-1" d="M90,90.56h1c1.11,0,1.76.13,1.76,1.16,0,.79-.7,3.86-2.84,15.09-.25,1.28-.77,2.06-1.8,2.06H84.89c-1,0-1.55-.78-1.78-2.06-2-11.23-2.68-14.3-2.68-15.09,0-1.09.65-1.19,1.89-1.19h1.1c1.37,0,1.65.44,2.09,4.53.75,6.78.8,9.3,1.23,9.3s.47-2.52.85-5.38C88.57,91.15,88.32,90.56,90,90.56Z"/><path id="Path_10" data-name="Path 10" class="cls-1" d="M106,107.58c0,1.19-.8,1.29-2.26,1.29h-1.37c-1.6,0-.8-3.86-1.83-3.86H98.46c-1,0-.43,3.86-2,3.86H95.27c-1.34,0-2.14-.1-2.14-1.29,0-1.54.62-2.91,2.62-14.93.21-1.29.73-2.06,1.76-2.06h4c1,0,1.55.77,1.8,2.06C105,103.2,106,106,106,107.58Zm-7.49-6.85c0,.42.18.42,1,.42s1,0,1-.39a2.73,2.73,0,0,0,0-.41c-.31-2.53-.41-5.64-1-5.64s-.72,3.09-1,5.64A1.62,1.62,0,0,0,98.49,100.73Z"/><path id="Path_11" data-name="Path 11" class="cls-1" d="M115.77,105.14c1.08,0,1.21.56,1.21,1.34v.33c0,1,0,2.06-1.55,2.06h-5.82c-1.55,0-1.55-1-1.55-2.06V92.65c0-1,0-2.06,1.55-2.06h1.29c1.54,0,1.54,1,1.54,2.06v11.1c0,.61,0,1.41.8,1.44C114.61,105.19,115.23,105.14,115.77,105.14Z"/></g></svg>