<svg id="Layer_1" data-name="Layer 1" xmlns="http://www.w3.org/2000/svg" viewBox="0 0 130 130"><defs><style>.cls-1,.cls-3{fill:#95d7c4;}.cls-2,.cls-3{isolation:isolate;}.cls-3{font-size:24.3px;font-family:HWTArtz, HWT Artz;letter-spacing:0.05em;}</style></defs><title>moble-landingAB</title><g id="Group_131" data-name="Group 131"><path id="Path_603" data-name="Path 603" class="cls-1" d="M66.39.64a37.17,37.17,0,1,0,36.9,37.43h0A37.17,37.17,0,0,0,66.39.64Zm-.48,67.55A30.39,30.39,0,1,1,96.51,38h0a30.39,30.39,0,0,1-30.6,30.17Z"/><g id="Group_130" data-name="Group 130"><g id="Group_129" data-name="Group 129"><path id="Path_604" data-name="Path 604" class="cls-1" d="M72.47,46.63c2.42,0,2.4,2.15,2.4,3V51c0,1.42,0,2.51-2.67,2.49l-15.12-.11c-2.51,0-2.5-1.44-2.49-2.86l0-2.84c0-1.37,2-2.69,5-5.65a35.23,35.23,0,0,0,4.59-5.46c1.48-2.32,1.87-3.87,1.9-7.38,0-2-.93-3.23-2.06-3.24-1.57,0-2.15,2.26-2.16,3.68,0,.24.13,1.85.13,2.13,0,.57-.11,1.47-1.44,1.46l-4.17,0c-1.42,0-1.41-1.05-1.4-2.09v-1.8c0-1.79.32-4.87,1.66-6.76,2.11-2.92,5.42-3,8.12-3,2.18,0,4.74.13,6.72,1.61,2.4,1.82,3.42,5.52,3.4,8.51s-.24,6.54-2.86,9.59c-3.54,4.15-7.35,7-7.35,7.29a.13.13,0,0,0,.1.15h0c.76,0,3,0,3.84,0C68.87,46.7,71.62,46.63,72.47,46.63Z"/></g></g></g><g id="Group_132" data-name="Group 132"><g id="Revisions" class="cls-2"><text class="cls-3" transform="matrix(1, 0.01, -0.01, 1, 16.64, 107.44)">Revisions</text></g></g></svg>