<svg id="Layer_1" data-name="Layer 1" xmlns="http://www.w3.org/2000/svg" viewBox="0 0 130 130"><defs><style>.cls-1,.cls-3{fill:#9e4bfa;}.cls-2,.cls-3{isolation:isolate;}.cls-3{font-size:25.54px;font-family:HWTArtz, HWT Artz;letter-spacing:0.05em;}</style></defs><title>step-1</title><g id="Group_125" data-name="Group 125"><path id="Path_600" data-name="Path 600" class="cls-1" d="M64.94,1a36.69,36.69,0,1,0,36.69,36.69A36.69,36.69,0,0,0,64.94,1Zm0,66.69a30,30,0,1,1,30-30,30,30,0,0,1-30,30Z"/><g id="Group_124" data-name="Group 124"><g id="Group_123" data-name="Group 123"><path id="Path_601" data-name="Path 601" class="cls-1" d="M63.27,30.83v-.65c0-.66-.05-1.26-.23-1.26A19,19,0,0,0,60,31.25a1.73,1.73,0,0,1-1.12.52c-1,0-3.42-2.44-3.42-3.7s1.92-1.73,6.08-6.46l.19-.23c1.68-1.87,1.82-2.06,4.82-2.06h2.62c2.39,0,2.39,1.87,2.39,3.74V49.72c0,1.41,0,2.81-2.86,2.81H66.08c-2.81,0-2.81-1.4-2.81-2.81Z"/></g></g></g><g id="Submission" class="cls-2"><text class="cls-3" transform="translate(5.03 108.46)">Submission</text></g></svg>