<svg id="Layer_1" data-name="Layer 1" xmlns="http://www.w3.org/2000/svg" viewBox="0 0 86 101"><defs><style>.cls-1{fill:#3068d9;}</style></defs><title>trial-bean</title><g id="blue-bean-1-2"><path id="Path_628" data-name="Path 628" class="cls-1" d="M77.56,49.76C75.85,45.52,69.22,31.67,65,20.31,61.18,10.16,52.08,1.17,44.16,1c-10-.22-23,15.78-23,36.22S27,75.68,53.75,75.68,80.52,57.08,77.56,49.76ZM53.5,73.23c-25,0-29.73-16.85-29.73-35.94S35.2,3.25,44.55,3.45C51.94,3.61,59.77,12,63.32,21.5,67.28,32.1,73.47,45,75.07,49c2.77,6.84,3.45,24.22-21.57,24.22Z"/><ellipse id="Ellipse_35" data-name="Ellipse 35" class="cls-1" cx="39.42" cy="18.73" rx="1.66" ry="1.91"/><ellipse id="Ellipse_36" data-name="Ellipse 36" class="cls-1" cx="46.75" cy="18.32" rx="1.83" ry="2.41"/><path id="Path_629" data-name="Path 629" class="cls-1" d="M37.52,26.82c.57-1.56,10.65-3.33,11.15-2.83s.84,13.82-4.32,15.15S36.86,28.65,37.52,26.82Z"/><path id="Path_630" data-name="Path 630" class="cls-1" d="M69.84,33.11c1.54-2.19,8.26-11.58,8.56-13.29s.36-4.86,2.31-5.75a3,3,0,0,1,4,1.46,2.91,2.91,0,0,1,.27,1c-.06,1.9-3.32,3.79-4.38,4.86S71.74,33.23,71,35.3,69.43,33.7,69.84,33.11Z"/><path id="Path_631" data-name="Path 631" class="cls-1" d="M22.16,37c-1.34-1.34-12.61-8.39-14-9.78-.86-.86-.66-2.84-1.81-4.65S1.28,20.39.56,22.32s-.13,3.5,4.1,5.49S21.2,38,22.16,40.37,23.31,38.13,22.16,37Z"/><path id="Path_632" data-name="Path 632" class="cls-1" d="M40.08,73.39a67.59,67.59,0,0,0-4.65,13.17c-.39,2.75.92,7.86.46,8.85s-2.23,2.09-1.57,3.86S37.53,101,39,99s.85-3.47.4-4.06a16.78,16.78,0,0,1-1.64-8.45c.46-3.34,4.65-11.73,4.79-12.45S40.86,71.82,40.08,73.39Z"/><path id="Path_633" data-name="Path 633" class="cls-1" d="M64.39,74.06c1.44,1.86,7.1,5.14,7,8.46s-2.26,8.26-1.06,10.37,7,1.11,7-1.71-4-2.51-4.61-2.82,1-3.52.68-6.64c-.26-2.73-3.62-8.36-4.93-9.07S63,72.25,64.39,74.06Z"/></g></svg>