<svg id="Layer_1" data-name="Layer 1" xmlns="http://www.w3.org/2000/svg" viewBox="0 0 86 101"><defs><style>.cls-1{fill:#f2cb05;}</style></defs><title>trial-bean</title><g id="Group_148" data-name="Group 148"><g id="Group_147" data-name="Group 147"><path id="Path_634" data-name="Path 634" class="cls-1" d="M33,73.4c-4.77-1.18-8.4-1.5-12.67-.17-6,1.89-9.83,8.44-12.35,8.46-2.26,0-7.58-5.45-6.74-9s4-3.51,5.59-1.46a14,14,0,0,1,2,3.29.71.71,0,0,0,.94.35l.12-.07c1.93-1.38,6.4-4.25,11-5s10-.31,10.13,0S35,73.88,33,73.4Z"/><path id="Path_635" data-name="Path 635" class="cls-1" d="M41.43,80.44c-.66.28-6.52,1.87-9.26,4.8-4.16,4.45-3.93,8.12-.36,11.45s7.28,3.37,8.86,2.63A4.11,4.11,0,0,0,42,93.69a4.89,4.89,0,0,0-6.43-1.77c-1.75.8-6.13-1.19-.4-4.93,2.4-1.57,7.49-3.06,8-3.57S42.9,79.82,41.43,80.44Z"/><g id="Group_146" data-name="Group 146"><path id="Path_636" data-name="Path 636" class="cls-1" d="M67.6,33.85a.88.88,0,0,0-.73.93A6.62,6.62,0,0,1,54,37.17a.89.89,0,0,0-1-.61h0a.91.91,0,0,0-.73,1.06.36.36,0,0,0,0,.1,8.42,8.42,0,0,0,16.44-3,.92.92,0,0,0-1-.85H67.6Z"/></g><path id="Path_637" data-name="Path 637" class="cls-1" d="M85.38,59.21c3.91-21.27-11.46-46.62-23-49.36C52.8,7.56,45.26,13.69,41.33,22.17,38,29.41,38.89,35.91,37.54,41.59c-1.1,4.64-7.57,15.33-8.35,23.24-.9,9,5.87,17.19,21.17,20.83S81.46,80.48,85.38,59.21ZM51,83.23C36.73,79.83,30.86,72.38,31.7,63.94c.73-7.39,7.21-17.33,8.24-21.67,1.26-5.31-.5-11.59,2.64-18.36C46.25,16,53.3,10.27,62.27,12.41,73,15,86.92,38.74,83.27,58.62s-18,28-32.25,24.61Z"/><path id="Path_638" data-name="Path 638" class="cls-1" d="M84.5,46a10.32,10.32,0,0,1-4.7-1.3A10,10,0,0,1,77,41.43c-.26-.44,0-2.63-.76-4.18-.72-1.36-3.41-1.74-4.79-.62a3.22,3.22,0,0,0-.11,4.51c1.16,1,3,.81,3.37,1.32a22.85,22.85,0,0,0,4.45,4.28,11.44,11.44,0,0,0,5.41,1.58C85.89,48.32,85.57,46.09,84.5,46Z"/><path id="Path_639" data-name="Path 639" class="cls-1" d="M37,46.42a10.51,10.51,0,0,0,4.84-.58,10.35,10.35,0,0,0,3.34-3c.34-.39.29-2.5,1.33-3.9.91-1.24,3.63-1.22,4.82.11a3.22,3.22,0,0,1-.56,4.47c-1.3.8-3.05.36-3.53.81a23.35,23.35,0,0,1-5.05,3.55,11.44,11.44,0,0,1-5.58.75C35.32,48.46,36,46.3,37,46.42Z"/><path id="Path_640" data-name="Path 640" class="cls-1" d="M60.72,31.32a2.58,2.58,0,0,1-2.95.86c-.78-.4-.33-1.39.16-2.32a1.6,1.6,0,0,1,3.06.93,1.77,1.77,0,0,1-.27.53Z"/><path id="Path_641" data-name="Path 641" class="cls-1" d="M66.89,30.56c.3,1,.32,1.93-.51,2.17a2.19,2.19,0,0,1-2.51-1.27A1.6,1.6,0,1,1,66.72,30,1.58,1.58,0,0,1,66.89,30.56Z"/></g></g></svg>